<?xml version="1.0" encoding="utf-8"?>
<svg width="76px" height="58px" viewBox="0 0 76 58" version="1.1" xmlns:xlink="http://www.w3.org/1999/xlink" xmlns="http://www.w3.org/2000/svg">
  <defs>
    <filter filterUnits="userSpaceOnUse" color-interpolation-filters="sRGB" id="filter_1">
      <feFlood flood-opacity="0" result="BackgroundImageFix" />
      <feColorMatrix in="SourceAlpha" type="matrix" values="0 0 0 0 0 0 0 0 0 0 0 0 0 0 0 0 0 0 127 0" />
      <feOffset dx="2" dy="2" />
      <feGaussianBlur stdDeviation="8" />
      <feColorMatrix type="matrix" values="0 0 0 0 0 0 0 0 0 0 0 0 0 0 0 0 0 0 0.5019608 0" />
      <feBlend mode="normal" in2="BackgroundImageFix" result="effect0_dropShadow" />
      <feBlend mode="normal" in="SourceGraphic" in2="effect0_dropShadow" result="shape" />
    </filter>
    <path d="M15.903 0C14.1464 0 12.7224 1.42402 12.7224 3.18065L12.7224 12.7226L3.18063 12.7226C1.42402 12.7226 0 14.1466 0 15.9032C0 17.6599 1.42402 19.0839 3.18063 19.0839L12.7224 19.0839L12.7224 28.6258C12.7224 30.3825 14.1464 31.8065 15.903 31.8065C17.6596 31.8065 19.0836 30.3825 19.0836 28.6258L19.0836 19.0839L28.6258 19.0839C30.3823 19.0839 31.8065 17.6599 31.8065 15.9032C31.8065 14.1466 30.3823 12.7226 28.6258 12.7226L19.0836 12.7226L19.0836 3.18065C19.0836 1.42402 17.6596 0 15.903 0Z" transform="translate(22.096775 13.096774)" id="path_1" />
    <clipPath id="mask_1">
      <use xlink:href="#path_1" />
    </clipPath>
  </defs>
  <g id="Add-Order">
    <g filter="url(#filter_1)">
      <g id="Add-Order">
        <path d="M12.999 0L63.001 0Q63.3201 0 63.6388 0.0156579Q63.9575 0.0313157 64.2751 0.0625937Q64.5927 0.0938717 64.9083 0.140695Q65.224 0.187517 65.537 0.249772Q65.8499 0.312027 66.1595 0.389564Q66.469 0.4671 66.7744 0.559732Q67.0798 0.652364 67.3802 0.759869Q67.6807 0.867373 67.9755 0.98949Q68.2703 1.11161 68.5588 1.24804Q68.8473 1.38448 69.1287 1.53491Q69.4101 1.68533 69.6838 1.84939Q69.9575 2.01344 70.2228 2.19073Q70.4882 2.36801 70.7445 2.55811Q71.0008 2.7482 71.2475 2.95064Q71.4941 3.15308 71.7306 3.36738Q71.967 3.58168 72.1927 3.80732Q72.4183 4.03296 72.6326 4.2694Q72.8469 4.50585 73.0494 4.75252Q73.2518 4.99919 73.4419 5.2555Q73.632 5.51181 73.8093 5.77714Q73.9866 6.04247 74.1506 6.31618Q74.3147 6.58989 74.4651 6.87131Q74.6155 7.15274 74.7519 7.44121Q74.8884 7.72968 75.0105 8.0245Q75.1326 8.31931 75.2401 8.61977Q75.3476 8.92022 75.4403 9.22559Q75.5329 9.53096 75.6104 9.8405Q75.688 10.15 75.7502 10.463Q75.8125 10.776 75.8593 11.0917Q75.9061 11.4073 75.9374 11.7249Q75.9687 12.0424 75.9843 12.3612Q76 12.6799 76 12.999L76 58L0 58L0 12.999Q0 12.6799 0.0156579 12.3612Q0.0313157 12.0424 0.0625937 11.7249Q0.0938717 11.4073 0.140695 11.0917Q0.187517 10.776 0.249772 10.463Q0.312027 10.15 0.389564 9.8405Q0.4671 9.53096 0.559732 9.22559Q0.652364 8.92022 0.759869 8.61977Q0.867373 8.31931 0.98949 8.0245Q1.11161 7.72968 1.24804 7.44121Q1.38448 7.15274 1.53491 6.87131Q1.68533 6.58989 1.84939 6.31618Q2.01344 6.04247 2.19073 5.77714Q2.36801 5.51181 2.55811 5.2555Q2.7482 4.99919 2.95064 4.75252Q3.15308 4.50585 3.36738 4.2694Q3.58168 4.03296 3.80732 3.80732Q4.03296 3.58168 4.2694 3.36738Q4.50585 3.15308 4.75252 2.95064Q4.99919 2.7482 5.2555 2.55811Q5.51181 2.36801 5.77714 2.19073Q6.04247 2.01344 6.31618 1.84939Q6.58989 1.68533 6.87131 1.53491Q7.15274 1.38448 7.44121 1.24804Q7.72968 1.11161 8.0245 0.98949Q8.31931 0.867373 8.61977 0.759869Q8.92022 0.652364 9.22559 0.559732Q9.53096 0.4671 9.8405 0.389564Q10.15 0.312027 10.463 0.249772Q10.776 0.187517 11.0917 0.140694Q11.4073 0.0938717 11.7249 0.0625937Q12.0424 0.0313157 12.3612 0.0156579Q12.6799 0 12.999 0L12.999 0Z" id="Rectangle" fill="#4880FF" fill-rule="evenodd" stroke="none" />
        <path d="M15.903 0C14.1464 0 12.7224 1.42402 12.7224 3.18065L12.7224 12.7226L3.18063 12.7226C1.42402 12.7226 0 14.1466 0 15.9032C0 17.6599 1.42402 19.0839 3.18063 19.0839L12.7224 19.0839L12.7224 28.6258C12.7224 30.3825 14.1464 31.8065 15.903 31.8065C17.6596 31.8065 19.0836 30.3825 19.0836 28.6258L19.0836 19.0839L28.6258 19.0839C30.3823 19.0839 31.8065 17.6599 31.8065 15.9032C31.8065 14.1466 30.3823 12.7226 28.6258 12.7226L19.0836 12.7226L19.0836 3.18065C19.0836 1.42402 17.6596 0 15.903 0Z" transform="translate(22.096775 13.096774)" id="plus" fill="#FFFFFF" fill-rule="evenodd" stroke="none" />
      </g>
    </g>
  </g>
</svg>