<?xml version="1.0" encoding="utf-8"?>
<svg width="521px" height="36px" viewBox="0 0 521 36" version="1.1" xmlns:xlink="http://www.w3.org/1999/xlink" xmlns="http://www.w3.org/2000/svg">
  <defs>
    <filter filterUnits="userSpaceOnUse" color-interpolation-filters="sRGB" id="filter_1">
      <feFlood flood-opacity="0" result="BackgroundImageFix" />
      <feColorMatrix in="SourceAlpha" type="matrix" values="0 0 0 0 0 0 0 0 0 0 0 0 0 0 0 0 0 0 127 0" />
      <feOffset dx="0" dy="0" />
      <feGaussianBlur stdDeviation="7.5" />
      <feColorMatrix type="matrix" values="0 0 0 0 0 0 0 0 0 0 0 0 0 0 0 0 0 0 0.31764707 0" />
      <feBlend mode="normal" in2="BackgroundImageFix" result="effect0_dropShadow" />
      <feBlend mode="normal" in="SourceGraphic" in2="effect0_dropShadow" result="shape" />
    </filter>
    <path d="M2.999 0L196.609 0Q196.756 0 196.903 0.014441Q197.049 0.028882 197.194 0.0576249Q197.338 0.0863679 197.479 0.129136Q197.62 0.171904 197.756 0.228285Q197.893 0.284667 198.023 0.354118Q198.152 0.42357 198.275 0.505423Q198.397 0.587276 198.511 0.680742Q198.625 0.774208 198.729 0.878387Q198.834 0.982566 198.927 1.09645Q199.021 1.21034 199.102 1.33284Q199.184 1.45535 199.254 1.58528Q199.323 1.71522 199.38 1.85133Q199.436 1.98745 199.479 2.12844Q199.521 2.26942 199.55 2.41392Q199.579 2.55842 199.593 2.70505Q199.608 2.85167 199.608 2.999L199.608 33.001Q199.608 33.1483 199.593 33.295Q199.579 33.4416 199.55 33.5861Q199.521 33.7306 199.479 33.8716Q199.436 34.0126 199.38 34.1487Q199.323 34.2848 199.254 34.4147Q199.184 34.5447 199.102 34.6671Q199.021 34.7897 198.927 34.9035Q198.834 35.0174 198.729 35.1216Q198.625 35.2258 198.511 35.3193Q198.397 35.4127 198.275 35.4946Q198.152 35.5764 198.023 35.6459Q197.893 35.7153 197.756 35.7717Q197.62 35.8281 197.479 35.8709Q197.338 35.9136 197.194 35.9424Q197.049 35.9711 196.903 35.9856Q196.756 36 196.609 36L2.999 36Q2.85167 36 2.70505 35.9856Q2.55842 35.9711 2.41392 35.9424Q2.26942 35.9136 2.12844 35.8709Q1.98745 35.8281 1.85133 35.7717Q1.71522 35.7153 1.58528 35.6459Q1.45535 35.5764 1.33284 35.4946Q1.21034 35.4127 1.09645 35.3193Q0.982566 35.2258 0.878387 35.1216Q0.774208 35.0174 0.680742 34.9035Q0.587276 34.7897 0.505423 34.6671Q0.42357 34.5447 0.354118 34.4147Q0.284667 34.2848 0.228285 34.1487Q0.171904 34.0126 0.129136 33.8716Q0.0863679 33.7306 0.0576249 33.5861Q0.028882 33.4416 0.014441 33.295Q0 33.1483 0 33.001L0 2.999Q0 2.85167 0.014441 2.70505Q0.028882 2.55842 0.0576249 2.41392Q0.0863679 2.26942 0.129136 2.12844Q0.171904 1.98745 0.228285 1.85133Q0.284667 1.71522 0.354118 1.58528Q0.42357 1.45535 0.505423 1.33284Q0.587276 1.21034 0.680742 1.09645Q0.774208 0.982566 0.878387 0.878387Q0.982566 0.774208 1.09645 0.680742Q1.21034 0.587276 1.33284 0.505423Q1.45535 0.42357 1.58528 0.354118Q1.71522 0.284667 1.85133 0.228285Q1.98745 0.171904 2.12844 0.129136Q2.26942 0.0863679 2.41392 0.0576249Q2.55842 0.028882 2.70505 0.014441Q2.85167 0 2.999 0L2.999 0Z" id="path_1" />
    <clipPath id="mask_1">
      <use xlink:href="#path_1" />
    </clipPath>
  </defs>
  <g id="Chart-Zoom">
    <g id="Chart-Zoom">
      <g id="Chart-Zoom">
        <g id="Group-121" transform="translate(0 9)">
          <path d="M0.484485 0L0.484485 7" transform="translate(14.534551 0)" id="Stroke-15" fill="none" fill-rule="evenodd" stroke="#374148" stroke-width="2" stroke-linecap="round" stroke-linejoin="round" />
          <path d="M0.484485 0L0.484485 7" transform="translate(170.53873 0)" id="Stroke-17" fill="none" fill-rule="evenodd" stroke="#374148" stroke-width="2" stroke-linecap="round" stroke-linejoin="round" />
          <path d="M0.484485 0L0.484485 7" transform="translate(328.48083 0)" id="Stroke-19" fill="none" fill-rule="evenodd" stroke="#374148" stroke-width="2" stroke-linecap="round" stroke-linejoin="round" />
          <path d="M0.484485 0L0.484485 9" transform="translate(483.51605 0)" id="Stroke-21" fill="none" fill-rule="evenodd" stroke="#374148" stroke-width="2" stroke-linecap="round" stroke-linejoin="round" />
          <path d="M0.484485 0L0.484485 4" transform="translate(26.162191 0)" id="Stroke-23" fill="none" fill-rule="evenodd" stroke="#374148" stroke-width="2" stroke-linecap="round" stroke-linejoin="round" />
          <path d="M0.484485 0L0.484485 4" transform="translate(185.07327 0)" id="Stroke-25" fill="none" fill-rule="evenodd" stroke="#374148" stroke-width="2" stroke-linecap="round" stroke-linejoin="round" />
          <path d="M0.484485 0L0.484485 4" transform="translate(340.1085 0)" id="Stroke-27" fill="none" fill-rule="evenodd" stroke="#374148" stroke-width="2" stroke-linecap="round" stroke-linejoin="round" />
          <path d="M0.484485 0L0.484485 4" transform="translate(496.11267 0)" id="Stroke-29" fill="none" fill-rule="evenodd" stroke="#374148" stroke-width="2" stroke-linecap="round" stroke-linejoin="round" />
          <path d="M0.484485 0L0.484485 4" transform="translate(97.865974 0)" id="Stroke-31" fill="none" fill-rule="evenodd" stroke="#374148" stroke-width="2" stroke-linecap="round" stroke-linejoin="round" />
          <path d="M0.484485 0L0.484485 4" transform="translate(256.77707 0)" id="Stroke-33" fill="none" fill-rule="evenodd" stroke="#374148" stroke-width="2" stroke-linecap="round" stroke-linejoin="round" />
          <path d="M0.484485 0L0.484485 4" transform="translate(411.8123 0)" id="Stroke-35" fill="none" fill-rule="evenodd" stroke="#374148" stroke-width="2" stroke-linecap="round" stroke-linejoin="round" />
          <path d="M0.484485 0L0.484485 4" transform="translate(38.7588 0)" id="Stroke-39" fill="none" fill-rule="evenodd" stroke="#374148" stroke-width="2" stroke-linecap="round" stroke-linejoin="round" />
          <path d="M0.484485 0L0.484485 4" transform="translate(196.70093 0)" id="Stroke-41" fill="none" fill-rule="evenodd" stroke="#374148" stroke-width="2" stroke-linecap="round" stroke-linejoin="round" />
          <path d="M0.484485 0L0.484485 4" transform="translate(352.7051 0)" id="Stroke-43" fill="none" fill-rule="evenodd" stroke="#374148" stroke-width="2" stroke-linecap="round" stroke-linejoin="round" />
          <path d="M0.484485 0L0.484485 4" transform="translate(507.7403 0)" id="Stroke-45" fill="none" fill-rule="evenodd" stroke="#374148" stroke-width="2" stroke-linecap="round" stroke-linejoin="round" />
          <path d="M0.484485 0L0.484485 4" transform="translate(110.462585 0)" id="Stroke-47" fill="none" fill-rule="evenodd" stroke="#374148" stroke-width="2" stroke-linecap="round" stroke-linejoin="round" />
          <path d="M0.484485 0L0.484485 4" transform="translate(268.4047 0)" id="Stroke-49" fill="none" fill-rule="evenodd" stroke="#374148" stroke-width="2" stroke-linecap="round" stroke-linejoin="round" />
          <path d="M0.484485 0L0.484485 4" transform="translate(424.40887 0)" id="Stroke-51" fill="none" fill-rule="evenodd" stroke="#374148" stroke-width="2" stroke-linecap="round" stroke-linejoin="round" />
          <path d="M0.484485 0L0.484485 4" transform="translate(50.386444 0)" id="Stroke-55" fill="none" fill-rule="evenodd" stroke="#374148" stroke-width="2" stroke-linecap="round" stroke-linejoin="round" />
          <path d="M0.484485 0L0.484485 4" transform="translate(208.32857 0)" id="Stroke-57" fill="none" fill-rule="evenodd" stroke="#374148" stroke-width="2" stroke-linecap="round" stroke-linejoin="round" />
          <path d="M0.484485 0L0.484485 4" transform="translate(364.33273 0)" id="Stroke-59" fill="none" fill-rule="evenodd" stroke="#374148" stroke-width="2" stroke-linecap="round" stroke-linejoin="round" />
          <path d="M0.484485 0L0.484485 4" transform="translate(519.3679 0)" id="Stroke-61" fill="none" fill-rule="evenodd" stroke="#374148" stroke-width="2" stroke-linecap="round" stroke-linejoin="round" />
          <path d="M0.484485 0L0.484485 4" transform="translate(122.090225 0)" id="Stroke-63" fill="none" fill-rule="evenodd" stroke="#374148" stroke-width="2" stroke-linecap="round" stroke-linejoin="round" />
          <path d="M0.484485 0L0.484485 4" transform="translate(281.0013 0)" id="Stroke-65" fill="none" fill-rule="evenodd" stroke="#374148" stroke-width="2" stroke-linecap="round" stroke-linejoin="round" />
          <path d="M0.484485 0L0.484485 4" transform="translate(436.03653 0)" id="Stroke-67" fill="none" fill-rule="evenodd" stroke="#374148" stroke-width="2" stroke-linecap="round" stroke-linejoin="round" />
          <path d="M0.484485 0L0.484485 4" transform="translate(62.014084 0)" id="Stroke-71" fill="none" fill-rule="evenodd" stroke="#374148" stroke-width="2" stroke-linecap="round" stroke-linejoin="round" />
          <path d="M0.484485 0L0.484485 4" transform="translate(220.92517 0)" id="Stroke-73" fill="none" fill-rule="evenodd" stroke="#374148" stroke-width="2" stroke-linecap="round" stroke-linejoin="round" />
          <path d="M0.484485 0L0.484485 4" transform="translate(375.9604 0)" id="Stroke-75" fill="none" fill-rule="evenodd" stroke="#374148" stroke-width="2" stroke-linecap="round" stroke-linejoin="round" />
          <path d="M0.484485 0L0.484485 4" transform="translate(134.68684 0)" id="Stroke-79" fill="none" fill-rule="evenodd" stroke="#374148" stroke-width="2" stroke-linecap="round" stroke-linejoin="round" />
          <path d="M0.484485 0L0.484485 4" transform="translate(292.62897 0)" id="Stroke-81" fill="none" fill-rule="evenodd" stroke="#374148" stroke-width="2" stroke-linecap="round" stroke-linejoin="round" />
          <path d="M0.484485 0L0.484485 4" transform="translate(448.63315 0)" id="Stroke-83" fill="none" fill-rule="evenodd" stroke="#374148" stroke-width="2" stroke-linecap="round" stroke-linejoin="round" />
          <path d="M0.484485 0L0.484485 4" transform="translate(74.610695 0)" id="Stroke-87" fill="none" fill-rule="evenodd" stroke="#374148" stroke-width="2" stroke-linecap="round" stroke-linejoin="round" />
          <path d="M0.484485 0L0.484485 4" transform="translate(232.55281 0)" id="Stroke-89" fill="none" fill-rule="evenodd" stroke="#374148" stroke-width="2" stroke-linecap="round" stroke-linejoin="round" />
          <path d="M0.484485 0L0.484485 4" transform="translate(388.55698 0)" id="Stroke-91" fill="none" fill-rule="evenodd" stroke="#374148" stroke-width="2" stroke-linecap="round" stroke-linejoin="round" />
          <path d="M0.484485 0L0.484485 4" transform="translate(146.31448 0)" id="Stroke-95" fill="none" fill-rule="evenodd" stroke="#374148" stroke-width="2" stroke-linecap="round" stroke-linejoin="round" />
          <path d="M0.484485 0L0.484485 4" transform="translate(304.2566 0)" id="Stroke-97" fill="none" fill-rule="evenodd" stroke="#374148" stroke-width="2" stroke-linecap="round" stroke-linejoin="round" />
          <path d="M0.484485 0L0.484485 4" transform="translate(460.26077 0)" id="Stroke-99" fill="none" fill-rule="evenodd" stroke="#374148" stroke-width="2" stroke-linecap="round" stroke-linejoin="round" />
          <path d="M0.484485 0L0.484485 4" transform="translate(86.238335 0)" id="Stroke-103" fill="none" fill-rule="evenodd" stroke="#374148" stroke-width="2" stroke-linecap="round" stroke-linejoin="round" />
          <path d="M0.484485 0L0.484485 4" transform="translate(245.14943 0)" id="Stroke-105" fill="none" fill-rule="evenodd" stroke="#374148" stroke-width="2" stroke-linecap="round" stroke-linejoin="round" />
          <path d="M0.484485 0L0.484485 4" transform="translate(400.18463 0)" id="Stroke-107" fill="none" fill-rule="evenodd" stroke="#374148" stroke-width="2" stroke-linecap="round" stroke-linejoin="round" />
          <path d="M0.484485 0L0.484485 4" transform="translate(157.94212 0)" id="Stroke-111" fill="none" fill-rule="evenodd" stroke="#374148" stroke-width="2" stroke-linecap="round" stroke-linejoin="round" />
          <path d="M0.484485 0L0.484485 4" transform="translate(316.8532 0)" id="Stroke-113" fill="none" fill-rule="evenodd" stroke="#374148" stroke-width="2" stroke-linecap="round" stroke-linejoin="round" />
          <path d="M0.484485 0L0.484485 4" transform="translate(471.88843 0)" id="Stroke-115" fill="none" fill-rule="evenodd" stroke="#374148" stroke-width="2" stroke-linecap="round" stroke-linejoin="round" />
          <g id="2020" fill="#FFFFFF" fill-opacity="0.60385627" transform="translate(0.48448503 9)">
            <path d="M0.903409 11.0966L0.903409 11.8636L6.40909 11.8636L6.40909 10.9261L2.35227 10.9261L2.35227 10.858L4.3125 8.76136Q5.0625 7.95597 5.48651 7.3956Q5.91051 6.83523 6.0831 6.37713Q6.25568 5.91903 6.25568 5.4375Q6.25568 4.7642 5.91903 4.21449Q5.58239 3.66477 4.99006 3.34091Q4.39773 3.01705 3.63068 3.01705Q2.8679 3.01705 2.25639 3.34091Q1.64489 3.66477 1.29119 4.24432Q0.9375 4.82386 0.9375 5.59091L1.94318 5.59091Q1.94318 4.84517 2.39063 4.39134Q2.83807 3.9375 3.59659 3.9375Q4.30824 3.9375 4.78764 4.34233Q5.26705 4.74716 5.26705 5.4375Q5.26705 5.83807 5.10724 6.20241Q4.94744 6.56676 4.61932 6.97798Q4.29119 7.3892 3.78409 7.94318L0.903409 11.0966ZM8.77202 10.8111Q9.56676 11.983 11.0114 11.983Q12.456 11.983 13.2507 10.8111Q14.0455 9.6392 14.0455 7.5Q14.0455 5.37784 13.2443 4.19744Q12.4432 3.01705 11.0114 3.01705Q9.57955 3.01705 8.77841 4.19744Q7.97727 5.37784 7.97727 7.5Q7.97727 9.6392 8.77202 10.8111ZM15.6648 11.8636L15.6648 11.0966L18.5455 7.94318Q19.0526 7.3892 19.3807 6.97798Q19.7088 6.56676 19.8686 6.20241Q20.0284 5.83807 20.0284 5.4375Q20.0284 4.74716 19.549 4.34233Q19.0696 3.9375 18.358 3.9375Q17.5994 3.9375 17.152 4.39134Q16.7045 4.84517 16.7045 5.59091L15.6989 5.59091Q15.6989 4.82386 16.0526 4.24432Q16.4063 3.66477 17.0178 3.34091Q17.6293 3.01705 18.392 3.01705Q19.1591 3.01705 19.7514 3.34091Q20.3438 3.66477 20.6804 4.21449Q21.017 4.7642 21.017 5.4375Q21.017 5.91903 20.8445 6.37713Q20.6719 6.83523 20.2479 7.3956Q19.8239 7.95597 19.0739 8.76136L17.1136 10.858L17.1136 10.9261L21.1705 10.9261L21.1705 11.8636L15.6648 11.8636ZM23.5334 10.8111Q24.3281 11.983 25.7727 11.983Q27.2173 11.983 28.0121 10.8111Q28.8068 9.6392 28.8068 7.5Q28.8068 5.37784 28.0057 4.19744Q27.2045 3.01705 25.7727 3.01705Q24.3409 3.01705 23.5398 4.19744Q22.7386 5.37784 22.7386 7.5Q22.7386 9.6392 23.5334 10.8111ZM12.4943 10.125Q11.9659 11.0455 11.0114 11.0455Q10.0611 11.0455 9.53054 10.125Q9 9.20455 9 7.5Q9 5.79972 9.53267 4.86861Q10.0653 3.9375 11.0114 3.9375Q11.9574 3.9375 12.4901 4.86861Q13.0227 5.79972 13.0227 7.5Q13.0227 9.20455 12.4943 10.125ZM27.2557 10.125Q26.7273 11.0455 25.7727 11.0455Q24.8224 11.0455 24.2919 10.125Q23.7614 9.20455 23.7614 7.5Q23.7614 5.79972 24.294 4.86861Q24.8267 3.9375 25.7727 3.9375Q26.7188 3.9375 27.2514 4.86861Q27.7841 5.79972 27.7841 7.5Q27.7841 9.20455 27.2557 10.125Z" />
          </g>
          <g id="2021" fill="#FFFFFF" fill-opacity="0.60385627" transform="translate(157.94212 9)">
            <path d="M0.903409 11.0966L0.903409 11.8636L6.40909 11.8636L6.40909 10.9261L2.35227 10.9261L2.35227 10.858L4.3125 8.76136Q5.0625 7.95597 5.48651 7.3956Q5.91051 6.83523 6.0831 6.37713Q6.25568 5.91903 6.25568 5.4375Q6.25568 4.7642 5.91903 4.21449Q5.58239 3.66477 4.99006 3.34091Q4.39773 3.01705 3.63068 3.01705Q2.8679 3.01705 2.25639 3.34091Q1.64489 3.66477 1.29119 4.24432Q0.9375 4.82386 0.9375 5.59091L1.94318 5.59091Q1.94318 4.84517 2.39063 4.39134Q2.83807 3.9375 3.59659 3.9375Q4.30824 3.9375 4.78764 4.34233Q5.26705 4.74716 5.26705 5.4375Q5.26705 5.83807 5.10724 6.20241Q4.94744 6.56676 4.61932 6.97798Q4.29119 7.3892 3.78409 7.94318L0.903409 11.0966ZM8.77202 10.8111Q9.56676 11.983 11.0114 11.983Q12.456 11.983 13.2507 10.8111Q14.0455 9.6392 14.0455 7.5Q14.0455 5.37784 13.2443 4.19744Q12.4432 3.01705 11.0114 3.01705Q9.57955 3.01705 8.77841 4.19744Q7.97727 5.37784 7.97727 7.5Q7.97727 9.6392 8.77202 10.8111ZM15.6648 11.8636L15.6648 11.0966L18.5455 7.94318Q19.0526 7.3892 19.3807 6.97798Q19.7088 6.56676 19.8686 6.20241Q20.0284 5.83807 20.0284 5.4375Q20.0284 4.74716 19.549 4.34233Q19.0696 3.9375 18.358 3.9375Q17.5994 3.9375 17.152 4.39134Q16.7045 4.84517 16.7045 5.59091L15.6989 5.59091Q15.6989 4.82386 16.0526 4.24432Q16.4063 3.66477 17.0178 3.34091Q17.6293 3.01705 18.392 3.01705Q19.1591 3.01705 19.7514 3.34091Q20.3438 3.66477 20.6804 4.21449Q21.017 4.7642 21.017 5.4375Q21.017 5.91903 20.8445 6.37713Q20.6719 6.83523 20.2479 7.3956Q19.8239 7.95597 19.0739 8.76136L17.1136 10.858L17.1136 10.9261L21.1705 10.9261L21.1705 11.8636L15.6648 11.8636ZM24.9375 11.8636L25.9943 11.8636L25.9943 3.13636L24.9375 3.13636L22.7557 4.58523L22.7557 5.65909L24.8864 4.24432L24.9375 4.24432L24.9375 11.8636ZM12.4943 10.125Q11.9659 11.0455 11.0114 11.0455Q10.0611 11.0455 9.53054 10.125Q9 9.20455 9 7.5Q9 5.79972 9.53267 4.86861Q10.0653 3.9375 11.0114 3.9375Q11.9574 3.9375 12.4901 4.86861Q13.0227 5.79972 13.0227 7.5Q13.0227 9.20455 12.4943 10.125Z" />
          </g>
          <g id="2023" fill="#FFFFFF" fill-opacity="0.60385627" transform="translate(470.91943 9)">
            <path d="M0.903409 11.0966L0.903409 11.8636L6.40909 11.8636L6.40909 10.9261L2.35227 10.9261L2.35227 10.858L4.3125 8.76136Q5.0625 7.95597 5.48651 7.3956Q5.91051 6.83523 6.0831 6.37713Q6.25568 5.91903 6.25568 5.4375Q6.25568 4.7642 5.91903 4.21449Q5.58239 3.66477 4.99006 3.34091Q4.39773 3.01705 3.63068 3.01705Q2.8679 3.01705 2.25639 3.34091Q1.64489 3.66477 1.29119 4.24432Q0.9375 4.82386 0.9375 5.59091L1.94318 5.59091Q1.94318 4.84517 2.39063 4.39134Q2.83807 3.9375 3.59659 3.9375Q4.30824 3.9375 4.78764 4.34233Q5.26705 4.74716 5.26705 5.4375Q5.26705 5.83807 5.10724 6.20241Q4.94744 6.56676 4.61932 6.97798Q4.29119 7.3892 3.78409 7.94318L0.903409 11.0966ZM8.77202 10.8111Q9.56676 11.983 11.0114 11.983Q12.456 11.983 13.2507 10.8111Q14.0455 9.6392 14.0455 7.5Q14.0455 5.37784 13.2443 4.19744Q12.4432 3.01705 11.0114 3.01705Q9.57955 3.01705 8.77841 4.19744Q7.97727 5.37784 7.97727 7.5Q7.97727 9.6392 8.77202 10.8111ZM15.6648 11.8636L15.6648 11.0966L18.5455 7.94318Q19.0526 7.3892 19.3807 6.97798Q19.7088 6.56676 19.8686 6.20241Q20.0284 5.83807 20.0284 5.4375Q20.0284 4.74716 19.549 4.34233Q19.0696 3.9375 18.358 3.9375Q17.5994 3.9375 17.152 4.39134Q16.7045 4.84517 16.7045 5.59091L15.6989 5.59091Q15.6989 4.82386 16.0526 4.24432Q16.4063 3.66477 17.0178 3.34091Q17.6293 3.01705 18.392 3.01705Q19.1591 3.01705 19.7514 3.34091Q20.3438 3.66477 20.6804 4.21449Q21.017 4.7642 21.017 5.4375Q21.017 5.91903 20.8445 6.37713Q20.6719 6.83523 20.2479 7.3956Q19.8239 7.95597 19.0739 8.76136L17.1136 10.858L17.1136 10.9261L21.1705 10.9261L21.1705 11.8636L15.6648 11.8636ZM24.3729 11.6932Q25.0313 11.983 25.875 11.983Q26.723 11.983 27.3878 11.6591Q28.0526 11.3352 28.4382 10.7706Q28.8239 10.206 28.8239 9.49432Q28.8239 8.66335 28.3594 8.09872Q27.8949 7.53409 27.0682 7.39773L27.0682 7.32955Q27.7287 7.12926 28.1143 6.60937Q28.5 6.08949 28.5 5.35227Q28.5 4.73437 28.1889 4.2017Q27.8778 3.66903 27.2983 3.34304Q26.7188 3.01705 25.9091 3.01705Q25.1548 3.01705 24.5263 3.30682Q23.8977 3.59659 23.5099 4.11435Q23.1222 4.6321 23.0966 5.31818L24.1193 5.31818Q24.1406 4.88352 24.392 4.57457Q24.6435 4.26563 25.0419 4.10156Q25.4403 3.9375 25.892 3.9375Q26.6165 3.9375 27.0469 4.3402Q27.4773 4.7429 27.4773 5.40341Q27.4773 6.09375 26.9872 6.5071Q26.4972 6.92045 25.7216 6.92045L25.0227 6.92045L25.0227 7.85795L25.7216 7.85795Q26.7145 7.85795 27.2493 8.31392Q27.7841 8.76989 27.7841 9.49432Q27.7841 10.1889 27.2408 10.6172Q26.6974 11.0455 25.858 11.0455Q25.0994 11.0455 24.5646 10.679Q24.0298 10.3125 23.983 9.68182L22.9091 9.68182Q22.9432 10.3679 23.3288 10.8857Q23.7145 11.4034 24.3729 11.6932ZM12.4943 10.125Q11.9659 11.0455 11.0114 11.0455Q10.0611 11.0455 9.53054 10.125Q9 9.20455 9 7.5Q9 5.79972 9.53267 4.86861Q10.0653 3.9375 11.0114 3.9375Q11.9574 3.9375 12.4901 4.86861Q13.0227 5.79972 13.0227 7.5Q13.0227 9.20455 12.4943 10.125Z" />
          </g>
        </g>
        <g id="Group-121" transform="translate(269.3737 0)">
          <path d="M2.999 0L196.609 0Q196.756 0 196.903 0.014441Q197.049 0.028882 197.194 0.0576249Q197.338 0.0863679 197.479 0.129136Q197.62 0.171904 197.756 0.228285Q197.893 0.284667 198.023 0.354118Q198.152 0.42357 198.275 0.505423Q198.397 0.587276 198.511 0.680742Q198.625 0.774208 198.729 0.878387Q198.834 0.982566 198.927 1.09645Q199.021 1.21034 199.102 1.33284Q199.184 1.45535 199.254 1.58528Q199.323 1.71522 199.38 1.85133Q199.436 1.98745 199.479 2.12844Q199.521 2.26942 199.55 2.41392Q199.579 2.55842 199.593 2.70505Q199.608 2.85167 199.608 2.999L199.608 33.001Q199.608 33.1483 199.593 33.295Q199.579 33.4416 199.55 33.5861Q199.521 33.7306 199.479 33.8716Q199.436 34.0126 199.38 34.1487Q199.323 34.2848 199.254 34.4147Q199.184 34.5447 199.102 34.6671Q199.021 34.7897 198.927 34.9035Q198.834 35.0174 198.729 35.1216Q198.625 35.2258 198.511 35.3193Q198.397 35.4127 198.275 35.4946Q198.152 35.5764 198.023 35.6459Q197.893 35.7153 197.756 35.7717Q197.62 35.8281 197.479 35.8709Q197.338 35.9136 197.194 35.9424Q197.049 35.9711 196.903 35.9856Q196.756 36 196.609 36L2.999 36Q2.85167 36 2.70505 35.9856Q2.55842 35.9711 2.41392 35.9424Q2.26942 35.9136 2.12844 35.8709Q1.98745 35.8281 1.85133 35.7717Q1.71522 35.7153 1.58528 35.6459Q1.45535 35.5764 1.33284 35.4946Q1.21034 35.4127 1.09645 35.3193Q0.982566 35.2258 0.878387 35.1216Q0.774208 35.0174 0.680742 34.9035Q0.587276 34.7897 0.505423 34.6671Q0.42357 34.5447 0.354118 34.4147Q0.284667 34.2848 0.228285 34.1487Q0.171904 34.0126 0.129136 33.8716Q0.0863679 33.7306 0.0576249 33.5861Q0.028882 33.4416 0.014441 33.295Q0 33.1483 0 33.001L0 2.999Q0 2.85167 0.014441 2.70505Q0.028882 2.55842 0.0576249 2.41392Q0.0863679 2.26942 0.129136 2.12844Q0.171904 1.98745 0.228285 1.85133Q0.284667 1.71522 0.354118 1.58528Q0.42357 1.45535 0.505423 1.33284Q0.587276 1.21034 0.680742 1.09645Q0.774208 0.982566 0.878387 0.878387Q0.982566 0.774208 1.09645 0.680742Q1.21034 0.587276 1.33284 0.505423Q1.45535 0.42357 1.58528 0.354118Q1.71522 0.284667 1.85133 0.228285Q1.98745 0.171904 2.12844 0.129136Q2.26942 0.0863679 2.41392 0.0576249Q2.55842 0.028882 2.70505 0.014441Q2.85167 0 2.999 0L2.999 0Z" id="Mask" fill="#2A2D35" fill-opacity="0" fill-rule="evenodd" stroke="none" />
          <g clip-path="url(#mask_1)">
            <g id="Group-121" transform="translate(-269.3737 9)">
              <path d="M0.484485 0L0.484485 7" transform="translate(328.48083 0)" id="Stroke-19" fill="none" fill-rule="evenodd" stroke="#FEFEFE" stroke-width="2" stroke-linecap="round" />
              <path d="M0.484485 0L0.484485 4" transform="translate(340.1085 0)" id="Stroke-27" fill="none" fill-rule="evenodd" stroke="#FEFEFE" stroke-width="1" stroke-linecap="round" />
              <path d="M0.484485 0L0.484485 4" transform="translate(411.8123 0)" id="Stroke-35" fill="none" fill-rule="evenodd" stroke="#FEFEFE" stroke-width="1" stroke-linecap="round" />
              <path d="M0.484485 0L0.484485 4" transform="translate(352.7051 0)" id="Stroke-43" fill="none" fill-rule="evenodd" stroke="#FEFEFE" stroke-width="1" stroke-linecap="round" />
              <path d="M0.484485 0L0.484485 4" transform="translate(268.4047 0)" id="Stroke-49" fill="none" fill-rule="evenodd" stroke="#FEFEFE" stroke-width="1" stroke-linecap="round" />
              <path d="M0.484485 0L0.484485 4" transform="translate(424.40887 0)" id="Stroke-51" fill="none" fill-rule="evenodd" stroke="#FEFEFE" stroke-width="1" stroke-linecap="round" />
              <path d="M0.484485 0L0.484485 4" transform="translate(364.33273 0)" id="Stroke-59" fill="none" fill-rule="evenodd" stroke="#FEFEFE" stroke-width="1" stroke-linecap="round" />
              <path d="M0.484485 0L0.484485 4" transform="translate(281.0013 0)" id="Stroke-65" fill="none" fill-rule="evenodd" stroke="#FEFEFE" stroke-width="1" stroke-linecap="round" />
              <path d="M0.484485 0L0.484485 4" transform="translate(436.03653 0)" id="Stroke-67" fill="none" fill-rule="evenodd" stroke="#FEFEFE" stroke-width="1" stroke-linecap="round" />
              <path d="M0.484485 0L0.484485 4" transform="translate(375.9604 0)" id="Stroke-75" fill="none" fill-rule="evenodd" stroke="#FEFEFE" stroke-width="1" stroke-linecap="round" />
              <path d="M0.484485 0L0.484485 4" transform="translate(292.62897 0)" id="Stroke-81" fill="none" fill-rule="evenodd" stroke="#FEFEFE" stroke-width="1" stroke-linecap="round" />
              <path d="M0.484485 0L0.484485 4" transform="translate(448.63315 0)" id="Stroke-83" fill="none" fill-rule="evenodd" stroke="#FEFEFE" stroke-width="1" stroke-linecap="round" />
              <path d="M0.484485 0L0.484485 4" transform="translate(388.55698 0)" id="Stroke-91" fill="none" fill-rule="evenodd" stroke="#FEFEFE" stroke-width="1" stroke-linecap="round" />
              <path d="M0.484485 0L0.484485 4" transform="translate(304.2566 0)" id="Stroke-97" fill="none" fill-rule="evenodd" stroke="#FEFEFE" stroke-width="1" stroke-linecap="round" />
              <path d="M0.484485 0L0.484485 4" transform="translate(460.26077 0)" id="Stroke-99" fill="none" fill-rule="evenodd" stroke="#FEFEFE" stroke-width="1" stroke-linecap="round" />
              <path d="M0.484485 0L0.484485 4" transform="translate(400.18463 0)" id="Stroke-107" fill="none" fill-rule="evenodd" stroke="#FEFEFE" stroke-width="1" stroke-linecap="round" />
              <path d="M0.484485 0L0.484485 4" transform="translate(316.8532 0)" id="Stroke-113" fill="none" fill-rule="evenodd" stroke="#FEFEFE" stroke-width="1" stroke-linecap="round" />
              <g id="2022" fill="#FFFFFF" transform="translate(317.82217 9)">
                <path d="M0.903409 11.0966L0.903409 11.8636L6.40909 11.8636L6.40909 10.9261L2.35227 10.9261L2.35227 10.858L4.3125 8.76136Q5.0625 7.95597 5.48651 7.3956Q5.91051 6.83523 6.0831 6.37713Q6.25568 5.91903 6.25568 5.4375Q6.25568 4.7642 5.91903 4.21449Q5.58239 3.66477 4.99006 3.34091Q4.39773 3.01705 3.63068 3.01705Q2.8679 3.01705 2.25639 3.34091Q1.64489 3.66477 1.29119 4.24432Q0.9375 4.82386 0.9375 5.59091L1.94318 5.59091Q1.94318 4.84517 2.39063 4.39134Q2.83807 3.9375 3.59659 3.9375Q4.30824 3.9375 4.78764 4.34233Q5.26705 4.74716 5.26705 5.4375Q5.26705 5.83807 5.10724 6.20241Q4.94744 6.56676 4.61932 6.97798Q4.29119 7.3892 3.78409 7.94318L0.903409 11.0966ZM8.77202 10.8111Q9.56676 11.983 11.0114 11.983Q12.456 11.983 13.2507 10.8111Q14.0455 9.6392 14.0455 7.5Q14.0455 5.37784 13.2443 4.19744Q12.4432 3.01705 11.0114 3.01705Q9.57955 3.01705 8.77841 4.19744Q7.97727 5.37784 7.97727 7.5Q7.97727 9.6392 8.77202 10.8111ZM15.6648 11.8636L15.6648 11.0966L18.5455 7.94318Q19.0526 7.3892 19.3807 6.97798Q19.7088 6.56676 19.8686 6.20241Q20.0284 5.83807 20.0284 5.4375Q20.0284 4.74716 19.549 4.34233Q19.0696 3.9375 18.358 3.9375Q17.5994 3.9375 17.152 4.39134Q16.7045 4.84517 16.7045 5.59091L15.6989 5.59091Q15.6989 4.82386 16.0526 4.24432Q16.4063 3.66477 17.0178 3.34091Q17.6293 3.01705 18.392 3.01705Q19.1591 3.01705 19.7514 3.34091Q20.3438 3.66477 20.6804 4.21449Q21.017 4.7642 21.017 5.4375Q21.017 5.91903 20.8445 6.37713Q20.6719 6.83523 20.2479 7.3956Q19.8239 7.95597 19.0739 8.76136L17.1136 10.858L17.1136 10.9261L21.1705 10.9261L21.1705 11.8636L15.6648 11.8636ZM22.9261 11.0966L22.9261 11.8636L28.4318 11.8636L28.4318 10.9261L24.375 10.9261L24.375 10.858L26.3352 8.76136Q27.0852 7.95597 27.5092 7.3956Q27.9332 6.83523 28.1058 6.37713Q28.2784 5.91903 28.2784 5.4375Q28.2784 4.7642 27.9418 4.21449Q27.6051 3.66477 27.0128 3.34091Q26.4205 3.01705 25.6534 3.01705Q24.8906 3.01705 24.2791 3.34091Q23.6676 3.66477 23.3139 4.24432Q22.9602 4.82386 22.9602 5.59091L23.9659 5.59091Q23.9659 4.84517 24.4134 4.39134Q24.8608 3.9375 25.6193 3.9375Q26.331 3.9375 26.8104 4.34233Q27.2898 4.74716 27.2898 5.4375Q27.2898 5.83807 27.13 6.20241Q26.9702 6.56676 26.642 6.97798Q26.3139 7.3892 25.8068 7.94318L22.9261 11.0966ZM12.4943 10.125Q11.9659 11.0455 11.0114 11.0455Q10.0611 11.0455 9.53054 10.125Q9 9.20455 9 7.5Q9 5.79972 9.53267 4.86861Q10.0653 3.9375 11.0114 3.9375Q11.9574 3.9375 12.4901 4.86861Q13.0227 5.79972 13.0227 7.5Q13.0227 9.20455 12.4943 10.125Z" />
              </g>
            </g>
          </g>
        </g>
        <g filter="url(#filter_1)">
          <g id="Group-11" transform="translate(268.36823 0)">
            <g id="Group-8" transform="translate(0.772719 0)">
              <path d="M2.999 0L15 0L15 36L2.999 36Q2.85167 36 2.70505 35.9856Q2.55842 35.9711 2.41392 35.9424Q2.26942 35.9136 2.12844 35.8709Q1.98745 35.8281 1.85133 35.7717Q1.71522 35.7153 1.58528 35.6459Q1.45535 35.5764 1.33284 35.4946Q1.21034 35.4127 1.09645 35.3193Q0.982566 35.2258 0.878387 35.1216Q0.774208 35.0174 0.680742 34.9035Q0.587276 34.7897 0.505423 34.6671Q0.42357 34.5447 0.354118 34.4147Q0.284667 34.2848 0.228285 34.1487Q0.171904 34.0126 0.129136 33.8716Q0.0863679 33.7306 0.0576249 33.5861Q0.028882 33.4416 0.014441 33.295Q0 33.1483 0 33.001L0 2.999Q0 2.85167 0.014441 2.70505Q0.028882 2.55842 0.0576249 2.41392Q0.0863679 2.26942 0.129136 2.12844Q0.171904 1.98745 0.228285 1.85133Q0.284667 1.71522 0.354118 1.58528Q0.42357 1.45535 0.505423 1.33284Q0.587276 1.21034 0.680742 1.09645Q0.774208 0.982566 0.878387 0.878387Q0.982566 0.774208 1.09645 0.680742Q1.21034 0.587276 1.33284 0.505423Q1.45535 0.42357 1.58528 0.354118Q1.71522 0.284667 1.85133 0.228285Q1.98745 0.171904 2.12844 0.129136Q2.26942 0.0863679 2.41392 0.0576249Q2.55842 0.028882 2.70505 0.014441Q2.85167 0 2.999 0Z" id="Rectangle" fill="#647480" fill-rule="evenodd" stroke="none" />
              <g id="Group-7" transform="translate(5 14)">
                <path d="M0.4 0.366667L0.4 9.9" id="Line-2" fill="none" fill-rule="evenodd" stroke="#A2ADB6" stroke-width="2" stroke-linecap="round" stroke-linejoin="round" />
                <path d="M0.4 0.366667L0.4 9.9" transform="translate(4.8 0)" id="Line-2-Copy" fill="none" fill-rule="evenodd" stroke="#A2ADB6" stroke-width="2" stroke-linecap="round" stroke-linejoin="round" />
              </g>
            </g>
            <g id="Group-8-Copy" transform="translate(185.846 0)">
              <path d="M0 0L12.001 0Q12.1483 0 12.295 0.014441Q12.4416 0.028882 12.5861 0.0576249Q12.7306 0.0863679 12.8716 0.129136Q13.0126 0.171904 13.1487 0.228285Q13.2848 0.284667 13.4147 0.354118Q13.5447 0.42357 13.6672 0.505423Q13.7897 0.587276 13.9035 0.680742Q14.0174 0.774208 14.1216 0.878387Q14.2258 0.982566 14.3193 1.09645Q14.4127 1.21034 14.4946 1.33284Q14.5764 1.45535 14.6459 1.58528Q14.7153 1.71522 14.7717 1.85133Q14.8281 1.98745 14.8709 2.12844Q14.9136 2.26942 14.9424 2.41392Q14.9711 2.55842 14.9856 2.70505Q15 2.85167 15 2.999L15 33.001Q15 33.1483 14.9856 33.295Q14.9711 33.4416 14.9424 33.5861Q14.9136 33.7306 14.8709 33.8716Q14.8281 34.0126 14.7717 34.1487Q14.7153 34.2848 14.6459 34.4147Q14.5764 34.5447 14.4946 34.6671Q14.4127 34.7897 14.3193 34.9035Q14.2258 35.0174 14.1216 35.1216Q14.0174 35.2258 13.9035 35.3193Q13.7897 35.4127 13.6672 35.4946Q13.5447 35.5764 13.4147 35.6459Q13.2848 35.7153 13.1487 35.7717Q13.0126 35.8281 12.8716 35.8709Q12.7306 35.9136 12.5861 35.9424Q12.4416 35.9711 12.295 35.9856Q12.1483 36 12.001 36L0 36L0 0Z" id="Rectangle" fill="#647480" fill-rule="evenodd" stroke="none" />
              <g id="Group-7" transform="translate(5 14)">
                <path d="M0.4 0.366667L0.4 9.9" id="Line-2" fill="none" fill-rule="evenodd" stroke="#A2ADB6" stroke-width="2" stroke-linecap="round" stroke-linejoin="round" />
                <path d="M0.4 0.366667L0.4 9.9" transform="translate(4.8 0)" id="Line-2-Copy" fill="none" fill-rule="evenodd" stroke="#A2ADB6" stroke-width="2" stroke-linecap="round" stroke-linejoin="round" />
              </g>
            </g>
            <path d="M2.999 0L196.609 0Q196.756 0 196.903 0.014441Q197.049 0.028882 197.194 0.0576249Q197.338 0.0863679 197.479 0.129136Q197.62 0.171904 197.756 0.228285Q197.893 0.284667 198.023 0.354118Q198.152 0.42357 198.275 0.505423Q198.397 0.587276 198.511 0.680742Q198.625 0.774208 198.729 0.878387Q198.834 0.982566 198.927 1.09645Q199.021 1.21034 199.102 1.33284Q199.184 1.45535 199.254 1.58528Q199.323 1.71522 199.38 1.85133Q199.436 1.98745 199.479 2.12844Q199.521 2.26942 199.55 2.41392Q199.579 2.55842 199.593 2.70505Q199.608 2.85167 199.608 2.999L199.608 33.001Q199.608 33.1483 199.593 33.295Q199.579 33.4416 199.55 33.5861Q199.521 33.7306 199.479 33.8716Q199.436 34.0126 199.38 34.1487Q199.323 34.2848 199.254 34.4147Q199.184 34.5447 199.102 34.6671Q199.021 34.7897 198.927 34.9035Q198.834 35.0174 198.729 35.1216Q198.625 35.2258 198.511 35.3193Q198.397 35.4127 198.275 35.4946Q198.152 35.5764 198.023 35.6459Q197.893 35.7153 197.756 35.7717Q197.62 35.8281 197.479 35.8709Q197.338 35.9136 197.194 35.9424Q197.049 35.9711 196.903 35.9856Q196.756 36 196.609 36L2.999 36Q2.85167 36 2.70505 35.9856Q2.55842 35.9711 2.41392 35.9424Q2.26942 35.9136 2.12844 35.8709Q1.98745 35.8281 1.85133 35.7717Q1.71522 35.7153 1.58528 35.6459Q1.45535 35.5764 1.33284 35.4946Q1.21034 35.4127 1.09645 35.3193Q0.982566 35.2258 0.878387 35.1216Q0.774208 35.0174 0.680742 34.9035Q0.587276 34.7897 0.505423 34.6671Q0.42357 34.5447 0.354118 34.4147Q0.284667 34.2848 0.228285 34.1487Q0.171904 34.0126 0.129136 33.8716Q0.0863679 33.7306 0.0576249 33.5861Q0.028882 33.4416 0.014441 33.295Q0 33.1483 0 33.001L0 2.999Q0 2.85167 0.014441 2.70505Q0.028882 2.55842 0.0576249 2.41392Q0.0863679 2.26942 0.129136 2.12844Q0.171904 1.98745 0.228285 1.85133Q0.284667 1.71522 0.354118 1.58528Q0.42357 1.45535 0.505423 1.33284Q0.587276 1.21034 0.680742 1.09645Q0.774208 0.982566 0.878387 0.878387Q0.982566 0.774208 1.09645 0.680742Q1.21034 0.587276 1.33284 0.505423Q1.45535 0.42357 1.58528 0.354118Q1.71522 0.284667 1.85133 0.228285Q1.98745 0.171904 2.12844 0.129136Q2.26942 0.0863679 2.41392 0.0576249Q2.55842 0.028882 2.70505 0.014441Q2.85167 0 2.999 0L2.999 0Z" transform="translate(1.0054437 0)" id="Rectangle" fill="none" fill-rule="evenodd" stroke="#647480" stroke-width="2" stroke-linecap="round" stroke-linejoin="round" />
          </g>
        </g>
      </g>
    </g>
  </g>
</svg>