<?xml version="1.0" encoding="utf-8"?>
<svg width="35px" height="35px" viewBox="0 0 35 35" version="1.1" xmlns:xlink="http://www.w3.org/1999/xlink" xmlns="http://www.w3.org/2000/svg">
  <g id="Chat-Add">
    <g id="Chat-Add">
      <path d="M0 0L35 0L35 35L0 35L0 0Z" id="Card-Back-Copy" fill="#647480" fill-rule="evenodd" stroke="none" />
      <g id="Group" transform="translate(7.5 8.199999)">
        <path d="M1.6119 0L18.3881 0Q18.4673 0 18.5461 0.00776175Q18.6249 0.0155235 18.7026 0.0309723Q18.7802 0.046421 18.856 0.069408Q18.9318 0.092395 19.0049 0.122699Q19.0781 0.153003 19.1479 0.190331Q19.2178 0.22766 19.2836 0.271655Q19.3495 0.315649 19.4107 0.365885Q19.4719 0.416121 19.5279 0.472115Q19.5839 0.52811 19.6341 0.589323Q19.6843 0.650536 19.7283 0.716378Q19.7723 0.78222 19.8097 0.852057Q19.847 0.921895 19.8773 0.995054Q19.9076 1.06821 19.9306 1.14399Q19.9536 1.21977 19.969 1.29744Q19.9845 1.3751 19.9922 1.45391Q20 1.53272 20 1.6119L20 1.6139Q20 1.69309 19.9922 1.7719Q19.9845 1.8507 19.969 1.92837Q19.9536 2.00604 19.9306 2.08181Q19.9076 2.15759 19.8773 2.23075Q19.847 2.30391 19.8097 2.37375Q19.7723 2.44359 19.7283 2.50943Q19.6843 2.57527 19.6341 2.63648Q19.5839 2.6977 19.5279 2.75369Q19.4719 2.80968 19.4107 2.85992Q19.3495 2.91016 19.2836 2.95415Q19.2178 2.99815 19.1479 3.03547Q19.0781 3.0728 19.0049 3.10311Q18.9318 3.13341 18.856 3.1564Q18.7802 3.17938 18.7026 3.19483Q18.6249 3.21028 18.5461 3.21804Q18.4673 3.22581 18.3881 3.22581L1.6119 3.22581Q1.53272 3.22581 1.45391 3.21804Q1.3751 3.21028 1.29744 3.19483Q1.21977 3.17939 1.14399 3.1564Q1.06821 3.13341 0.995054 3.10311Q0.921895 3.0728 0.852057 3.03547Q0.78222 2.99815 0.716378 2.95415Q0.650536 2.91016 0.589323 2.85992Q0.52811 2.80968 0.472115 2.75369Q0.416121 2.6977 0.365885 2.63648Q0.315649 2.57527 0.271655 2.50943Q0.22766 2.44359 0.190331 2.37375Q0.153003 2.30391 0.122699 2.23075Q0.092395 2.15759 0.069408 2.08181Q0.046421 2.00604 0.0309723 1.92837Q0.0155235 1.8507 0.00776175 1.7719Q0 1.69309 0 1.6139L0 1.6119Q0 1.53272 0.00776175 1.45391Q0.0155235 1.3751 0.0309723 1.29744Q0.046421 1.21977 0.069408 1.14399Q0.092395 1.06821 0.122699 0.995054Q0.153003 0.921895 0.190331 0.852057Q0.22766 0.78222 0.271655 0.716378Q0.315649 0.650536 0.365885 0.589323Q0.416121 0.52811 0.472115 0.472115Q0.52811 0.416121 0.589323 0.365885Q0.650536 0.315649 0.716378 0.271655Q0.78222 0.22766 0.852057 0.190331Q0.921895 0.153003 0.995054 0.122699Q1.06821 0.092395 1.14399 0.069408Q1.21977 0.046421 1.29744 0.0309723Q1.3751 0.0155235 1.45391 0.00776175Q1.53272 0 1.6119 0Z" transform="translate(0 8.387096)" id="Rectangle" fill="#B7CCDB" fill-rule="evenodd" stroke="none" />
        <path d="M1.6119 0L18.3881 0Q18.4673 0 18.5461 0.00776175Q18.6249 0.0155235 18.7026 0.0309723Q18.7802 0.046421 18.856 0.069408Q18.9318 0.092395 19.0049 0.122699Q19.0781 0.153003 19.1479 0.190331Q19.2178 0.22766 19.2836 0.271655Q19.3495 0.315649 19.4107 0.365885Q19.4719 0.416121 19.5279 0.472115Q19.5839 0.52811 19.6341 0.589323Q19.6843 0.650536 19.7283 0.716378Q19.7723 0.78222 19.8097 0.852057Q19.847 0.921895 19.8773 0.995054Q19.9076 1.06821 19.9306 1.14399Q19.9536 1.21977 19.969 1.29744Q19.9845 1.3751 19.9922 1.45391Q20 1.53272 20 1.6119L20 1.6139Q20 1.69309 19.9922 1.7719Q19.9845 1.8507 19.969 1.92837Q19.9536 2.00604 19.9306 2.08181Q19.9076 2.15759 19.8773 2.23075Q19.847 2.30391 19.8097 2.37375Q19.7723 2.44359 19.7283 2.50943Q19.6843 2.57527 19.6341 2.63648Q19.5839 2.6977 19.5279 2.75369Q19.4719 2.80968 19.4107 2.85992Q19.3495 2.91016 19.2836 2.95415Q19.2178 2.99815 19.1479 3.03547Q19.0781 3.0728 19.0049 3.10311Q18.9318 3.13341 18.856 3.1564Q18.7802 3.17938 18.7026 3.19483Q18.6249 3.21028 18.5461 3.21804Q18.4673 3.22581 18.3881 3.22581L1.6119 3.22581Q1.53272 3.22581 1.45391 3.21804Q1.3751 3.21028 1.29744 3.19483Q1.21977 3.17939 1.14399 3.1564Q1.06821 3.13341 0.995054 3.10311Q0.921895 3.0728 0.852057 3.03547Q0.78222 2.99815 0.716378 2.95415Q0.650536 2.91016 0.589323 2.85992Q0.52811 2.80968 0.472115 2.75369Q0.416121 2.6977 0.365885 2.63648Q0.315649 2.57527 0.271655 2.50943Q0.22766 2.44359 0.190331 2.37375Q0.153003 2.30391 0.122699 2.23075Q0.092395 2.15759 0.069408 2.08181Q0.046421 2.00604 0.0309723 1.92837Q0.0155235 1.8507 0.00776175 1.7719Q5.96065e-13 1.69309 5.96065e-13 1.6139L5.96065e-13 1.6119Q5.96065e-13 1.53272 0.00776175 1.45391Q0.0155235 1.3751 0.0309723 1.29744Q0.046421 1.21977 0.069408 1.14399Q0.092395 1.06821 0.122699 0.995054Q0.153003 0.921895 0.190331 0.852057Q0.22766 0.78222 0.271655 0.716378Q0.315649 0.650536 0.365885 0.589323Q0.416121 0.52811 0.472115 0.472115Q0.52811 0.416121 0.589323 0.365885Q0.650536 0.315649 0.716378 0.271655Q0.78222 0.22766 0.852057 0.190331Q0.921895 0.153003 0.995054 0.122699Q1.06821 0.092395 1.14399 0.069408Q1.21977 0.046421 1.29744 0.0309723Q1.3751 0.0155235 1.45391 0.00776175Q1.53272 0 1.6119 0Z" transform="matrix(-4.371139E-08 1 -1 -4.371139E-08 11.612904 0)" id="Rectangle" fill="#B7CCDB" fill-rule="evenodd" stroke="none" />
      </g>
    </g>
  </g>
</svg>