<?xml version="1.0" encoding="utf-8"?>
<svg width="25px" height="25px" viewBox="0 0 25 25" version="1.1" xmlns:xlink="http://www.w3.org/1999/xlink" xmlns="http://www.w3.org/2000/svg">
  <defs>
    <filter id="filter_1">
      <feColorMatrix in="SourceGraphic" type="matrix" values="0 0 0 0 0.84705883 0 0 0 0 0.84705883 0 0 0 0 0.84705883 0 0 0 1 0" />
    </filter>
  </defs>
  <g id="IconBasicMessage-+-Notification" filter="url(#filter_1)">
    <g id="mail" transform="translate(1.1363636 5.681818)">
      <path d="M4.13264 0L17.3864 0C18.4489 0 19.3182 0.830966 19.3182 1.84659L19.3182 12.9261C19.3182 13.9418 18.4489 14.7727 17.3864 14.7727L1.93182 14.7727C0.869318 14.7727 0 13.9418 0 12.9261L0 5.33849" transform="matrix(-1 0 0 1 19.318182 0)" id="Path" fill="none" fill-rule="evenodd" stroke="#737781" stroke-width="2" stroke-linecap="round" stroke-linejoin="round" />
      <path d="M15.1328 2.79874L9.65909 6.81818L0 0" transform="translate(1.1363636 1.1363635)" id="Path" fill="none" fill-rule="evenodd" stroke="#737781" stroke-width="2" stroke-linecap="round" stroke-linejoin="round" />
    </g>
    <path d="M2.499 0L3.18282 0Q3.30559 0 3.42776 0.0120334Q3.54994 0.0240667 3.67035 0.0480176Q3.79076 0.0719684 3.90824 0.107606Q4.02572 0.143244 4.13914 0.190225Q4.25257 0.237206 4.36084 0.295079Q4.46911 0.352951 4.57119 0.421157Q4.67327 0.489364 4.76817 0.567247Q4.86307 0.64513 4.94988 0.73194Q5.03669 0.81875 5.11457 0.913651Q5.19245 1.00855 5.26066 1.11063Q5.32887 1.21271 5.38674 1.32098Q5.44461 1.42925 5.49159 1.54267Q5.53857 1.6561 5.57421 1.77358Q5.60985 1.89106 5.6338 2.01147Q5.65775 2.13188 5.66979 2.25406Q5.68182 2.37623 5.68182 2.499L5.68182 3.18282Q5.68182 3.30559 5.66979 3.42776Q5.65775 3.54994 5.6338 3.67035Q5.60985 3.79076 5.57421 3.90824Q5.53858 4.02572 5.49159 4.13914Q5.44461 4.25257 5.38674 4.36084Q5.32887 4.46911 5.26066 4.57119Q5.19245 4.67327 5.11457 4.76817Q5.03669 4.86307 4.94988 4.94988Q4.86307 5.03669 4.76817 5.11457Q4.67327 5.19245 4.57119 5.26066Q4.46911 5.32887 4.36084 5.38674Q4.25257 5.44461 4.13914 5.49159Q4.02572 5.53857 3.90824 5.57421Q3.79076 5.60985 3.67035 5.6338Q3.54994 5.65775 3.42776 5.66979Q3.30559 5.68182 3.18282 5.68182L2.499 5.68182Q2.37623 5.68182 2.25406 5.66979Q2.13188 5.65775 2.01147 5.6338Q1.89106 5.60985 1.77358 5.57421Q1.6561 5.53858 1.54267 5.49159Q1.42925 5.44461 1.32098 5.38674Q1.21271 5.32887 1.11063 5.26066Q1.00855 5.19245 0.913651 5.11457Q0.81875 5.03669 0.73194 4.94988Q0.64513 4.86307 0.567247 4.76817Q0.489364 4.67327 0.421157 4.57119Q0.352951 4.46911 0.295079 4.36084Q0.237206 4.25257 0.190225 4.13914Q0.143244 4.02572 0.107606 3.90824Q0.0719684 3.79076 0.0480176 3.67035Q0.0240667 3.54994 0.0120334 3.42776Q0 3.30559 0 3.18282L0 2.499Q0 2.37623 0.0120334 2.25406Q0.0240667 2.13188 0.0480176 2.01147Q0.0719684 1.89106 0.107606 1.77358Q0.143244 1.6561 0.190225 1.54267Q0.237206 1.42925 0.295079 1.32098Q0.352951 1.21271 0.421157 1.11063Q0.489364 1.00855 0.567247 0.913651Q0.64513 0.81875 0.73194 0.73194Q0.81875 0.64513 0.913651 0.567247Q1.00855 0.489364 1.11063 0.421157Q1.21271 0.352951 1.32098 0.295079Q1.42925 0.237206 1.54267 0.190225Q1.6561 0.143244 1.77358 0.107606Q1.89106 0.0719684 2.01147 0.0480176Q2.13188 0.0240667 2.25406 0.0120334Q2.37623 0 2.499 0Z" transform="translate(19.318182 2.2727273)" id="Rectangle" fill="#F64100" fill-rule="evenodd" stroke="none" />
  </g>
</svg>