<?xml version="1.0" encoding="utf-8"?>
<svg width="45px" height="55px" viewBox="0 0 45 55" version="1.1" xmlns:xlink="http://www.w3.org/1999/xlink" xmlns="http://www.w3.org/2000/svg">
  <g id="ICON-Customer-Copy">
    <g id="ICON-Customer" transform="translate(0 4)">
      <path d="M7 4L5.74763 2.10601C5.32997 1.34605 4.79492 0.710674 3.90709 0.494032L0 0" transform="translate(21 15)" id="Stroke-31" fill="none" fill-rule="evenodd" stroke="#FEFEFE" stroke-width="2" stroke-linecap="round" stroke-linejoin="round" />
      <path d="M10.2463 0L5.2936 1.15866C4.28535 1.49557 3.62588 2.29145 3.28235 3.21672L0.161139 13.1996C-0.351617 14.5807 0.400086 16.0997 1.83783 16.5878L13 21" transform="translate(0 16)" id="Stroke-33" fill="none" fill-rule="evenodd" stroke="#FEFEFE" stroke-width="2" stroke-linecap="round" stroke-linejoin="round" />
      <path d="M0 -1.7486e-15L0 12.001Q0 12.0992 0.00962573 12.1969Q0.0192515 12.2947 0.0384102 12.391Q0.057569 12.4873 0.0860763 12.5813Q0.114584 12.6753 0.152165 12.766Q0.189746 12.8567 0.236039 12.9433Q0.282333 13.0299 0.336892 13.1116Q0.391452 13.1932 0.453752 13.2692Q0.516052 13.3451 0.585494 13.4145Q0.654935 13.4839 0.730848 13.5462Q0.806761 13.6085 0.888415 13.6631Q0.970069 13.7177 1.05668 13.764Q1.14329 13.8103 1.23402 13.8478Q1.32474 13.8854 1.41872 13.9139Q1.5127 13.9424 1.60901 13.9616Q1.70533 13.9807 1.80306 13.9904Q1.9008 14 1.999 14L15.4928 14Q15.591 14 15.6887 13.9904Q15.7865 13.9807 15.8828 13.9616Q15.9791 13.9424 16.0731 13.9139Q16.1671 13.8854 16.2578 13.8478Q16.3485 13.8103 16.4351 13.764Q16.5217 13.7177 16.6034 13.6631Q16.685 13.6085 16.7609 13.5462Q16.8369 13.4839 16.9063 13.4145Q16.9757 13.3451 17.038 13.2692Q17.1003 13.1932 17.1549 13.1116Q17.2095 13.0299 17.2558 12.9433Q17.302 12.8567 17.3396 12.766Q17.3772 12.6753 17.4057 12.5813Q17.4342 12.4873 17.4534 12.391Q17.4725 12.2947 17.4822 12.1969Q17.4918 12.0992 17.4918 12.001L17.4918 7.79375" transform="translate(6.5 34.5)" id="Stroke-35" fill="none" fill-rule="evenodd" stroke="#FEFEFE" stroke-width="2" stroke-linecap="round" stroke-linejoin="round" />
      <path d="M10 8.14035L10 9.63523C10 10.6386 9.60251 11.6031 8.89061 12.3265L7.13345 14.1125C5.96908 15.2958 4.03092 15.2958 2.86655 14.1125L1.10956 12.3265C0.397663 11.6031 0 10.6386 0 9.63523L0 8.14035L0 4.07026C0 1.82238 1.86558 0 4.16675 0L5.83342 0C8.13459 0 10 1.82238 10 4.07026L10 7.49293" transform="translate(10 0)" id="Stroke-37" fill="none" fill-rule="evenodd" stroke="#FEFEFE" stroke-width="2" stroke-linecap="round" stroke-linejoin="round" />
    </g>
    <g id="Burger-Icon" transform="translate(18 25)">
      <path d="M3.7612 15C1.68395 15 0 13.2974 0 11.1972C0 9.09694 1.68395 7.39437 3.7612 7.39437C3.93035 7.39437 4.09691 7.40566 4.26016 7.42752C4.20715 7.21436 4.17911 6.99077 4.17911 6.76055C4.17911 5.24372 5.39529 4.01408 6.89555 4.01408C7.57294 4.01408 8.19247 4.26478 8.66822 4.67946C8.78649 4.64183 8.90689 4.60824 9.029 4.57898C9.80794 1.93444 12.3 0 15.2537 0C18.0475 0 20.4282 1.73054 21.3372 4.15583C21.7319 4.06302 22.1439 4.01408 22.5672 4.01408C25.5676 4.01408 28 6.47336 28 9.50703C28 12.5407 25.5676 15 22.5672 15L3.7612 15Z" transform="translate(-1 2)" id="Stroke-1" fill="none" fill-rule="evenodd" stroke="#FEFEFE" stroke-width="2" />
    </g>
  </g>
</svg>