<?xml version="1.0" encoding="utf-8"?>
<svg width="25px" height="25px" viewBox="0 0 25 25" version="1.1" xmlns:xlink="http://www.w3.org/1999/xlink" xmlns="http://www.w3.org/2000/svg">
  <defs>
    <filter id="filter_1">
      <feColorMatrix in="SourceGraphic" type="matrix" values="0 0 0 0 0.84705883 0 0 0 0 0.84705883 0 0 0 0 0.84705883 0 0 0 1 0" />
    </filter>
  </defs>
  <g id="IconBasicBell-+-Notification" filter="url(#filter_1)">
    <g id="bell" transform="translate(3.5714285 4.3650794)">
      <path d="M8.33333 0C5.26508 -4.22942e-16 2.77778 2.55837 2.77778 5.71429C2.77778 12.381 0 14.2857 0 14.2857L16.6667 14.2857C16.6667 14.2857 13.8889 12.381 13.8889 5.71429" transform="translate(0 0.3968254)" id="Path" fill="none" fill-rule="evenodd" stroke="#737781" stroke-width="2" stroke-linecap="round" stroke-linejoin="round" />
      <path d="M3.57143 0.00210936C3.20211 0.7364 2.52175 1.18837 1.78571 1.18837C1.04968 1.18837 0.369321 0.7364 0 0.00210936" transform="translate(7.142857 17.063492)" id="Path" fill="none" fill-rule="evenodd" stroke="#737781" stroke-width="2" stroke-linecap="round" stroke-linejoin="round" />
    </g>
    <path d="M2.499 0L3.45338 0Q3.57615 0 3.69832 0.0120334Q3.8205 0.0240667 3.94091 0.0480176Q4.06132 0.0719684 4.1788 0.107606Q4.29628 0.143244 4.40971 0.190225Q4.52313 0.237206 4.6314 0.295079Q4.73967 0.352951 4.84175 0.421157Q4.94383 0.489364 5.03873 0.567247Q5.13363 0.64513 5.22044 0.73194Q5.30725 0.81875 5.38513 0.913651Q5.46302 1.00855 5.53122 1.11063Q5.59943 1.21271 5.6573 1.32098Q5.71517 1.42925 5.76215 1.54267Q5.80914 1.6561 5.84477 1.77358Q5.88041 1.89106 5.90436 2.01147Q5.92831 2.13188 5.94035 2.25406Q5.95238 2.37623 5.95238 2.499L5.95238 3.45338Q5.95238 3.57615 5.94035 3.69833Q5.92831 3.8205 5.90436 3.94091Q5.88041 4.06132 5.84477 4.1788Q5.80914 4.29628 5.76215 4.40971Q5.71517 4.52313 5.6573 4.6314Q5.59943 4.73967 5.53122 4.84175Q5.46302 4.94383 5.38513 5.03873Q5.30725 5.13363 5.22044 5.22044Q5.13363 5.30725 5.03873 5.38513Q4.94383 5.46302 4.84175 5.53122Q4.73967 5.59943 4.6314 5.6573Q4.52313 5.71517 4.40971 5.76216Q4.29628 5.80914 4.1788 5.84477Q4.06132 5.88041 3.94091 5.90436Q3.8205 5.92831 3.69833 5.94035Q3.57615 5.95238 3.45338 5.95238L2.499 5.95238Q2.37623 5.95238 2.25406 5.94035Q2.13188 5.92831 2.01147 5.90436Q1.89106 5.88041 1.77358 5.84477Q1.6561 5.80914 1.54267 5.76216Q1.42925 5.71517 1.32098 5.6573Q1.21271 5.59943 1.11063 5.53122Q1.00855 5.46302 0.913651 5.38513Q0.81875 5.30725 0.73194 5.22044Q0.64513 5.13363 0.567247 5.03873Q0.489364 4.94383 0.421157 4.84175Q0.352951 4.73967 0.295079 4.6314Q0.237206 4.52313 0.190225 4.40971Q0.143244 4.29628 0.107606 4.1788Q0.0719684 4.06132 0.0480176 3.94091Q0.0240667 3.8205 0.0120334 3.69833Q0 3.57615 0 3.45338L0 2.499Q0 2.37623 0.0120334 2.25406Q0.0240667 2.13188 0.0480176 2.01147Q0.0719684 1.89106 0.107606 1.77358Q0.143244 1.6561 0.190225 1.54267Q0.237206 1.42925 0.295079 1.32098Q0.352951 1.21271 0.421157 1.11063Q0.489364 1.00855 0.567247 0.913651Q0.64513 0.81875 0.73194 0.73194Q0.81875 0.64513 0.913651 0.567247Q1.00855 0.489364 1.11063 0.421157Q1.21271 0.352951 1.32098 0.295079Q1.42925 0.237206 1.54267 0.190225Q1.6561 0.143244 1.77358 0.107606Q1.89106 0.0719684 2.01147 0.0480176Q2.13188 0.0240667 2.25406 0.0120334Q2.37623 0 2.499 0Z" transform="translate(14.285714 2.3809524)" id="Rectangle" fill="#F64100" fill-rule="evenodd" stroke="none" />
  </g>
</svg>