<?xml version="1.0" encoding="utf-8"?>
<svg width="44px" height="57px" viewBox="0 0 44 57" version="1.1" xmlns:xlink="http://www.w3.org/1999/xlink" xmlns="http://www.w3.org/2000/svg">
  <g id="ICON-Order-Copy">
    <g id="Burger-Icon" transform="translate(18 24)">
      <path d="M3.7612 15C1.68395 15 0 13.2974 0 11.1972C0 9.09694 1.68395 7.39437 3.7612 7.39437C3.93035 7.39437 4.09691 7.40566 4.26016 7.42752C4.20715 7.21436 4.17911 6.99077 4.17911 6.76055C4.17911 5.24372 5.39529 4.01408 6.89555 4.01408C7.57294 4.01408 8.19247 4.26478 8.66822 4.67946C8.78649 4.64183 8.90689 4.60824 9.029 4.57898C9.80794 1.93444 12.3 0 15.2537 0C18.0475 0 20.4282 1.73054 21.3372 4.15583C21.7319 4.06302 22.1439 4.01408 22.5672 4.01408C25.5676 4.01408 28 6.47336 28 9.50703C28 12.5407 25.5676 15 22.5672 15L3.7612 15Z" transform="translate(-1 2)" id="Stroke-1" fill="none" fill-rule="evenodd" stroke="#FEFEFE" stroke-width="2" />
    </g>
    <path d="M32 34.1035L32 41.001Q32 41.1483 31.9856 41.295Q31.9711 41.4416 31.9424 41.5861Q31.9136 41.7306 31.8709 41.8716Q31.8281 42.0125 31.7717 42.1487Q31.7153 42.2848 31.6459 42.4147Q31.5764 42.5446 31.4946 42.6671Q31.4127 42.7896 31.3193 42.9035Q31.2258 43.0174 31.1216 43.1216Q31.0174 43.2258 30.9035 43.3193Q30.7897 43.4127 30.6672 43.4946Q30.5447 43.5764 30.4147 43.6459Q30.2848 43.7153 30.1487 43.7717Q30.0126 43.8281 29.8716 43.8709Q29.7306 43.9136 29.5861 43.9424Q29.4416 43.9711 29.295 43.9856Q29.1483 44 29.001 44L2.999 44Q2.85167 44 2.70505 43.9856Q2.55842 43.9711 2.41392 43.9424Q2.26942 43.9136 2.12844 43.8709Q1.98745 43.8281 1.85133 43.7717Q1.71522 43.7153 1.58528 43.6459Q1.45535 43.5764 1.33284 43.4946Q1.21034 43.4127 1.09645 43.3193Q0.982566 43.2258 0.878387 43.1216Q0.774208 43.0174 0.680742 42.9035Q0.587276 42.7897 0.505423 42.6672Q0.42357 42.5447 0.354118 42.4147Q0.284667 42.2848 0.228285 42.1487Q0.171904 42.0125 0.129136 41.8716Q0.0863679 41.7306 0.0576249 41.5861Q0.028882 41.4416 0.014441 41.295Q0 41.1483 0 41.001L0 2.999Q0 2.85167 0.014441 2.70505Q0.028882 2.55842 0.0576249 2.41392Q0.0863679 2.26942 0.129136 2.12844Q0.171904 1.98745 0.228285 1.85133Q0.284667 1.71522 0.354118 1.58528Q0.42357 1.45535 0.505423 1.33284Q0.587276 1.21034 0.680742 1.09645Q0.774208 0.982566 0.878387 0.878387Q0.982566 0.774208 1.09645 0.680742Q1.21034 0.587276 1.33284 0.505423Q1.45535 0.42357 1.58528 0.354118Q1.71522 0.284667 1.85133 0.228285Q1.98745 0.171904 2.12844 0.129136Q2.26942 0.0863679 2.41392 0.0576249Q2.55842 0.028882 2.70505 0.014441Q2.85167 0 2.999 0L29.001 0Q29.1483 0 29.295 0.014441Q29.4416 0.028882 29.5861 0.0576249Q29.7306 0.0863679 29.8716 0.129136Q30.0126 0.171904 30.1487 0.228285Q30.2848 0.284667 30.4147 0.354118Q30.5446 0.42357 30.6672 0.505423Q30.7897 0.587276 30.9035 0.680742Q31.0174 0.774208 31.1216 0.878387Q31.2258 0.982566 31.3193 1.09645Q31.4127 1.21034 31.4946 1.33284Q31.5764 1.45535 31.6459 1.58528Q31.7153 1.71522 31.7717 1.85133Q31.8281 1.98745 31.8709 2.12844Q31.9136 2.26942 31.9424 2.41392Q31.9711 2.55842 31.9856 2.70505Q32 2.85167 32 2.999L32 12.114" transform="translate(2 11)" id="Stroke-1" fill="none" fill-rule="evenodd" stroke="#FEFEFE" stroke-width="2" stroke-linecap="round" stroke-linejoin="round" />
    <path d="M0 22L0 6.16046C0 2.65187 3.35778 0 7.5 0C11.6422 0 15 2.65187 15 6.16046L15 13.9616" transform="translate(11 3)" id="Stroke-21" fill="none" fill-rule="evenodd" stroke="#FEFEFE" stroke-width="2" stroke-linecap="round" stroke-linejoin="round" />
  </g>
</svg>