<?xml version="1.0" encoding="utf-8"?>
<svg width="22px" height="22px" viewBox="0 0 22 22" version="1.1" xmlns:xlink="http://www.w3.org/1999/xlink" xmlns="http://www.w3.org/2000/svg">
  <g id="Info-Alarm">
    <g id="Info-Alarm">
      <g id="Notification">
        <path d="M10.999 0L11.001 0Q11.271 0 11.5407 0.0132488Q11.8104 0.0264976 12.0791 0.0529632Q12.3478 0.0794288 12.6149 0.119048Q12.882 0.158666 13.1468 0.211343Q13.4116 0.264019 13.6735 0.329626Q13.9355 0.395233 14.1938 0.473613Q14.4522 0.551993 14.7065 0.642957Q14.9607 0.73392 15.2101 0.837249Q15.4596 0.940577 15.7037 1.05602Q15.9478 1.17147 16.1859 1.29875Q16.424 1.42603 16.6556 1.56484Q16.8872 1.70366 17.1117 1.85367Q17.3362 2.00367 17.5531 2.16452Q17.77 2.32537 17.9787 2.49666Q18.1874 2.66795 18.3875 2.84928Q18.5875 3.03061 18.7785 3.22153Q18.9694 3.41246 19.1507 3.61252Q19.332 3.81259 19.5033 4.02131Q19.6746 4.23003 19.8355 4.4469Q19.9963 4.66378 20.1463 4.88828Q20.2963 5.11279 20.4352 5.34438Q20.574 5.57598 20.7013 5.81411Q20.8285 6.05223 20.944 6.29632Q21.0594 6.54041 21.1628 6.78986Q21.2661 7.03932 21.357 7.29355Q21.448 7.54777 21.5264 7.80616Q21.6048 8.06454 21.6704 8.32646Q21.736 8.58838 21.7887 8.8532Q21.8413 9.11802 21.881 9.38511Q21.9206 9.6522 21.947 9.92091Q21.9735 10.1896 21.9867 10.4593Q22 10.729 22 10.999L22 11.001Q22 11.271 21.9867 11.5407Q21.9735 11.8104 21.947 12.0791Q21.9206 12.3478 21.881 12.6149Q21.8413 12.882 21.7887 13.1468Q21.736 13.4116 21.6704 13.6735Q21.6048 13.9355 21.5264 14.1938Q21.448 14.4522 21.357 14.7065Q21.2661 14.9607 21.1628 15.2101Q21.0594 15.4596 20.944 15.7037Q20.8285 15.9478 20.7013 16.1859Q20.574 16.424 20.4352 16.6556Q20.2963 16.8872 20.1463 17.1117Q19.9963 17.3362 19.8355 17.5531Q19.6746 17.77 19.5033 17.9787Q19.3321 18.1874 19.1507 18.3875Q18.9694 18.5875 18.7785 18.7785Q18.5875 18.9694 18.3875 19.1507Q18.1874 19.332 17.9787 19.5033Q17.77 19.6746 17.5531 19.8355Q17.3362 19.9963 17.1117 20.1463Q16.8872 20.2963 16.6556 20.4352Q16.424 20.574 16.1859 20.7013Q15.9478 20.8285 15.7037 20.944Q15.4596 21.0594 15.2101 21.1628Q14.9607 21.2661 14.7065 21.357Q14.4522 21.448 14.1938 21.5264Q13.9355 21.6048 13.6735 21.6704Q13.4116 21.736 13.1468 21.7887Q12.882 21.8413 12.6149 21.881Q12.3478 21.9206 12.0791 21.947Q11.8104 21.9735 11.5407 21.9867Q11.271 22 11.001 22L10.999 22Q10.729 22 10.4593 21.9867Q10.1896 21.9735 9.92091 21.947Q9.6522 21.9206 9.38511 21.881Q9.11802 21.8413 8.8532 21.7887Q8.58838 21.736 8.32646 21.6704Q8.06454 21.6048 7.80616 21.5264Q7.54777 21.448 7.29355 21.357Q7.03932 21.2661 6.78986 21.1628Q6.54041 21.0594 6.29632 20.944Q6.05223 20.8285 5.81411 20.7013Q5.57598 20.574 5.34438 20.4352Q5.11279 20.2963 4.88828 20.1463Q4.66378 19.9963 4.4469 19.8355Q4.23003 19.6746 4.02131 19.5033Q3.81259 19.3321 3.61252 19.1507Q3.41246 18.9694 3.22153 18.7785Q3.03061 18.5875 2.84928 18.3875Q2.66795 18.1874 2.49666 17.9787Q2.32537 17.77 2.16452 17.5531Q2.00367 17.3362 1.85367 17.1117Q1.70366 16.8872 1.56484 16.6556Q1.42603 16.424 1.29875 16.1859Q1.17147 15.9478 1.05602 15.7037Q0.940577 15.4596 0.837249 15.2101Q0.73392 14.9607 0.642957 14.7065Q0.551993 14.4522 0.473613 14.1938Q0.395233 13.9355 0.329626 13.6735Q0.264019 13.4116 0.211343 13.1468Q0.158666 12.882 0.119048 12.6149Q0.0794288 12.3478 0.0529632 12.0791Q0.0264976 11.8104 0.0132488 11.5407Q0 11.271 0 11.001L0 10.999Q0 10.729 0.0132488 10.4593Q0.0264976 10.1896 0.0529632 9.92091Q0.0794288 9.6522 0.119048 9.38511Q0.158666 9.11802 0.211343 8.8532Q0.264019 8.58838 0.329626 8.32646Q0.395233 8.06454 0.473613 7.80616Q0.551993 7.54777 0.642957 7.29355Q0.73392 7.03932 0.837249 6.78986Q0.940577 6.54041 1.05602 6.29632Q1.17147 6.05223 1.29875 5.81411Q1.42603 5.57598 1.56484 5.34438Q1.70366 5.11279 1.85367 4.88828Q2.00367 4.66378 2.16452 4.4469Q2.32537 4.23003 2.49666 4.02131Q2.66795 3.81259 2.84928 3.61252Q3.03061 3.41246 3.22153 3.22153Q3.41246 3.03061 3.61252 2.84928Q3.81259 2.66795 4.02131 2.49666Q4.23003 2.32537 4.4469 2.16452Q4.66378 2.00367 4.88828 1.85367Q5.11279 1.70366 5.34438 1.56484Q5.57598 1.42603 5.81411 1.29875Q6.05223 1.17147 6.29632 1.05602Q6.54041 0.940577 6.78986 0.837249Q7.03932 0.73392 7.29355 0.642957Q7.54777 0.551993 7.80616 0.473613Q8.06454 0.395233 8.32646 0.329626Q8.58838 0.264019 8.8532 0.211343Q9.11802 0.158666 9.38511 0.119048Q9.6522 0.0794288 9.92091 0.0529632Q10.1896 0.0264976 10.4593 0.0132488Q10.729 0 10.999 0L10.999 0Z" id="Rectangle" fill="#F64100" fill-rule="evenodd" stroke="none" />
        <g id="Group" transform="translate(9 4)">
          <path d="M1.999 0L2.001 0Q2.0992 0 2.19694 0.00962573Q2.29467 0.0192515 2.39099 0.0384102Q2.4873 0.057569 2.58128 0.0860763Q2.67525 0.114584 2.76598 0.152165Q2.85671 0.189746 2.94332 0.236039Q3.02993 0.282333 3.11158 0.336892Q3.19324 0.391452 3.26915 0.453752Q3.34507 0.516052 3.41451 0.585494Q3.48395 0.654935 3.54625 0.730848Q3.60855 0.806761 3.66311 0.888415Q3.71767 0.970069 3.76396 1.05668Q3.81025 1.14329 3.84783 1.23402Q3.88542 1.32474 3.91392 1.41872Q3.94243 1.5127 3.96159 1.60901Q3.98075 1.70533 3.99037 1.80306Q4 1.9008 4 1.999L4 8.001Q4 8.09921 3.99037 8.19694Q3.98075 8.29467 3.96159 8.39098Q3.94243 8.4873 3.91392 8.58128Q3.88542 8.67525 3.84783 8.76598Q3.81025 8.85671 3.76396 8.94332Q3.71767 9.02993 3.66311 9.11158Q3.60855 9.19324 3.54625 9.26915Q3.48395 9.34507 3.41451 9.41451Q3.34507 9.48395 3.26915 9.54625Q3.19324 9.60855 3.11158 9.66311Q3.02993 9.71767 2.94332 9.76396Q2.85671 9.81025 2.76598 9.84783Q2.67525 9.88542 2.58128 9.91392Q2.4873 9.94243 2.39099 9.96159Q2.29467 9.98075 2.19694 9.99037Q2.0992 10 2.001 10L1.999 10Q1.9008 10 1.80306 9.99037Q1.70533 9.98075 1.60901 9.96159Q1.5127 9.94243 1.41872 9.91392Q1.32474 9.88542 1.23402 9.84783Q1.14329 9.81025 1.05668 9.76396Q0.970069 9.71767 0.888415 9.66311Q0.806761 9.60855 0.730848 9.54625Q0.654935 9.48395 0.585494 9.41451Q0.516052 9.34507 0.453752 9.26915Q0.391452 9.19324 0.336892 9.11158Q0.282333 9.02993 0.236039 8.94332Q0.189746 8.85671 0.152165 8.76598Q0.114584 8.67525 0.0860763 8.58128Q0.057569 8.4873 0.0384102 8.39098Q0.0192515 8.29467 0.00962573 8.19694Q0 8.09921 0 8.001L0 1.999Q0 1.9008 0.00962573 1.80306Q0.0192515 1.70533 0.0384102 1.60901Q0.057569 1.5127 0.0860763 1.41872Q0.114584 1.32474 0.152165 1.23402Q0.189746 1.14329 0.236039 1.05668Q0.282333 0.970069 0.336892 0.888415Q0.391452 0.806761 0.453752 0.730848Q0.516052 0.654935 0.585494 0.585494Q0.654935 0.516052 0.730848 0.453752Q0.806761 0.391452 0.888415 0.336892Q0.970069 0.282333 1.05668 0.236039Q1.14329 0.189746 1.23402 0.152165Q1.32474 0.114584 1.41872 0.0860763Q1.5127 0.057569 1.60901 0.0384102Q1.70533 0.0192515 1.80306 0.00962573Q1.9008 0 1.999 0L1.999 0Z" transform="translate(0 5)" id="Rectangle" fill="#FFFFFF" fill-rule="evenodd" stroke="none" />
          <path d="M1.999 0L2.001 0Q2.0992 0 2.19694 0.00962573Q2.29467 0.0192515 2.39099 0.0384102Q2.4873 0.057569 2.58128 0.0860763Q2.67525 0.114584 2.76598 0.152165Q2.85671 0.189746 2.94332 0.236039Q3.02993 0.282333 3.11158 0.336892Q3.19324 0.391452 3.26915 0.453752Q3.34507 0.516052 3.41451 0.585494Q3.48395 0.654935 3.54625 0.730848Q3.60855 0.806761 3.66311 0.888415Q3.71767 0.970069 3.76396 1.05668Q3.81025 1.14329 3.84783 1.23402Q3.88542 1.32474 3.91392 1.41872Q3.94243 1.5127 3.96159 1.60901Q3.98075 1.70533 3.99037 1.80306Q4 1.9008 4 1.999L4 2.001Q4 2.0992 3.99037 2.19694Q3.98075 2.29467 3.96159 2.39099Q3.94243 2.4873 3.91392 2.58128Q3.88542 2.67525 3.84783 2.76598Q3.81025 2.85671 3.76396 2.94332Q3.71767 3.02993 3.66311 3.11158Q3.60855 3.19324 3.54625 3.26915Q3.48395 3.34507 3.41451 3.41451Q3.34507 3.48395 3.26915 3.54625Q3.19324 3.60855 3.11158 3.66311Q3.02993 3.71767 2.94332 3.76396Q2.85671 3.81025 2.76598 3.84783Q2.67525 3.88542 2.58128 3.91392Q2.4873 3.94243 2.39099 3.96159Q2.29467 3.98075 2.19694 3.99037Q2.0992 4 2.001 4L1.999 4Q1.9008 4 1.80306 3.99037Q1.70533 3.98075 1.60901 3.96159Q1.5127 3.94243 1.41872 3.91392Q1.32474 3.88542 1.23402 3.84783Q1.14329 3.81025 1.05668 3.76396Q0.970069 3.71767 0.888415 3.66311Q0.806761 3.60855 0.730848 3.54625Q0.654935 3.48395 0.585494 3.41451Q0.516052 3.34507 0.453752 3.26915Q0.391452 3.19324 0.336892 3.11158Q0.282333 3.02993 0.236039 2.94332Q0.189746 2.85671 0.152165 2.76598Q0.114584 2.67525 0.0860763 2.58128Q0.057569 2.4873 0.0384102 2.39099Q0.0192515 2.29467 0.00962573 2.19694Q0 2.0992 0 2.001L0 1.999Q0 1.9008 0.00962573 1.80306Q0.0192515 1.70533 0.0384102 1.60901Q0.057569 1.5127 0.0860763 1.41872Q0.114584 1.32474 0.152165 1.23402Q0.189746 1.14329 0.236039 1.05668Q0.282333 0.970069 0.336892 0.888415Q0.391452 0.806761 0.453752 0.730848Q0.516052 0.654935 0.585494 0.585494Q0.654935 0.516052 0.730848 0.453752Q0.806761 0.391452 0.888415 0.336892Q0.970069 0.282333 1.05668 0.236039Q1.14329 0.189746 1.23402 0.152165Q1.32474 0.114584 1.41872 0.0860763Q1.5127 0.057569 1.60901 0.0384102Q1.70533 0.0192515 1.80306 0.00962573Q1.9008 0 1.999 0L1.999 0Z" id="Rectangle-Copy" fill="#FFFFFF" fill-rule="evenodd" stroke="none" />
        </g>
      </g>
    </g>
  </g>
</svg>