<?xml version="1.0" encoding="utf-8"?>
<svg width="36px" height="40px" viewBox="0 0 36 40" version="1.1" xmlns:xlink="http://www.w3.org/1999/xlink" xmlns="http://www.w3.org/2000/svg">
  <defs>
    <filter id="filter_1">
      <feColorMatrix in="SourceGraphic" type="matrix" values="0 0 0 0 0.21568628 0 0 0 0 0.25490198 0 0 0 0 0.28235295 0 0 0 1 0" />
    </filter>
    <path d="M10.0005 0C4.48519 0 0 4.48646 0 10C0 15.5135 4.48519 20 10.0005 20C15.5138 20 20 15.5135 20 10C20 4.48646 15.5138 0 10.0005 0ZM19 9.91916C19 11.8301 18.2486 13.5921 16.9962 15C16.6417 14.7613 16.2649 14.1154 16.6193 13.4461C16.9773 12.7728 17.0706 11.2139 16.988 10.6068C16.91 10.0008 16.5449 8.54081 15.5536 8.52652C14.5636 8.51428 13.8843 8.23168 13.2959 7.21754C12.0755 5.10767 15.5868 4.70264 14.3663 3.53547C14.0249 3.20695 12.2598 4.88424 12.0011 2.64888C11.9845 2.48869 12.1606 2.24894 12.398 2C16.2306 3.11207 19 6.24116 19 9.91916ZM8.45163 1C8.25757 1.37921 7.74568 1.53308 7.43478 1.81797C6.75754 2.43246 6.46644 2.34708 6.10207 2.93674C5.73474 3.5264 4.55056 4.37516 4.55056 4.80201C4.55056 5.22888 5.14858 5.73117 5.44761 5.6339C5.74663 5.53462 6.53574 5.54057 6.99912 5.70338C7.4635 5.86816 10.8745 6.03296 9.78731 8.92368C9.44274 9.84291 7.93281 9.68805 7.53082 11.2099C7.47042 11.4332 7.26151 12.3871 7.24863 12.6989C7.22388 13.1813 7.58924 15 7.12487 15C6.65853 15 5.40404 13.3729 5.40404 13.0781C5.40404 12.7832 5.07928 11.7498 5.07928 10.8644C5.07928 9.97991 3.57628 9.99381 3.57628 8.81746C3.57628 7.75727 4.39114 7.22915 4.20798 6.7199C4.02876 6.21362 2.59704 6.19675 2 6.13421C3.0426 3.42316 5.49513 1.41098 8.45163 1ZM8 17.5953C8.55522 17.3435 8.61164 17.0182 9.11496 17.0018C9.69049 16.9795 10.1588 16.809 10.8077 16.6861C11.3832 16.5786 12.4136 16.077 13.3198 16.0131C14.0849 15.9599 15.5937 16.047 16 16.6803C14.5385 17.514 12.786 18 10.9059 18C9.89136 18 8.91409 17.8558 8 17.5953Z" transform="translate(-1 10)" id="path_1" />
    <clipPath id="mask_1">
      <use xlink:href="#path_1" />
    </clipPath>
  </defs>
  <g id="Kitchen-Table-off-Copy" filter="url(#filter_1)">
    <path d="M1 0L1 40" transform="translate(34 0)" id="Line-13" fill="none" fill-rule="evenodd" stroke="#4880FF" stroke-opacity="0" stroke-width="2" stroke-linecap="round" stroke-linejoin="round" />
    <path d="M10.0005 0C4.48519 0 0 4.48646 0 10C0 15.5135 4.48519 20 10.0005 20C15.5138 20 20 15.5135 20 10C20 4.48646 15.5138 0 10.0005 0ZM19 9.91916C19 11.8301 18.2486 13.5921 16.9962 15C16.6417 14.7613 16.2649 14.1154 16.6193 13.4461C16.9773 12.7728 17.0706 11.2139 16.988 10.6068C16.91 10.0008 16.5449 8.54081 15.5536 8.52652C14.5636 8.51428 13.8843 8.23168 13.2959 7.21754C12.0755 5.10767 15.5868 4.70264 14.3663 3.53547C14.0249 3.20695 12.2598 4.88424 12.0011 2.64888C11.9845 2.48869 12.1606 2.24894 12.398 2C16.2306 3.11207 19 6.24116 19 9.91916ZM8.45163 1C8.25757 1.37921 7.74568 1.53308 7.43478 1.81797C6.75754 2.43246 6.46644 2.34708 6.10207 2.93674C5.73474 3.5264 4.55056 4.37516 4.55056 4.80201C4.55056 5.22888 5.14858 5.73117 5.44761 5.6339C5.74663 5.53462 6.53574 5.54057 6.99912 5.70338C7.4635 5.86816 10.8745 6.03296 9.78731 8.92368C9.44274 9.84291 7.93281 9.68805 7.53082 11.2099C7.47042 11.4332 7.26151 12.3871 7.24863 12.6989C7.22388 13.1813 7.58924 15 7.12487 15C6.65853 15 5.40404 13.3729 5.40404 13.0781C5.40404 12.7832 5.07928 11.7498 5.07928 10.8644C5.07928 9.97991 3.57628 9.99381 3.57628 8.81746C3.57628 7.75727 4.39114 7.22915 4.20798 6.7199C4.02876 6.21362 2.59704 6.19675 2 6.13421C3.0426 3.42316 5.49513 1.41098 8.45163 1ZM8 17.5953C8.55522 17.3435 8.61164 17.0182 9.11496 17.0018C9.69049 16.9795 10.1588 16.809 10.8077 16.6861C11.3832 16.5786 12.4136 16.077 13.3198 16.0131C14.0849 15.9599 15.5937 16.047 16 16.6803C14.5385 17.514 12.786 18 10.9059 18C9.89136 18 8.91409 17.8558 8 17.5953Z" transform="translate(-1 10)" id="language" fill="#647480" stroke="none" />
  </g>
</svg>