<?xml version="1.0" encoding="utf-8"?>
<svg width="37px" height="40px" viewBox="0 0 37 40" version="1.1" xmlns:xlink="http://www.w3.org/1999/xlink" xmlns="http://www.w3.org/2000/svg">
  <defs>
    <filter id="filter_1">
      <feColorMatrix in="SourceGraphic" type="matrix" values="0 0 0 0 0.21568628 0 0 0 0 0.25490198 0 0 0 0 0.28235295 0 0 0 1 0" />
    </filter>
  </defs>
  <g id="Kitchen-dash--off" filter="url(#filter_1)">
    <g id="Kitchen-dash--off" transform="translate(0 10)">
      <path d="M9.0625 7.5L0 7.5L0 0L9.0625 0L9.0625 7.5ZM1.25 6.25L7.8125 6.25L7.8125 1.25L1.25 1.25L1.25 6.25ZM9.0625 20L0 20L0 9.375L9.0625 9.375L9.0625 20ZM1.25 18.75L7.8125 18.75L7.8125 10.625L1.25 10.625L1.25 18.75ZM20 10.625L10.9375 10.625L10.9375 0L20 0L20 10.625ZM12.1875 9.375L18.75 9.375L18.75 1.25L12.1875 1.25L12.1875 9.375ZM20 20L10.9375 20L10.9375 12.5L20 12.5L20 20ZM12.1875 18.75L18.75 18.75L18.75 13.75L12.1875 13.75L12.1875 18.75Z" id="Kitchen-d" fill="#647480" fill-rule="evenodd" stroke="none" />
    </g>
  </g>
</svg>