<?xml version="1.0" encoding="utf-8"?>
<svg width="146px" height="32px" viewBox="0 0 146 32" version="1.1" xmlns:xlink="http://www.w3.org/1999/xlink" xmlns="http://www.w3.org/2000/svg">
  <g id="Map-Control">
    <g id="Map-Control" transform="matrix(-4.371139E-08 1 -1 -4.371139E-08 146 0)">
      <path d="M6.999 0L25.001 0Q25.1728 0 25.3444 0.0084306Q25.516 0.0168612 25.687 0.0337021Q25.858 0.050543 26.028 0.0757536Q26.1979 0.100964 26.3664 0.134484Q26.5349 0.168003 26.7016 0.209751Q26.8683 0.251499 27.0327 0.301375Q27.1971 0.35125 27.3589 0.409133Q27.5207 0.467016 27.6794 0.532767Q27.8381 0.598518 27.9935 0.671979Q28.1488 0.74544 28.3003 0.826433Q28.4518 0.907426 28.5992 0.995757Q28.7466 1.08409 28.8894 1.17954Q29.0323 1.275 29.1703 1.37735Q29.3083 1.4797 29.4411 1.5887Q29.5739 1.6977 29.7012 1.81308Q29.8285 1.92847 29.95 2.04996Q30.0715 2.17145 30.1869 2.29876Q30.3023 2.42607 30.4113 2.55888Q30.5203 2.6917 30.6226 2.8297Q30.725 2.9677 30.8205 3.11056Q30.9159 3.25342 31.0042 3.40079Q31.0926 3.54817 31.1736 3.69969Q31.2546 3.85122 31.328 4.00654Q31.4015 4.16186 31.4672 4.3206Q31.533 4.47933 31.5909 4.64111Q31.6487 4.80288 31.6986 4.9673Q31.7485 5.13171 31.7902 5.29838Q31.832 5.46505 31.8655 5.63356Q31.899 5.80208 31.9242 5.97203Q31.9495 6.14199 31.9663 6.31298Q31.9831 6.48397 31.9916 6.65558Q32 6.82718 32 6.999L32 25.001Q32 25.1728 31.9916 25.3444Q31.9831 25.516 31.9663 25.687Q31.9495 25.858 31.9242 26.028Q31.899 26.1979 31.8655 26.3664Q31.832 26.5349 31.7902 26.7016Q31.7485 26.8683 31.6986 27.0327Q31.6487 27.1971 31.5909 27.3589Q31.533 27.5207 31.4672 27.6794Q31.4015 27.8381 31.328 27.9935Q31.2546 28.1488 31.1736 28.3003Q31.0926 28.4518 31.0042 28.5992Q30.9159 28.7466 30.8205 28.8894Q30.725 29.0323 30.6226 29.1703Q30.5203 29.3083 30.4113 29.4411Q30.3023 29.5739 30.1869 29.7012Q30.0715 29.8285 29.95 29.95Q29.8285 30.0715 29.7012 30.1869Q29.5739 30.3023 29.4411 30.4113Q29.3083 30.5203 29.1703 30.6226Q29.0323 30.725 28.8894 30.8205Q28.7466 30.9159 28.5992 31.0042Q28.4518 31.0926 28.3003 31.1736Q28.1488 31.2546 27.9935 31.328Q27.8381 31.4015 27.6794 31.4672Q27.5207 31.533 27.3589 31.5909Q27.1971 31.6487 27.0327 31.6986Q26.8683 31.7485 26.7016 31.7902Q26.5349 31.832 26.3664 31.8655Q26.1979 31.899 26.028 31.9242Q25.858 31.9495 25.687 31.9663Q25.516 31.9831 25.3444 31.9916Q25.1728 32 25.001 32L6.999 32Q6.82718 32 6.65557 31.9916Q6.48397 31.9831 6.31298 31.9663Q6.14199 31.9495 5.97203 31.9242Q5.80208 31.899 5.63356 31.8655Q5.46505 31.832 5.29838 31.7902Q5.13171 31.7485 4.9673 31.6986Q4.80288 31.6487 4.64111 31.5909Q4.47933 31.533 4.3206 31.4672Q4.16186 31.4015 4.00654 31.328Q3.85122 31.2546 3.69969 31.1736Q3.54817 31.0926 3.40079 31.0042Q3.25342 30.9159 3.11056 30.8205Q2.9677 30.725 2.8297 30.6226Q2.6917 30.5203 2.55888 30.4113Q2.42607 30.3023 2.29876 30.1869Q2.17145 30.0715 2.04996 29.95Q1.92847 29.8285 1.81308 29.7012Q1.6977 29.5739 1.5887 29.4411Q1.4797 29.3083 1.37735 29.1703Q1.275 29.0323 1.17954 28.8894Q1.08409 28.7466 0.995757 28.5992Q0.907426 28.4518 0.826433 28.3003Q0.74544 28.1488 0.671979 27.9935Q0.598518 27.8381 0.532767 27.6794Q0.467016 27.5207 0.409133 27.3589Q0.35125 27.1971 0.301375 27.0327Q0.251499 26.8683 0.209751 26.7016Q0.168003 26.5349 0.134484 26.3664Q0.100964 26.1979 0.0757536 26.028Q0.050543 25.858 0.0337021 25.687Q0.0168612 25.516 0.0084306 25.3444Q0 25.1728 0 25.001L0 6.999Q0 6.82718 0.0084306 6.65557Q0.0168612 6.48397 0.0337021 6.31298Q0.050543 6.14199 0.0757536 5.97203Q0.100964 5.80208 0.134484 5.63356Q0.168003 5.46505 0.209751 5.29838Q0.251499 5.13171 0.301375 4.9673Q0.35125 4.80288 0.409133 4.64111Q0.467016 4.47933 0.532767 4.3206Q0.598518 4.16186 0.671979 4.00654Q0.74544 3.85122 0.826433 3.69969Q0.907426 3.54817 0.995757 3.40079Q1.08409 3.25342 1.17954 3.11056Q1.275 2.9677 1.37735 2.8297Q1.4797 2.6917 1.5887 2.55888Q1.6977 2.42607 1.81308 2.29876Q1.92847 2.17145 2.04996 2.04996Q2.17145 1.92847 2.29876 1.81308Q2.42607 1.6977 2.55888 1.5887Q2.6917 1.4797 2.8297 1.37735Q2.9677 1.275 3.11056 1.17954Q3.25342 1.08409 3.40079 0.995757Q3.54817 0.907426 3.69969 0.826433Q3.85122 0.74544 4.00654 0.671979Q4.16186 0.598518 4.3206 0.532767Q4.47933 0.467016 4.64111 0.409133Q4.80288 0.35125 4.9673 0.301375Q5.13171 0.251499 5.29838 0.209751Q5.46505 0.168003 5.63356 0.134484Q5.80208 0.100964 5.97203 0.0757536Q6.14199 0.050543 6.31298 0.0337021Q6.48397 0.0168612 6.65558 0.0084306Q6.82718 0 6.999 0Z" transform="matrix(-4.371139E-08 -1 1 -4.371139E-08 0 146)" id="Rectangle" fill="none" fill-rule="evenodd" stroke="#FFFFFF" stroke-width="2" />
      <path d="M0 7.10526L15 0L7.89474 15L6.31579 8.68421L0 7.10526L0 7.10526Z" transform="matrix(-4.371139E-08 -1 -1 4.371139E-08 23 138)" id="Path" fill="none" fill-rule="evenodd" stroke="#FFFFFF" stroke-width="2" stroke-linecap="round" stroke-linejoin="round" />
      <path d="M0 0L25.001 0Q25.1728 0 25.3444 0.0084306Q25.516 0.0168612 25.687 0.0337021Q25.858 0.050543 26.028 0.0757536Q26.1979 0.100964 26.3664 0.134484Q26.5349 0.168003 26.7016 0.209751Q26.8683 0.251499 27.0327 0.301375Q27.1971 0.35125 27.3589 0.409133Q27.5207 0.467016 27.6794 0.532767Q27.8381 0.598518 27.9935 0.671979Q28.1488 0.74544 28.3003 0.826433Q28.4518 0.907426 28.5992 0.995757Q28.7466 1.08409 28.8894 1.17954Q29.0323 1.275 29.1703 1.37735Q29.3083 1.4797 29.4411 1.5887Q29.5739 1.6977 29.7012 1.81308Q29.8285 1.92847 29.95 2.04996Q30.0715 2.17145 30.1869 2.29876Q30.3023 2.42607 30.4113 2.55888Q30.5203 2.6917 30.6226 2.8297Q30.725 2.9677 30.8205 3.11056Q30.9159 3.25342 31.0042 3.40079Q31.0926 3.54817 31.1736 3.69969Q31.2546 3.85122 31.328 4.00654Q31.4015 4.16186 31.4672 4.3206Q31.533 4.47933 31.5909 4.64111Q31.6487 4.80288 31.6986 4.9673Q31.7485 5.13171 31.7902 5.29838Q31.832 5.46505 31.8655 5.63356Q31.899 5.80208 31.9242 5.97203Q31.9495 6.14199 31.9663 6.31298Q31.9831 6.48397 31.9916 6.65558Q32 6.82718 32 6.999L32 25.001Q32 25.1728 31.9916 25.3444Q31.9831 25.516 31.9663 25.687Q31.9495 25.858 31.9242 26.028Q31.899 26.1979 31.8655 26.3664Q31.832 26.5349 31.7902 26.7016Q31.7485 26.8683 31.6986 27.0327Q31.6487 27.1971 31.5909 27.3589Q31.533 27.5207 31.4672 27.6794Q31.4015 27.8381 31.328 27.9935Q31.2546 28.1488 31.1736 28.3003Q31.0926 28.4518 31.0042 28.5992Q30.9159 28.7466 30.8205 28.8894Q30.725 29.0323 30.6226 29.1703Q30.5203 29.3083 30.4113 29.4411Q30.3023 29.5739 30.1869 29.7012Q30.0715 29.8285 29.95 29.95Q29.8285 30.0715 29.7012 30.1869Q29.5739 30.3023 29.4411 30.4113Q29.3083 30.5203 29.1703 30.6226Q29.0323 30.725 28.8894 30.8205Q28.7466 30.9159 28.5992 31.0042Q28.4518 31.0926 28.3003 31.1736Q28.1488 31.2546 27.9935 31.328Q27.8381 31.4015 27.6794 31.4672Q27.5207 31.533 27.3589 31.5909Q27.1971 31.6487 27.0327 31.6986Q26.8683 31.7485 26.7016 31.7902Q26.5349 31.832 26.3664 31.8655Q26.1979 31.899 26.028 31.9242Q25.858 31.9495 25.687 31.9663Q25.516 31.9831 25.3444 31.9916Q25.1728 32 25.001 32L0 32L0 0Z" transform="matrix(-4.371139E-08 -1 1 -4.371139E-08 0 32)" id="Rectangle-Copy-11" fill="none" fill-rule="evenodd" stroke="#FFFFFF" stroke-width="2" />
      <path d="M6.999 0L32 0L32 32L6.999 32Q6.82718 32 6.65557 31.9916Q6.48397 31.9831 6.31298 31.9663Q6.14199 31.9495 5.97203 31.9242Q5.80208 31.899 5.63356 31.8655Q5.46505 31.832 5.29838 31.7902Q5.13171 31.7485 4.9673 31.6986Q4.80288 31.6487 4.64111 31.5909Q4.47933 31.533 4.3206 31.4672Q4.16186 31.4015 4.00654 31.328Q3.85122 31.2546 3.69969 31.1736Q3.54817 31.0926 3.40079 31.0042Q3.25342 30.9159 3.11056 30.8205Q2.9677 30.725 2.8297 30.6226Q2.6917 30.5203 2.55888 30.4113Q2.42607 30.3023 2.29876 30.1869Q2.17145 30.0715 2.04996 29.95Q1.92847 29.8285 1.81308 29.7012Q1.6977 29.5739 1.5887 29.4411Q1.4797 29.3083 1.37735 29.1703Q1.275 29.0323 1.17954 28.8894Q1.08409 28.7466 0.995757 28.5992Q0.907426 28.4518 0.826433 28.3003Q0.74544 28.1488 0.671979 27.9935Q0.598518 27.8381 0.532767 27.6794Q0.467016 27.5207 0.409133 27.3589Q0.35125 27.1971 0.301375 27.0327Q0.251499 26.8683 0.209751 26.7016Q0.168003 26.5349 0.134484 26.3664Q0.100964 26.1979 0.0757536 26.028Q0.050543 25.858 0.0337021 25.687Q0.0168612 25.516 0.0084306 25.3444Q0 25.1728 0 25.001L0 6.999Q0 6.82718 0.0084306 6.65557Q0.0168612 6.48397 0.0337021 6.31298Q0.050543 6.14199 0.0757536 5.97203Q0.100964 5.80208 0.134484 5.63356Q0.168003 5.46505 0.209751 5.29838Q0.251499 5.13171 0.301375 4.9673Q0.35125 4.80288 0.409133 4.64111Q0.467016 4.47933 0.532767 4.3206Q0.598518 4.16186 0.671979 4.00654Q0.74544 3.85122 0.826433 3.69969Q0.907426 3.54817 0.995757 3.40079Q1.08409 3.25342 1.17954 3.11056Q1.275 2.9677 1.37735 2.8297Q1.4797 2.6917 1.5887 2.55888Q1.6977 2.42607 1.81308 2.29876Q1.92847 2.17145 2.04996 2.04996Q2.17145 1.92847 2.29876 1.81308Q2.42607 1.6977 2.55888 1.5887Q2.6917 1.4797 2.8297 1.37735Q2.9677 1.275 3.11056 1.17954Q3.25342 1.08409 3.40079 0.995757Q3.54817 0.907426 3.69969 0.826433Q3.85122 0.74544 4.00654 0.671979Q4.16186 0.598518 4.3206 0.532767Q4.47933 0.467016 4.64111 0.409133Q4.80288 0.35125 4.9673 0.301375Q5.13171 0.251499 5.29838 0.209751Q5.46505 0.168003 5.63356 0.134484Q5.80208 0.100964 5.97203 0.0757536Q6.14199 0.050543 6.31298 0.0337021Q6.48397 0.0168612 6.65558 0.0084306Q6.82718 0 6.999 0Z" transform="matrix(-4.371139E-08 -1 1 -4.371139E-08 0 64)" id="Rectangle-Copy-12" fill="none" fill-rule="evenodd" stroke="#FFFFFF" stroke-width="2" />
      <path d="M1.55556 1.36111L1.55556 14.9722" transform="matrix(-4.371139E-08 -1 1 -4.371139E-08 7.999999 17.555555)" id="Line" fill="none" fill-rule="evenodd" stroke="#FFFFFF" stroke-width="2" stroke-linecap="round" stroke-linejoin="round" />
      <path d="M14 1.55556L0 1.55556" transform="matrix(-4.371139E-08 -1 1 -4.371139E-08 14.222222 23)" id="Line" fill="none" fill-rule="evenodd" stroke="#FFFFFF" stroke-width="2" stroke-linecap="round" stroke-linejoin="round" />
      <path d="M1.55556 1.36111L1.55556 14.9722" transform="matrix(-4.371139E-08 -1 1 -4.371139E-08 8.999999 49.555553)" id="Line-Copy-2" fill="none" fill-rule="evenodd" stroke="#FFFFFF" stroke-width="2" stroke-linecap="round" stroke-linejoin="round" />
      <path d="M6.999 0L25.001 0Q25.1728 0 25.3444 0.0084306Q25.516 0.0168612 25.687 0.0337021Q25.858 0.050543 26.028 0.0757536Q26.1979 0.100964 26.3664 0.134484Q26.5349 0.168003 26.7016 0.209751Q26.8683 0.251499 27.0327 0.301375Q27.1971 0.35125 27.3589 0.409133Q27.5207 0.467016 27.6794 0.532767Q27.8381 0.598518 27.9935 0.671979Q28.1488 0.74544 28.3003 0.826433Q28.4518 0.907426 28.5992 0.995757Q28.7466 1.08409 28.8894 1.17954Q29.0323 1.275 29.1703 1.37735Q29.3083 1.4797 29.4411 1.5887Q29.5739 1.6977 29.7012 1.81308Q29.8285 1.92847 29.95 2.04996Q30.0715 2.17145 30.1869 2.29876Q30.3023 2.42607 30.4113 2.55888Q30.5203 2.6917 30.6226 2.8297Q30.725 2.9677 30.8205 3.11056Q30.9159 3.25342 31.0042 3.40079Q31.0926 3.54817 31.1736 3.69969Q31.2546 3.85122 31.328 4.00654Q31.4015 4.16186 31.4672 4.3206Q31.533 4.47933 31.5909 4.64111Q31.6487 4.80288 31.6986 4.9673Q31.7485 5.13171 31.7902 5.29838Q31.832 5.46505 31.8655 5.63356Q31.899 5.80208 31.9242 5.97203Q31.9495 6.14199 31.9663 6.31298Q31.9831 6.48397 31.9916 6.65558Q32 6.82718 32 6.999L32 25.001Q32 25.1728 31.9916 25.3444Q31.9831 25.516 31.9663 25.687Q31.9495 25.858 31.9242 26.028Q31.899 26.1979 31.8655 26.3664Q31.832 26.5349 31.7902 26.7016Q31.7485 26.8683 31.6986 27.0327Q31.6487 27.1971 31.5909 27.3589Q31.533 27.5207 31.4672 27.6794Q31.4015 27.8381 31.328 27.9935Q31.2546 28.1488 31.1736 28.3003Q31.0926 28.4518 31.0042 28.5992Q30.9159 28.7466 30.8205 28.8894Q30.725 29.0323 30.6226 29.1703Q30.5203 29.3083 30.4113 29.4411Q30.3023 29.5739 30.1869 29.7012Q30.0715 29.8285 29.95 29.95Q29.8285 30.0715 29.7012 30.1869Q29.5739 30.3023 29.4411 30.4113Q29.3083 30.5203 29.1703 30.6226Q29.0323 30.725 28.8894 30.8205Q28.7466 30.9159 28.5992 31.0042Q28.4518 31.0926 28.3003 31.1736Q28.1488 31.2546 27.9935 31.328Q27.8381 31.4015 27.6794 31.4672Q27.5207 31.533 27.3589 31.5909Q27.1971 31.6487 27.0327 31.6986Q26.8683 31.7485 26.7016 31.7902Q26.5349 31.832 26.3664 31.8655Q26.1979 31.899 26.028 31.9242Q25.858 31.9495 25.687 31.9663Q25.516 31.9831 25.3444 31.9916Q25.1728 32 25.001 32L6.999 32Q6.82718 32 6.65557 31.9916Q6.48397 31.9831 6.31298 31.9663Q6.14199 31.9495 5.97203 31.9242Q5.80208 31.899 5.63356 31.8655Q5.46505 31.832 5.29838 31.7902Q5.13171 31.7485 4.9673 31.6986Q4.80288 31.6487 4.64111 31.5909Q4.47933 31.533 4.3206 31.4672Q4.16186 31.4015 4.00654 31.328Q3.85122 31.2546 3.69969 31.1736Q3.54817 31.0926 3.40079 31.0042Q3.25342 30.9159 3.11056 30.8205Q2.9677 30.725 2.8297 30.6226Q2.6917 30.5203 2.55888 30.4113Q2.42607 30.3023 2.29876 30.1869Q2.17145 30.0715 2.04996 29.95Q1.92847 29.8285 1.81308 29.7012Q1.6977 29.5739 1.5887 29.4411Q1.4797 29.3083 1.37735 29.1703Q1.275 29.0323 1.17954 28.8894Q1.08409 28.7466 0.995757 28.5992Q0.907426 28.4518 0.826433 28.3003Q0.74544 28.1488 0.671979 27.9935Q0.598518 27.8381 0.532767 27.6794Q0.467016 27.5207 0.409133 27.3589Q0.35125 27.1971 0.301375 27.0327Q0.251499 26.8683 0.209751 26.7016Q0.168003 26.5349 0.134484 26.3664Q0.100964 26.1979 0.0757536 26.028Q0.050543 25.858 0.0337021 25.687Q0.0168612 25.516 0.0084306 25.3444Q0 25.1728 0 25.001L0 6.999Q0 6.82718 0.0084306 6.65557Q0.0168612 6.48397 0.0337021 6.31298Q0.050543 6.14199 0.0757536 5.97203Q0.100964 5.80208 0.134484 5.63356Q0.168003 5.46505 0.209751 5.29838Q0.251499 5.13171 0.301375 4.9673Q0.35125 4.80288 0.409133 4.64111Q0.467016 4.47933 0.532767 4.3206Q0.598518 4.16186 0.671979 4.00654Q0.74544 3.85122 0.826433 3.69969Q0.907426 3.54817 0.995757 3.40079Q1.08409 3.25342 1.17954 3.11056Q1.275 2.9677 1.37735 2.8297Q1.4797 2.6917 1.5887 2.55888Q1.6977 2.42607 1.81308 2.29876Q1.92847 2.17145 2.04996 2.04996Q2.17145 1.92847 2.29876 1.81308Q2.42607 1.6977 2.55888 1.5887Q2.6917 1.4797 2.8297 1.37735Q2.9677 1.275 3.11056 1.17954Q3.25342 1.08409 3.40079 0.995757Q3.54817 0.907426 3.69969 0.826433Q3.85122 0.74544 4.00654 0.671979Q4.16186 0.598518 4.3206 0.532767Q4.47933 0.467016 4.64111 0.409133Q4.80288 0.35125 4.9673 0.301375Q5.13171 0.251499 5.29838 0.209751Q5.46505 0.168003 5.63356 0.134484Q5.80208 0.100964 5.97203 0.0757536Q6.14199 0.050543 6.31298 0.0337021Q6.48397 0.0168612 6.65558 0.0084306Q6.82718 0 6.999 0Z" transform="matrix(-4.371139E-08 -1 1 -4.371139E-08 0 105)" id="Rectangle-Copy-13" fill="none" fill-rule="evenodd" stroke="#FFFFFF" stroke-width="2" />
      <path d="M0.276316 0.414474L0.276316 2.90132" transform="matrix(-4.371139E-08 -1 1 -4.371139E-08 6 89.5)" id="Line" fill="none" fill-rule="evenodd" stroke="#FFFFFF" stroke-width="2" stroke-linecap="round" stroke-linejoin="round" />
      <path d="M0.276316 0.414474L0.276316 2.90132" transform="matrix(-4.371139E-08 -1 1 -4.371139E-08 22.578947 89.5)" id="Line-Copy" fill="none" fill-rule="evenodd" stroke="#FFFFFF" stroke-width="2" stroke-linecap="round" stroke-linejoin="round" />
      <path d="M0 0L2.21053 2.21053" transform="matrix(-4.371139E-08 -1 1 -4.371139E-08 9.315789 96.13158)" id="Line" fill="none" fill-rule="evenodd" stroke="#FFFFFF" stroke-width="1.5" stroke-linecap="round" stroke-linejoin="round" />
      <path d="M0 0L2.21053 2.21053" transform="matrix(-4.371139E-08 -1 1 -4.371139E-08 20.368422 85.07895)" id="Line-Copy" fill="none" fill-rule="evenodd" stroke="#FFFFFF" stroke-width="1.5" stroke-linecap="round" stroke-linejoin="round" />
      <path d="M0.5 0L0.5 2.48684" transform="translate(15.723684 79.9671)" id="Line" fill="none" fill-rule="evenodd" stroke="#FFFFFF" stroke-width="2" stroke-linecap="round" stroke-linejoin="round" />
      <path d="M0.5 0L0.5 2.48684" transform="translate(15.723684 96.54605)" id="Line-Copy" fill="none" fill-rule="evenodd" stroke="#FFFFFF" stroke-width="2" stroke-linecap="round" stroke-linejoin="round" />
      <path d="M2.21053 0L0 2.21053" transform="matrix(-4.371139E-08 -1 1 -4.371139E-08 9.315789 85.07895)" id="Line" fill="none" fill-rule="evenodd" stroke="#FFFFFF" stroke-width="1.5" stroke-linecap="round" stroke-linejoin="round" />
      <path d="M2.21053 0L0 2.21053" transform="matrix(-4.371139E-08 -1 1 -4.371139E-08 20.368422 96.13158)" id="Line-Copy" fill="none" fill-rule="evenodd" stroke="#FFFFFF" stroke-width="1.5" stroke-linecap="round" stroke-linejoin="round" />
      <path d="M3.31579 6.63158C5.14705 6.63158 6.63158 5.14705 6.63158 3.31579C6.63158 1.48453 5.14705 0 3.31579 0C1.48453 0 0 1.48453 0 3.31579C0 5.14705 1.48453 6.63158 3.31579 6.63158Z" transform="matrix(-4.371139E-08 -1 1 -4.371139E-08 12.631579 92.81579)" id="Oval" fill="none" fill-rule="evenodd" stroke="#FFFFFF" stroke-width="2" />
    </g>
  </g>
</svg>