<?xml version="1.0" encoding="utf-8"?>
<svg width="27px" height="25px" viewBox="0 0 27 25" version="1.1" xmlns:xlink="http://www.w3.org/1999/xlink" xmlns="http://www.w3.org/2000/svg">
  <g id="Order-small-Thumbnail01">
    <g id="Order-small-Thumbnail01">
      <g id="BoxexRed-BoxL">
        <path d="M8.999 0L17.8976 0Q18.1185 0 18.3391 0.0108397Q18.5598 0.0216794 18.7796 0.0433326Q18.9995 0.0649859 19.218 0.0974006Q19.4365 0.129815 19.6532 0.172913Q19.8698 0.216011 20.0841 0.269689Q20.2984 0.323366 20.5098 0.387494Q20.7212 0.451622 20.9292 0.526045Q21.1372 0.600468 21.3413 0.685008Q21.5454 0.769548 21.7451 0.864Q21.9448 0.958453 22.1397 1.06259Q22.3345 1.16673 22.524 1.2803Q22.7134 1.39387 22.8971 1.5166Q23.0808 1.63934 23.2582 1.77094Q23.4357 1.90253 23.6065 2.04268Q23.7772 2.18282 23.9409 2.33118Q24.1046 2.47954 24.2608 2.63575Q24.417 2.79195 24.5654 2.95564Q24.7137 3.11933 24.8539 3.29009Q24.994 3.46086 25.1256 3.6383Q25.2572 3.81574 25.3799 3.99942Q25.5027 4.1831 25.6162 4.37259Q25.7298 4.56207 25.834 4.7569Q25.9381 4.95173 26.0325 5.15143Q26.127 5.35113 26.2115 5.55523Q26.2961 5.75933 26.3705 5.96733Q26.4449 6.17533 26.5091 6.38673Q26.5732 6.59813 26.6269 6.81242Q26.6805 7.02671 26.7236 7.24338Q26.7667 7.46005 26.7992 7.67857Q26.8316 7.89709 26.8532 8.11694Q26.8749 8.33679 26.8857 8.55744Q26.8966 8.77809 26.8966 8.999L26.8966 16.001Q26.8966 16.2219 26.8857 16.4426Q26.8749 16.6632 26.8532 16.8831Q26.8316 17.1029 26.7991 17.3214Q26.7667 17.5399 26.7236 17.7566Q26.6805 17.9733 26.6269 18.1876Q26.5732 18.4019 26.5091 18.6133Q26.4449 18.8247 26.3705 19.0327Q26.2961 19.2407 26.2115 19.4448Q26.127 19.6489 26.0325 19.8486Q25.9381 20.0483 25.834 20.2431Q25.7298 20.4379 25.6162 20.6274Q25.5027 20.8169 25.3799 21.0006Q25.2572 21.1843 25.1256 21.3617Q24.994 21.5391 24.8539 21.7099Q24.7137 21.8807 24.5654 22.0444Q24.417 22.208 24.2608 22.3643Q24.1046 22.5205 23.9409 22.6688Q23.7772 22.8172 23.6065 22.9573Q23.4357 23.0975 23.2582 23.2291Q23.0808 23.3607 22.8971 23.4834Q22.7134 23.6061 22.524 23.7197Q22.3345 23.8333 22.1397 23.9374Q21.9448 24.0415 21.7451 24.136Q21.5454 24.2304 21.3413 24.315Q21.1372 24.3995 20.9292 24.474Q20.7212 24.5484 20.5098 24.6125Q20.2984 24.6766 20.0841 24.7303Q19.8698 24.784 19.6532 24.8271Q19.4365 24.8702 19.218 24.9026Q18.9995 24.935 18.7796 24.9567Q18.5598 24.9783 18.3391 24.9892Q18.1185 25 17.8976 25L8.999 25Q8.77809 25 8.55744 24.9892Q8.33679 24.9783 8.11694 24.9567Q7.89709 24.935 7.67857 24.9026Q7.46005 24.8702 7.24338 24.8271Q7.02671 24.784 6.81242 24.7303Q6.59813 24.6766 6.38673 24.6125Q6.17533 24.5484 5.96733 24.474Q5.75933 24.3995 5.55523 24.315Q5.35113 24.2304 5.15143 24.136Q4.95173 24.0415 4.7569 23.9374Q4.56207 23.8333 4.37259 23.7197Q4.1831 23.6061 3.99942 23.4834Q3.81574 23.3607 3.6383 23.2291Q3.46086 23.0975 3.29009 22.9573Q3.11933 22.8172 2.95564 22.6688Q2.79195 22.5205 2.63575 22.3643Q2.47954 22.208 2.33118 22.0444Q2.18282 21.8807 2.04268 21.7099Q1.90253 21.5391 1.77094 21.3617Q1.63934 21.1843 1.5166 21.0006Q1.39387 20.8169 1.2803 20.6274Q1.16673 20.4379 1.06259 20.2431Q0.958453 20.0483 0.864 19.8486Q0.769548 19.6489 0.685008 19.4448Q0.600468 19.2407 0.526045 19.0327Q0.451622 18.8247 0.387494 18.6133Q0.323366 18.4019 0.269689 18.1876Q0.216011 17.9733 0.172913 17.7566Q0.129815 17.5399 0.0974006 17.3214Q0.0649859 17.1029 0.0433326 16.8831Q0.0216794 16.6632 0.0108397 16.4426Q0 16.2219 0 16.001L0 8.999Q0 8.77809 0.0108397 8.55744Q0.0216794 8.33679 0.0433326 8.11694Q0.0649859 7.89709 0.0974006 7.67857Q0.129815 7.46005 0.172913 7.24338Q0.216011 7.02671 0.269689 6.81242Q0.323366 6.59813 0.387494 6.38673Q0.451622 6.17533 0.526045 5.96733Q0.600468 5.75933 0.685008 5.55523Q0.769548 5.35113 0.864 5.15143Q0.958453 4.95173 1.06259 4.7569Q1.16673 4.56207 1.2803 4.37259Q1.39387 4.1831 1.5166 3.99942Q1.63934 3.81574 1.77094 3.6383Q1.90253 3.46086 2.04268 3.29009Q2.18282 3.11933 2.33118 2.95564Q2.47954 2.79195 2.63575 2.63575Q2.79195 2.47954 2.95564 2.33118Q3.11933 2.18282 3.29009 2.04268Q3.46086 1.90253 3.6383 1.77094Q3.81574 1.63934 3.99942 1.5166Q4.1831 1.39387 4.37259 1.2803Q4.56207 1.16673 4.7569 1.06259Q4.95173 0.958453 5.15143 0.864Q5.35113 0.769548 5.55523 0.685008Q5.75933 0.600468 5.96733 0.526045Q6.17533 0.451622 6.38673 0.387494Q6.59813 0.323366 6.81242 0.269689Q7.02671 0.216011 7.24338 0.172913Q7.46005 0.129815 7.67857 0.0974006Q7.89709 0.0649859 8.11694 0.0433326Q8.33679 0.0216794 8.55744 0.0108397Q8.77809 0 8.999 0L8.999 0Z" id="Red-BoxL" fill="none" fill-rule="evenodd" stroke="#F64100" stroke-width="2" stroke-linecap="round" stroke-linejoin="round" />
      </g>
      <g id="00" fill="#FFFFFF" fill-opacity="0.4187128" transform="translate(5 4)">
        <path d="M2.0142 13.9148Q3.07386 15.4773 5 15.4773Q6.92614 15.4773 7.9858 13.9148Q9.04545 12.3523 9.04545 9.5Q9.04545 6.67046 7.97727 5.09659Q6.90909 3.52273 5 3.52273Q3.09091 3.52273 2.02273 5.09659Q0.954545 6.67045 0.954545 9.5Q0.954545 12.3523 2.0142 13.9148ZM12.0142 13.9148Q13.0739 15.4773 15 15.4773Q16.9261 15.4773 17.9858 13.9148Q19.0455 12.3523 19.0455 9.5Q19.0455 6.67046 17.9773 5.09659Q16.9091 3.52273 15 3.52273Q13.0909 3.52273 12.0227 5.09659Q10.9545 6.67045 10.9545 9.5Q10.9545 12.3523 12.0142 13.9148ZM6.97727 13Q6.27273 14.2273 5 14.2273Q3.73295 14.2273 3.02557 13Q2.31818 11.7727 2.31818 9.5Q2.31818 7.23295 3.02841 5.99148Q3.73864 4.75 5 4.75Q6.26136 4.75 6.97159 5.99148Q7.68182 7.23295 7.68182 9.5Q7.68182 11.7727 6.97727 13ZM16.9773 13Q16.2727 14.2273 15 14.2273Q13.733 14.2273 13.0256 13Q12.3182 11.7727 12.3182 9.5Q12.3182 7.23295 13.0284 5.99148Q13.7386 4.75 15 4.75Q16.2614 4.75 16.9716 5.99148Q17.6818 7.23295 17.6818 9.5Q17.6818 11.7727 16.9773 13Z" />
      </g>
    </g>
  </g>
</svg>