<?xml version="1.0" encoding="utf-8"?>
<svg width="39px" height="50px" viewBox="0 0 39 50" version="1.1" xmlns:xlink="http://www.w3.org/1999/xlink" xmlns="http://www.w3.org/2000/svg">
  <g id="Order-Big-Thumbnail-01">
    <g id="Order-Big-Thumbnail-01">
      <path d="M8.999 0L30.001 0Q30.2219 0 30.4426 0.0108397Q30.6632 0.0216794 30.8831 0.0433326Q31.1029 0.0649859 31.3214 0.0974006Q31.5399 0.129815 31.7566 0.172913Q31.9733 0.216011 32.1876 0.269689Q32.4019 0.323366 32.6133 0.387494Q32.8247 0.451622 33.0327 0.526045Q33.2407 0.600468 33.4448 0.685008Q33.6489 0.769548 33.8486 0.864Q34.0483 0.958453 34.2431 1.06259Q34.4379 1.16673 34.6274 1.2803Q34.8169 1.39387 35.0006 1.5166Q35.1843 1.63934 35.3617 1.77094Q35.5391 1.90253 35.7099 2.04268Q35.8807 2.18282 36.0444 2.33118Q36.208 2.47954 36.3643 2.63575Q36.5205 2.79195 36.6688 2.95564Q36.8172 3.11933 36.9573 3.29009Q37.0975 3.46086 37.2291 3.6383Q37.3607 3.81574 37.4834 3.99942Q37.6061 4.1831 37.7197 4.37259Q37.8333 4.56207 37.9374 4.7569Q38.0415 4.95173 38.136 5.15143Q38.2304 5.35113 38.315 5.55523Q38.3995 5.75933 38.4739 5.96733Q38.5484 6.17533 38.6125 6.38673Q38.6766 6.59813 38.7303 6.81242Q38.784 7.02671 38.8271 7.24338Q38.8702 7.46005 38.9026 7.67857Q38.935 7.89709 38.9567 8.11694Q38.9783 8.33679 38.9892 8.55744Q39 8.77809 39 8.999L39 41.001Q39 41.2219 38.9892 41.4426Q38.9783 41.6632 38.9567 41.8831Q38.935 42.1029 38.9026 42.3214Q38.8702 42.5399 38.8271 42.7566Q38.784 42.9733 38.7303 43.1876Q38.6766 43.4019 38.6125 43.6133Q38.5484 43.8247 38.4739 44.0327Q38.3995 44.2407 38.315 44.4448Q38.2304 44.6489 38.136 44.8486Q38.0415 45.0483 37.9374 45.2431Q37.8333 45.4379 37.7197 45.6274Q37.6061 45.8169 37.4834 46.0006Q37.3607 46.1843 37.2291 46.3617Q37.0975 46.5391 36.9573 46.7099Q36.8172 46.8807 36.6688 47.0444Q36.5205 47.208 36.3643 47.3643Q36.208 47.5205 36.0444 47.6688Q35.8807 47.8172 35.7099 47.9573Q35.5391 48.0975 35.3617 48.2291Q35.1843 48.3607 35.0006 48.4834Q34.8169 48.6061 34.6274 48.7197Q34.4379 48.8333 34.2431 48.9374Q34.0483 49.0415 33.8486 49.136Q33.6489 49.2304 33.4448 49.315Q33.2407 49.3995 33.0327 49.4739Q32.8247 49.5484 32.6133 49.6125Q32.4019 49.6766 32.1876 49.7303Q31.9733 49.784 31.7566 49.8271Q31.5399 49.8702 31.3214 49.9026Q31.1029 49.935 30.8831 49.9567Q30.6632 49.9783 30.4426 49.9892Q30.2219 50 30.001 50L8.999 50Q8.77809 50 8.55744 49.9892Q8.33679 49.9783 8.11694 49.9567Q7.89709 49.935 7.67857 49.9026Q7.46005 49.8702 7.24338 49.8271Q7.02671 49.784 6.81242 49.7303Q6.59813 49.6766 6.38673 49.6125Q6.17533 49.5484 5.96733 49.474Q5.75933 49.3995 5.55523 49.315Q5.35113 49.2304 5.15143 49.136Q4.95173 49.0415 4.7569 48.9374Q4.56207 48.8333 4.37259 48.7197Q4.1831 48.6061 3.99942 48.4834Q3.81574 48.3607 3.6383 48.2291Q3.46086 48.0975 3.29009 47.9573Q3.11933 47.8172 2.95564 47.6688Q2.79195 47.5205 2.63575 47.3643Q2.47954 47.208 2.33118 47.0444Q2.18282 46.8807 2.04268 46.7099Q1.90253 46.5391 1.77094 46.3617Q1.63934 46.1843 1.5166 46.0006Q1.39387 45.8169 1.2803 45.6274Q1.16673 45.4379 1.06259 45.2431Q0.958453 45.0483 0.864 44.8486Q0.769548 44.6489 0.685008 44.4448Q0.600468 44.2407 0.526045 44.0327Q0.451622 43.8247 0.387494 43.6133Q0.323366 43.4019 0.269689 43.1876Q0.216011 42.9733 0.172913 42.7566Q0.129815 42.5399 0.0974006 42.3214Q0.0649859 42.1029 0.0433326 41.8831Q0.0216794 41.6632 0.0108397 41.4426Q0 41.2219 0 41.001L0 8.999Q0 8.77809 0.0108397 8.55744Q0.0216794 8.33679 0.0433326 8.11694Q0.0649859 7.89709 0.0974006 7.67857Q0.129815 7.46005 0.172913 7.24338Q0.216011 7.02671 0.269689 6.81242Q0.323366 6.59813 0.387494 6.38673Q0.451622 6.17533 0.526045 5.96733Q0.600468 5.75933 0.685008 5.55523Q0.769548 5.35113 0.864 5.15143Q0.958453 4.95173 1.06259 4.7569Q1.16673 4.56207 1.2803 4.37259Q1.39387 4.1831 1.5166 3.99942Q1.63934 3.81574 1.77094 3.6383Q1.90253 3.46086 2.04268 3.29009Q2.18282 3.11933 2.33118 2.95564Q2.47954 2.79195 2.63575 2.63575Q2.79195 2.47954 2.95564 2.33118Q3.11933 2.18282 3.29009 2.04268Q3.46086 1.90253 3.6383 1.77094Q3.81574 1.63934 3.99942 1.5166Q4.1831 1.39387 4.37259 1.2803Q4.56207 1.16673 4.7569 1.06259Q4.95173 0.958453 5.15143 0.864Q5.35113 0.769548 5.55523 0.685008Q5.75933 0.600468 5.96733 0.526045Q6.17533 0.451622 6.38673 0.387494Q6.59813 0.323366 6.81242 0.269689Q7.02671 0.216011 7.24338 0.172913Q7.46005 0.129815 7.67857 0.0974006Q7.89709 0.0649859 8.11694 0.0433326Q8.33679 0.0216794 8.55744 0.0108397Q8.77809 0 8.999 0Z" id="Blue-BoxL" fill="none" fill-rule="evenodd" stroke="#5E7DBC" stroke-width="2" stroke-linejoin="round" />
      <g id="000" fill="#FFFFFF" fill-opacity="0.4187128" transform="translate(6 13)">
        <path d="M5 15.4773Q3.07386 15.4773 2.0142 13.9148Q0.954545 12.3523 0.954545 9.5Q0.954545 6.67045 2.02273 5.09659Q3.09091 3.52273 5 3.52273Q6.90909 3.52273 7.97727 5.09659Q9.04545 6.67046 9.04545 9.5Q9.04545 12.3523 7.9858 13.9148Q6.92614 15.4773 5 15.4773ZM15 15.4773Q13.0739 15.4773 12.0142 13.9148Q10.9545 12.3523 10.9545 9.5Q10.9545 6.67045 12.0227 5.09659Q13.0909 3.52273 15 3.52273Q16.9091 3.52273 17.9773 5.09659Q19.0455 6.67046 19.0455 9.5Q19.0455 12.3523 17.9858 13.9148Q16.9261 15.4773 15 15.4773ZM22.0142 13.9148Q23.0739 15.4773 25 15.4773Q26.9261 15.4773 27.9858 13.9148Q29.0455 12.3523 29.0455 9.5Q29.0455 6.67046 27.9773 5.09659Q26.9091 3.52273 25 3.52273Q23.0909 3.52273 22.0227 5.09659Q20.9545 6.67045 20.9545 9.5Q20.9545 12.3523 22.0142 13.9148ZM5 14.2273Q6.27273 14.2273 6.97727 13Q7.68182 11.7727 7.68182 9.5Q7.68182 7.23295 6.97159 5.99148Q6.26136 4.75 5 4.75Q3.73864 4.75 3.02841 5.99148Q2.31818 7.23295 2.31818 9.5Q2.31818 11.7727 3.02557 13Q3.73295 14.2273 5 14.2273ZM15 14.2273Q16.2727 14.2273 16.9773 13Q17.6818 11.7727 17.6818 9.5Q17.6818 7.23295 16.9716 5.99148Q16.2614 4.75 15 4.75Q13.7386 4.75 13.0284 5.99148Q12.3182 7.23295 12.3182 9.5Q12.3182 11.7727 13.0256 13Q13.733 14.2273 15 14.2273ZM26.9773 13Q26.2727 14.2273 25 14.2273Q23.733 14.2273 23.0256 13Q22.3182 11.7727 22.3182 9.5Q22.3182 7.23295 23.0284 5.99148Q23.7386 4.75 25 4.75Q26.2614 4.75 26.9716 5.99148Q27.6818 7.23295 27.6818 9.5Q27.6818 11.7727 26.9773 13Z" />
      </g>
      <g id="Items" fill="#FFFFFF" fill-opacity="0.60385627" transform="translate(5 28)">
        <path d="M2.11364 3.13636L2.11364 11.8636L1.05682 11.8636L1.05682 3.13636L2.11364 3.13636ZM6.9375 5.31818L6.9375 6.17045L5.53977 6.17045L5.53977 9.98864Q5.53977 10.4148 5.66548 10.6257Q5.79119 10.8366 5.98935 10.907Q6.1875 10.9773 6.40909 10.9773Q6.57528 10.9773 6.68182 10.9581Q6.78835 10.9389 6.85227 10.9261L7.05682 11.8295Q6.95455 11.8679 6.77131 11.9084Q6.58807 11.9489 6.30682 11.9489Q5.88068 11.9489 5.47372 11.7656Q5.06676 11.5824 4.80043 11.2074Q4.53409 10.8324 4.53409 10.2614L4.53409 6.17045L3.54545 6.17045L3.54545 5.31818L4.53409 5.31818L4.53409 3.75L5.53977 3.75L5.53977 5.31818L6.9375 5.31818ZM9.56889 11.5803Q10.2528 12 11.1989 12Q12.196 12 12.8864 11.544Q13.5767 11.0881 13.8068 10.3466L12.8352 10.0739Q12.6435 10.5852 12.2173 10.8409Q11.7912 11.0966 11.1989 11.0966Q10.3125 11.0966 9.75213 10.5384Q9.19176 9.98011 9.15767 8.93182L13.9091 8.93182L13.9091 8.50568Q13.9091 7.58949 13.6662 6.96307Q13.4233 6.33665 13.0142 5.95526Q12.6051 5.57386 12.1065 5.40341Q11.608 5.23295 11.0966 5.23295Q10.2102 5.23295 9.54759 5.66548Q8.88494 6.09801 8.51634 6.86719Q8.14773 7.63636 8.14773 8.64205Q8.14773 9.64773 8.51634 10.4041Q8.88494 11.1605 9.56889 11.5803ZM15.4432 11.8636L15.4432 5.31818L16.4148 5.31818L16.4148 6.34091L16.5 6.34091Q16.7045 5.81676 17.1605 5.52486Q17.6165 5.23295 18.2557 5.23295Q18.9034 5.23295 19.3359 5.52486Q19.7685 5.81676 20.0114 6.34091L20.0795 6.34091Q20.331 5.83381 20.8338 5.53338Q21.3366 5.23295 22.0398 5.23295Q22.9176 5.23295 23.4759 5.78054Q24.0341 6.32813 24.0341 7.48295L24.0341 11.8636L23.0284 11.8636L23.0284 7.48295Q23.0284 6.75852 22.6321 6.44744Q22.2358 6.13636 21.6989 6.13636Q21.0085 6.13636 20.6293 6.55185Q20.25 6.96733 20.25 7.60227L20.25 11.8636L19.2273 11.8636L19.2273 7.38068Q19.2273 6.82244 18.8651 6.4794Q18.5028 6.13636 17.9318 6.13636Q17.5398 6.13636 17.201 6.34517Q16.8622 6.55398 16.6555 6.92258Q16.4489 7.29119 16.4489 7.77273L16.4489 11.8636L15.4432 11.8636ZM29.608 7.03977L30.5114 6.78409Q30.277 6.08523 29.7209 5.65909Q29.1648 5.23295 28.1932 5.23295Q27.5028 5.23295 26.9595 5.47585Q26.4162 5.71875 26.103 6.14489Q25.7898 6.57102 25.7898 7.125Q25.7898 7.80256 26.2095 8.25213Q26.6293 8.7017 27.5284 8.91477L28.6193 9.17045Q29.5909 9.39631 29.5909 10.0909Q29.5909 10.5128 29.1754 10.8132Q28.7599 11.1136 28.0568 11.1136Q26.8082 11.1136 26.5398 10.0568L25.5852 10.2955Q25.7599 11.1307 26.4162 11.5653Q27.0724 12 28.0739 12Q28.8366 12 29.4119 11.7443Q29.9872 11.4886 30.3089 11.0455Q30.6307 10.6023 30.6307 10.0398Q30.6307 8.69318 28.892 8.26705L27.9205 8.02841Q27.3409 7.88352 27.0682 7.66619Q26.7955 7.44886 26.7955 7.07386Q26.7955 6.65199 27.1939 6.37713Q27.5923 6.10227 28.1932 6.10227Q28.8537 6.10227 29.1648 6.40057Q29.4759 6.69886 29.608 7.03977ZM12.8864 8.0625L9.15767 8.0625Q9.19176 7.5554 9.43466 7.11435Q9.67756 6.6733 10.0994 6.40483Q10.5213 6.13636 11.0966 6.13636Q11.9148 6.13636 12.4006 6.68395Q12.8864 7.23153 12.8864 8.0625Z" />
      </g>
    </g>
  </g>
</svg>