<?xml version="1.0" encoding="utf-8"?>
<svg width="22px" height="17px" viewBox="0 0 22 17" version="1.1" xmlns:xlink="http://www.w3.org/1999/xlink" xmlns="http://www.w3.org/2000/svg">
  <path d="M1.999 0C6.56848 0 17.3864 0 17.3864 0C18.4489 0 19.3182 0.830966 19.3182 1.84659C19.3182 1.84659 19.3182 12.9261 19.3182 12.9261C19.3182 13.9418 18.4489 14.7727 17.3864 14.7727C17.3864 14.7727 1.93182 14.7727 1.93182 14.7727C0.869318 14.7727 0 13.9418 0 12.9261C0 12.9261 0 8.57003 0 5.3385C0 3.86908 -0.219684 2.63219 -0.359374 1.72018C-0.526524 0.628887 0.894983 0 1.999 0Z" transform="matrix(-1 0 0 1 20.318176 1)" id="Path" fill="none" fill-rule="evenodd" stroke="#737781" stroke-width="2" stroke-linecap="round" stroke-linejoin="round" />
</svg>