<?xml version="1.0" encoding="utf-8"?>
<svg width="63px" height="33px" viewBox="0 0 63 33" version="1.1" xmlns:xlink="http://www.w3.org/1999/xlink" xmlns="http://www.w3.org/2000/svg">
  <g id="Switch-to-Ligh">
    <g id="Group-5">
      <path d="M16.499 0L46.501 0Q46.906 0 47.3106 0.0198738Q47.7151 0.0397475 48.1182 0.0794472Q48.5213 0.119147 48.9219 0.178577Q49.3225 0.238007 49.7198 0.317024Q50.117 0.396041 50.5099 0.494454Q50.9028 0.592868 51.2904 0.710441Q51.678 0.828015 52.0593 0.964464Q52.4407 1.10091 52.8149 1.25591Q53.1891 1.41091 53.5552 1.58408Q53.9214 1.75725 54.2786 1.94818Q54.6358 2.13911 54.9832 2.34734Q55.3306 2.55556 55.6673 2.78058Q56.0041 3.0056 56.3294 3.24688Q56.6548 3.48815 56.9678 3.7451Q57.2809 4.00205 57.5811 4.27405Q57.8812 4.54605 58.1675 4.83245Q58.4539 5.11884 58.7259 5.41895Q58.9979 5.71905 59.2549 6.03215Q59.5118 6.34524 59.7531 6.67056Q59.9944 6.99588 60.2194 7.33265Q60.4444 7.66941 60.6527 8.01682Q60.8609 8.36422 61.0518 8.72143Q61.2427 9.07863 61.4159 9.44477Q61.5891 9.81091 61.7441 10.1851Q61.8991 10.5593 62.0355 10.9407Q62.172 11.322 62.2896 11.7096Q62.4071 12.0972 62.5055 12.4901Q62.604 12.883 62.683 13.2802Q62.762 13.6774 62.8214 14.0781Q62.8808 14.4787 62.9206 14.8818Q62.9603 15.2849 62.9801 15.6894Q63 16.094 63 16.499L63 16.501Q63 16.906 62.9801 17.3106Q62.9603 17.7151 62.9206 18.1182Q62.8808 18.5213 62.8214 18.9219Q62.762 19.3225 62.683 19.7198Q62.604 20.117 62.5055 20.5099Q62.4071 20.9028 62.2896 21.2904Q62.172 21.678 62.0355 22.0593Q61.8991 22.4407 61.7441 22.8149Q61.5891 23.1891 61.4159 23.5552Q61.2427 23.9214 61.0518 24.2786Q60.8609 24.6358 60.6527 24.9832Q60.4444 25.3306 60.2194 25.6673Q59.9944 26.0041 59.7531 26.3294Q59.5118 26.6548 59.2549 26.9679Q58.998 27.2809 58.726 27.581Q58.4539 27.8812 58.1676 28.1676Q57.8812 28.4539 57.5811 28.726Q57.2809 28.998 56.9678 29.2549Q56.6548 29.5118 56.3294 29.7531Q56.0041 29.9944 55.6673 30.2194Q55.3306 30.4444 54.9832 30.6527Q54.6358 30.8609 54.2786 31.0518Q53.9214 31.2427 53.5552 31.4159Q53.1891 31.5891 52.8149 31.7441Q52.4407 31.8991 52.0593 32.0355Q51.678 32.172 51.2904 32.2896Q50.9028 32.4071 50.5099 32.5055Q50.117 32.604 49.7198 32.683Q49.3225 32.762 48.9219 32.8214Q48.5213 32.8809 48.1182 32.9206Q47.7151 32.9603 47.3106 32.9801Q46.906 33 46.501 33L16.499 33Q16.094 33 15.6894 32.9801Q15.2849 32.9603 14.8818 32.9206Q14.4787 32.8809 14.0781 32.8214Q13.6774 32.762 13.2802 32.683Q12.883 32.604 12.4901 32.5055Q12.0972 32.4071 11.7096 32.2896Q11.322 32.172 10.9407 32.0355Q10.5593 31.8991 10.1851 31.7441Q9.81091 31.5891 9.44477 31.4159Q9.07863 31.2427 8.72143 31.0518Q8.36422 30.8609 8.01682 30.6527Q7.66941 30.4444 7.33265 30.2194Q6.99588 29.9944 6.67056 29.7531Q6.34524 29.5118 6.03215 29.2549Q5.71905 28.998 5.41895 28.726Q5.11884 28.454 4.83245 28.1676Q4.54605 27.8812 4.27405 27.5811Q4.00205 27.2809 3.7451 26.9679Q3.48815 26.6548 3.24688 26.3294Q3.0056 26.0041 2.78058 25.6674Q2.55556 25.3306 2.34734 24.9832Q2.13911 24.6358 1.94818 24.2786Q1.75725 23.9214 1.58408 23.5552Q1.41091 23.1891 1.25591 22.8149Q1.10091 22.4407 0.964464 22.0593Q0.828015 21.678 0.710441 21.2904Q0.592868 20.9028 0.494454 20.5099Q0.396041 20.117 0.317024 19.7198Q0.238007 19.3225 0.178577 18.9219Q0.119147 18.5213 0.0794472 18.1182Q0.0397475 17.7151 0.0198738 17.3106Q0 16.906 0 16.501L0 16.499Q0 16.094 0.0198738 15.6894Q0.0397475 15.2849 0.0794472 14.8818Q0.119147 14.4787 0.178577 14.0781Q0.238007 13.6774 0.317024 13.2802Q0.396041 12.883 0.494454 12.4901Q0.592868 12.0972 0.710441 11.7096Q0.828015 11.322 0.964464 10.9407Q1.10091 10.5593 1.25591 10.1851Q1.41091 9.81091 1.58408 9.44477Q1.75725 9.07863 1.94818 8.72143Q2.13911 8.36422 2.34734 8.01682Q2.55556 7.66941 2.78058 7.33265Q3.0056 6.99588 3.24688 6.67056Q3.48815 6.34524 3.7451 6.03215Q4.00205 5.71905 4.27405 5.41895Q4.54605 5.11884 4.83245 4.83245Q5.11884 4.54605 5.41895 4.27405Q5.71905 4.00205 6.03215 3.7451Q6.34524 3.48815 6.67056 3.24688Q6.99588 3.0056 7.33265 2.78058Q7.66941 2.55556 8.01682 2.34734Q8.36422 2.13911 8.72143 1.94818Q9.07863 1.75725 9.44477 1.58408Q9.81091 1.41091 10.1851 1.25591Q10.5593 1.10091 10.9407 0.964464Q11.322 0.828015 11.7096 0.710441Q12.0972 0.592868 12.4901 0.494454Q12.883 0.396041 13.2802 0.317024Q13.6774 0.238007 14.0781 0.178577Q14.4787 0.119147 14.8818 0.0794472Q15.2849 0.0397475 15.6894 0.0198738Q16.094 0 16.499 0Z" id="Main-back" fill="#22292E" fill-opacity="0.93191314" fill-rule="evenodd" stroke="none" />
      <path d="M13.499 0L13.501 0Q13.8324 0 14.1634 0.0162601Q14.4943 0.0325203 14.8241 0.0650014Q15.1539 0.0974825 15.4817 0.146106Q15.8095 0.19473 16.1345 0.259379Q16.4595 0.324029 16.781 0.404548Q17.1024 0.485067 17.4196 0.581262Q17.7367 0.677457 18.0487 0.789096Q18.3607 0.900736 18.6668 1.02755Q18.973 1.15436 19.2726 1.29605Q19.5721 1.43773 19.8644 1.59394Q20.1566 1.75016 20.4409 1.92052Q20.7251 2.09089 21.0006 2.27499Q21.2762 2.4591 21.5423 2.6565Q21.8085 2.85391 22.0647 3.06413Q22.3208 3.27436 22.5664 3.4969Q22.8119 3.71944 23.0462 3.95377Q23.2806 4.18809 23.5031 4.43363Q23.7256 4.67916 23.9359 4.93532Q24.1461 5.19149 24.3435 5.45765Q24.5409 5.72382 24.725 5.99936Q24.9091 6.27489 25.0795 6.55913Q25.2498 6.84336 25.4061 7.13562Q25.5623 7.42787 25.7039 7.72743Q25.8456 8.027 25.9724 8.33316Q26.0993 8.63931 26.2109 8.95132Q26.3225 9.26333 26.4187 9.58045Q26.5149 9.89756 26.5954 10.219Q26.676 10.5405 26.7406 10.8655Q26.8053 11.1905 26.8539 11.5183Q26.9025 11.8461 26.935 12.1759Q26.9675 12.5057 26.9837 12.8366Q27 13.1676 27 13.499L27 13.501Q27 13.8324 26.9837 14.1634Q26.9675 14.4943 26.935 14.8241Q26.9025 15.1539 26.8539 15.4817Q26.8053 15.8095 26.7406 16.1345Q26.676 16.4595 26.5954 16.781Q26.5149 17.1024 26.4187 17.4196Q26.3225 17.7367 26.2109 18.0487Q26.0993 18.3607 25.9724 18.6668Q25.8456 18.973 25.7039 19.2726Q25.5623 19.5721 25.4061 19.8644Q25.2498 20.1566 25.0795 20.4409Q24.9091 20.7251 24.725 21.0006Q24.5409 21.2762 24.3435 21.5423Q24.1461 21.8085 23.9359 22.0647Q23.7256 22.3208 23.5031 22.5664Q23.2806 22.8119 23.0462 23.0462Q22.8119 23.2806 22.5664 23.5031Q22.3208 23.7256 22.0647 23.9359Q21.8085 24.1461 21.5423 24.3435Q21.2762 24.5409 21.0006 24.725Q20.7251 24.9091 20.4409 25.0795Q20.1566 25.2498 19.8644 25.4061Q19.5721 25.5623 19.2726 25.7039Q18.973 25.8456 18.6668 25.9724Q18.3607 26.0993 18.0487 26.2109Q17.7367 26.3225 17.4196 26.4187Q17.1024 26.5149 16.781 26.5954Q16.4595 26.676 16.1345 26.7406Q15.8095 26.8053 15.4817 26.8539Q15.1539 26.9025 14.8241 26.935Q14.4943 26.9675 14.1634 26.9837Q13.8324 27 13.501 27L13.499 27Q13.1676 27 12.8366 26.9837Q12.5057 26.9675 12.1759 26.935Q11.8461 26.9025 11.5183 26.8539Q11.1905 26.8053 10.8655 26.7406Q10.5405 26.676 10.219 26.5954Q9.89756 26.5149 9.58045 26.4187Q9.26333 26.3225 8.95132 26.2109Q8.63931 26.0993 8.33316 25.9724Q8.027 25.8456 7.72743 25.7039Q7.42787 25.5623 7.13562 25.4061Q6.84336 25.2498 6.55913 25.0795Q6.27489 24.9091 5.99936 24.725Q5.72382 24.5409 5.45765 24.3435Q5.19149 24.1461 4.93533 23.9359Q4.67916 23.7256 4.43363 23.5031Q4.18809 23.2806 3.95377 23.0462Q3.71944 22.8119 3.4969 22.5664Q3.27436 22.3208 3.06413 22.0647Q2.85391 21.8085 2.6565 21.5423Q2.4591 21.2762 2.27499 21.0006Q2.09089 20.7251 1.92052 20.4409Q1.75016 20.1566 1.59394 19.8644Q1.43773 19.5721 1.29605 19.2726Q1.15436 18.973 1.02755 18.6668Q0.900736 18.3607 0.789096 18.0487Q0.677457 17.7367 0.581262 17.4196Q0.485067 17.1024 0.404548 16.781Q0.324029 16.4595 0.259379 16.1345Q0.19473 15.8095 0.146106 15.4817Q0.0974825 15.1539 0.0650014 14.8241Q0.0325203 14.4943 0.0162601 14.1634Q0 13.8324 0 13.501L0 13.499Q0 13.1676 0.0162601 12.8366Q0.0325203 12.5057 0.0650014 12.1759Q0.0974825 11.8461 0.146106 11.5183Q0.19473 11.1905 0.259379 10.8655Q0.324029 10.5405 0.404548 10.219Q0.485067 9.89756 0.581262 9.58045Q0.677457 9.26333 0.789096 8.95132Q0.900736 8.63931 1.02755 8.33316Q1.15436 8.027 1.29605 7.72743Q1.43773 7.42787 1.59394 7.13562Q1.75016 6.84336 1.92052 6.55913Q2.09089 6.27489 2.27499 5.99936Q2.4591 5.72382 2.6565 5.45765Q2.85391 5.19149 3.06413 4.93533Q3.27436 4.67916 3.4969 4.43363Q3.71944 4.18809 3.95377 3.95377Q4.18809 3.71944 4.43363 3.4969Q4.67916 3.27436 4.93532 3.06413Q5.19149 2.85391 5.45765 2.6565Q5.72382 2.4591 5.99936 2.27499Q6.27489 2.09089 6.55913 1.92052Q6.84336 1.75016 7.13562 1.59394Q7.42787 1.43773 7.72743 1.29605Q8.027 1.15436 8.33316 1.02755Q8.63931 0.900736 8.95132 0.789096Q9.26333 0.677457 9.58045 0.581262Q9.89756 0.485067 10.219 0.404548Q10.5405 0.324029 10.8655 0.259379Q11.1905 0.19473 11.5183 0.146106Q11.8461 0.0974825 12.1759 0.0650014Q12.5057 0.0325203 12.8366 0.0162601Q13.1676 0 13.499 0L13.499 0Z" transform="translate(32 3)" id="Main-back" fill="#16191C" fill-rule="evenodd" stroke="none" />
      <g id="Group-7" transform="translate(38.5 10)">
        <path d="M7.74292 1.74292C7.74292 5.05663 5.05663 7.74292 1.74292 7.74292C1.13675 7.74292 0.551571 7.65303 -7.69623e-06 7.48585C0.746714 9.94954 3.03538 11.7429 5.74292 11.7429C9.05663 11.7429 11.7429 9.05663 11.7429 5.74292C11.7429 3.03538 9.94954 0.746714 7.48585 -1.00282e-05C7.65303 0.551571 7.74292 1.13675 7.74292 1.74292Z" transform="translate(0.75708014 0.2570801)" id="Combined-Shape" fill="none" fill-rule="evenodd" stroke="#FFFFFF" stroke-width="1" stroke-linejoin="round" />
      </g>
    </g>
  </g>
</svg>