<?xml version="1.0" encoding="utf-8"?>
<svg width="34px" height="34px" viewBox="0 0 34 34" version="1.1" xmlns:xlink="http://www.w3.org/1999/xlink" xmlns="http://www.w3.org/2000/svg">
  <g id="Add-2">
    <g id="Add-2">
      <g id="Add-on-items">
        <path d="M16.999 0L17.001 0Q17.4183 0 17.8351 0.020476Q18.2519 0.0409521 18.6672 0.0818548Q19.0825 0.122758 19.4953 0.183988Q19.9081 0.245219 20.3173 0.326631Q20.7266 0.408043 21.1314 0.509439Q21.5362 0.610835 21.9355 0.731971Q22.3349 0.853108 22.7278 0.993692Q23.1207 1.13428 23.5062 1.29397Q23.8918 1.45367 24.269 1.63209Q24.6462 1.81051 25.0143 2.00722Q25.3823 2.20394 25.7402 2.41847Q26.0982 2.63301 26.4451 2.86485Q26.7921 3.09669 27.1273 3.34528Q27.4625 3.59386 27.785 3.8586Q28.1076 4.12333 28.4168 4.40357Q28.726 4.68382 29.0211 4.97889Q29.3162 5.27397 29.5964 5.58317Q29.8767 5.89237 30.1414 6.21495Q30.4061 6.53753 30.6547 6.87271Q30.9033 7.20789 31.1351 7.55486Q31.367 7.90183 31.5815 8.25977Q31.7961 8.6177 31.9928 8.98573Q32.1895 9.35375 32.3679 9.73099Q32.5463 10.1082 32.706 10.4938Q32.8657 10.8793 33.0063 11.2722Q33.1469 11.6651 33.268 12.0645Q33.3892 12.4638 33.4906 12.8686Q33.592 13.2734 33.6734 13.6827Q33.7548 14.0919 33.816 14.5047Q33.8772 14.9175 33.9181 15.3328Q33.959 15.7481 33.9795 16.1649Q34 16.5817 34 16.999L34 17.001Q34 17.4183 33.9795 17.8351Q33.959 18.2519 33.9181 18.6672Q33.8772 19.0825 33.816 19.4953Q33.7548 19.9081 33.6734 20.3173Q33.592 20.7266 33.4906 21.1314Q33.3892 21.5362 33.268 21.9355Q33.1469 22.3349 33.0063 22.7278Q32.8657 23.1207 32.706 23.5062Q32.5463 23.8918 32.3679 24.269Q32.1895 24.6462 31.9928 25.0143Q31.7961 25.3823 31.5815 25.7402Q31.367 26.0982 31.1351 26.4451Q30.9033 26.7921 30.6547 27.1273Q30.4061 27.4625 30.1414 27.785Q29.8767 28.1076 29.5964 28.4168Q29.3162 28.726 29.0211 29.0211Q28.726 29.3162 28.4168 29.5964Q28.1076 29.8767 27.7851 30.1414Q27.4625 30.4061 27.1273 30.6547Q26.7921 30.9033 26.4451 31.1351Q26.0982 31.367 25.7402 31.5815Q25.3823 31.7961 25.0143 31.9928Q24.6462 32.1895 24.269 32.3679Q23.8918 32.5463 23.5062 32.706Q23.1207 32.8657 22.7278 33.0063Q22.3349 33.1469 21.9355 33.268Q21.5362 33.3892 21.1314 33.4906Q20.7266 33.592 20.3173 33.6734Q19.9081 33.7548 19.4953 33.816Q19.0825 33.8772 18.6672 33.9181Q18.2519 33.959 17.8351 33.9795Q17.4183 34 17.001 34L16.999 34Q16.5817 34 16.1649 33.9795Q15.7481 33.959 15.3328 33.9181Q14.9175 33.8772 14.5047 33.816Q14.0919 33.7548 13.6827 33.6734Q13.2734 33.592 12.8686 33.4906Q12.4638 33.3892 12.0645 33.268Q11.6651 33.1469 11.2722 33.0063Q10.8793 32.8657 10.4938 32.706Q10.1082 32.5463 9.73099 32.3679Q9.35375 32.1895 8.98573 31.9928Q8.6177 31.7961 8.25977 31.5815Q7.90183 31.367 7.55486 31.1351Q7.20789 30.9033 6.87271 30.6547Q6.53753 30.4061 6.21495 30.1414Q5.89237 29.8767 5.58317 29.5964Q5.27397 29.3162 4.97889 29.0211Q4.68382 28.726 4.40357 28.4168Q4.12333 28.1076 3.8586 27.7851Q3.59386 27.4625 3.34528 27.1273Q3.09669 26.7921 2.86485 26.4451Q2.63301 26.0982 2.41847 25.7402Q2.20394 25.3823 2.00722 25.0143Q1.81051 24.6462 1.63209 24.269Q1.45367 23.8918 1.29397 23.5062Q1.13428 23.1207 0.993692 22.7278Q0.853108 22.3349 0.731971 21.9355Q0.610835 21.5362 0.509439 21.1314Q0.408043 20.7266 0.326631 20.3173Q0.245219 19.9081 0.183988 19.4953Q0.122758 19.0825 0.0818548 18.6672Q0.0409521 18.2519 0.020476 17.8351Q0 17.4183 0 17.001L0 16.999Q0 16.5817 0.020476 16.1649Q0.0409521 15.7481 0.0818548 15.3328Q0.122758 14.9175 0.183988 14.5047Q0.245219 14.0919 0.326631 13.6827Q0.408043 13.2734 0.509439 12.8686Q0.610835 12.4638 0.731971 12.0645Q0.853108 11.6651 0.993692 11.2722Q1.13428 10.8793 1.29397 10.4938Q1.45367 10.1082 1.63209 9.73099Q1.81051 9.35375 2.00722 8.98573Q2.20394 8.6177 2.41847 8.25977Q2.63301 7.90183 2.86485 7.55486Q3.09669 7.20789 3.34528 6.87271Q3.59386 6.53753 3.8586 6.21495Q4.12333 5.89237 4.40357 5.58317Q4.68382 5.27397 4.97889 4.97889Q5.27397 4.68382 5.58317 4.40357Q5.89237 4.12333 6.21495 3.8586Q6.53753 3.59386 6.87271 3.34528Q7.20789 3.09669 7.55486 2.86485Q7.90183 2.63301 8.25977 2.41847Q8.6177 2.20394 8.98573 2.00722Q9.35375 1.81051 9.73099 1.63209Q10.1082 1.45367 10.4938 1.29397Q10.8793 1.13428 11.2722 0.993692Q11.6651 0.853108 12.0645 0.731971Q12.4638 0.610835 12.8686 0.509439Q13.2734 0.408043 13.6827 0.326631Q14.0919 0.245219 14.5047 0.183988Q14.9175 0.122758 15.3328 0.0818548Q15.7481 0.0409521 16.1649 0.020476Q16.5817 0 16.999 0Z" id="Rectangle-Copy" fill="#4880FF" fill-rule="evenodd" stroke="none" />
        <path d="M1.55556 1.36111L1.55556 14.9722" transform="translate(15.444445 9)" id="Line" fill="none" fill-rule="evenodd" stroke="#FFFFFF" stroke-width="2" stroke-linecap="round" stroke-linejoin="round" />
        <path d="M14 1.55556L0 1.55556" transform="translate(10 15.222222)" id="Line" fill="none" fill-rule="evenodd" stroke="#FFFFFF" stroke-width="2" stroke-linecap="round" stroke-linejoin="round" />
      </g>
    </g>
  </g>
</svg>