<?xml version="1.0" encoding="utf-8"?>
<svg width="76px" height="58px" viewBox="0 0 76 58" version="1.1" xmlns:xlink="http://www.w3.org/1999/xlink" xmlns="http://www.w3.org/2000/svg">
  <defs>
    <filter filterUnits="userSpaceOnUse" color-interpolation-filters="sRGB" id="filter_1">
      <feFlood flood-opacity="0" result="BackgroundImageFix" />
      <feColorMatrix in="SourceAlpha" type="matrix" values="0 0 0 0 0 0 0 0 0 0 0 0 0 0 0 0 0 0 127 0" />
      <feOffset dx="2" dy="2" />
      <feGaussianBlur stdDeviation="5.5" />
      <feColorMatrix type="matrix" values="0 0 0 0 0 0 0 0 0 0 0 0 0 0 0 0 0 0 0.64705884 0" />
      <feBlend mode="normal" in2="BackgroundImageFix" result="effect0_dropShadow" />
      <feBlend mode="normal" in="SourceGraphic" in2="effect0_dropShadow" result="shape" />
    </filter>
    <path d="M15.903 0C14.1464 0 12.7224 1.42402 12.7224 3.18065L12.7224 12.7226L3.18063 12.7226C1.42402 12.7226 0 14.1466 0 15.9032C0 17.6599 1.42402 19.0839 3.18063 19.0839L12.7224 19.0839L12.7224 28.6258C12.7224 30.3825 14.1464 31.8065 15.903 31.8065C17.6596 31.8065 19.0836 30.3825 19.0836 28.6258L19.0836 19.0839L28.6258 19.0839C30.3823 19.0839 31.8065 17.6599 31.8065 15.9032C31.8065 14.1466 30.3823 12.7226 28.6258 12.7226L19.0836 12.7226L19.0836 3.18065C19.0836 1.42402 17.6596 0 15.903 0Z" transform="translate(13.096774 13.096774)" id="path_1" />
    <clipPath id="mask_1">
      <use xlink:href="#path_1" />
    </clipPath>
  </defs>
  <g id="Add-Order">
    <g filter="url(#filter_1)">
      <g id="Add-Order">
        <path d="M28.999 0L76 0L76 58L28.999 58Q28.2871 58 27.5761 57.9651Q26.8651 57.9301 26.1566 57.8604Q25.4481 57.7906 24.744 57.6861Q24.0398 57.5817 23.3416 57.4428Q22.6434 57.3039 21.9528 57.1309Q21.2623 56.958 20.581 56.7513Q19.8998 56.5447 19.2295 56.3048Q18.5593 56.065 17.9016 55.7926Q17.2439 55.5201 16.6003 55.2158Q15.9568 54.9114 15.329 54.5758Q14.7011 54.2402 14.0905 53.8743Q13.4799 53.5083 12.888 53.1128Q12.2961 52.7173 11.7243 52.2932Q11.1525 51.8691 10.6022 51.4175Q10.0519 50.9659 9.52446 50.4878Q8.99699 50.0098 8.49361 49.5064Q7.99023 49.003 7.51216 48.4755Q7.03409 47.9481 6.58247 47.3978Q6.13085 46.8475 5.70678 46.2757Q5.28271 45.7039 4.88721 45.112Q4.49171 44.5201 4.12573 43.9095Q3.75975 43.2989 3.42417 42.671Q3.08858 42.0432 2.78421 41.3997Q2.47984 40.7561 2.20742 40.0984Q1.93499 39.4407 1.69516 38.7705Q1.45534 38.1002 1.24869 37.419Q1.04204 36.7377 0.869064 36.0472Q0.69609 35.3566 0.557208 34.6584Q0.418326 33.9602 0.31387 33.256Q0.209415 32.5519 0.139638 31.8434Q0.0698611 31.1349 0.0349306 30.4239Q0 29.7129 0 29.001L0 28.999Q0 28.2871 0.0349306 27.5761Q0.0698611 26.8651 0.139638 26.1566Q0.209415 25.4481 0.31387 24.744Q0.418326 24.0398 0.557208 23.3416Q0.69609 22.6434 0.869064 21.9528Q1.04204 21.2623 1.24869 20.581Q1.45534 19.8998 1.69516 19.2295Q1.93499 18.5593 2.20742 17.9016Q2.47984 17.2439 2.78421 16.6003Q3.08858 15.9568 3.42417 15.329Q3.75975 14.7011 4.12573 14.0905Q4.49171 13.4799 4.88721 12.888Q5.28271 12.2961 5.70679 11.7243Q6.13085 11.1525 6.58247 10.6022Q7.03409 10.0519 7.51216 9.52446Q7.99023 8.99699 8.49361 8.49361Q8.99699 7.99023 9.52446 7.51216Q10.0519 7.03409 10.6022 6.58247Q11.1525 6.13085 11.7243 5.70678Q12.2961 5.28271 12.888 4.88721Q13.4799 4.49171 14.0905 4.12573Q14.7011 3.75975 15.329 3.42417Q15.9568 3.08858 16.6003 2.78421Q17.2439 2.47984 17.9016 2.20742Q18.5593 1.93499 19.2295 1.69516Q19.8998 1.45534 20.581 1.24869Q21.2623 1.04204 21.9528 0.869064Q22.6434 0.69609 23.3416 0.557208Q24.0398 0.418326 24.744 0.31387Q25.4481 0.209415 26.1566 0.139638Q26.8651 0.0698611 27.5761 0.0349306Q28.2871 0 28.999 0Z" id="Rectangle" fill="#4880FF" fill-rule="evenodd" stroke="none" />
        <path d="M15.903 0C14.1464 0 12.7224 1.42402 12.7224 3.18065L12.7224 12.7226L3.18063 12.7226C1.42402 12.7226 0 14.1466 0 15.9032C0 17.6599 1.42402 19.0839 3.18063 19.0839L12.7224 19.0839L12.7224 28.6258C12.7224 30.3825 14.1464 31.8065 15.903 31.8065C17.6596 31.8065 19.0836 30.3825 19.0836 28.6258L19.0836 19.0839L28.6258 19.0839C30.3823 19.0839 31.8065 17.6599 31.8065 15.9032C31.8065 14.1466 30.3823 12.7226 28.6258 12.7226L19.0836 12.7226L19.0836 3.18065C19.0836 1.42402 17.6596 0 15.903 0Z" transform="translate(13.096774 13.096774)" id="plus" fill="#FFFFFF" fill-rule="evenodd" stroke="none" />
      </g>
    </g>
  </g>
</svg>