<?xml version="1.0" encoding="utf-8"?>
<svg width="50px" height="50px" viewBox="0 0 50 50" version="1.1" xmlns:xlink="http://www.w3.org/1999/xlink" xmlns="http://www.w3.org/2000/svg">
  <defs>
    <filter filterUnits="userSpaceOnUse" color-interpolation-filters="sRGB" id="filter_1">
      <feFlood flood-opacity="0" result="BackgroundImageFix" />
      <feColorMatrix in="SourceAlpha" type="matrix" values="0 0 0 0 0 0 0 0 0 0 0 0 0 0 0 0 0 0 127 0" />
      <feOffset dx="0" dy="2" />
      <feGaussianBlur stdDeviation="8" />
      <feColorMatrix type="matrix" values="0 0 0 0 0 0 0 0 0 0 0 0 0 0 0 0 0 0 0.27058825 0" />
      <feBlend mode="normal" in2="BackgroundImageFix" result="effect0_dropShadow" />
      <feBlend mode="normal" in="SourceGraphic" in2="effect0_dropShadow" result="shape" />
    </filter>
    <filter id="filter_2">
      <feColorMatrix in="SourceGraphic" type="matrix" values="0 0 0 0 0.21568628 0 0 0 0 0.25490198 0 0 0 0 0.28235295 0 0 0 1 0" />
    </filter>
    <path d="M24.999 0L25.001 0Q25.6147 0 26.2276 0.0301124Q26.8406 0.0602248 27.4513 0.120377Q28.0621 0.180529 28.6691 0.270576Q29.2762 0.360624 29.8781 0.480349Q30.48 0.600074 31.0753 0.749189Q31.6706 0.898303 32.2578 1.07645Q32.8451 1.25459 33.4229 1.46134Q34.0007 1.66809 34.5677 1.90294Q35.1347 2.13778 35.6894 2.40017Q36.2442 2.66256 36.7854 2.95185Q37.3267 3.24114 37.8531 3.55664Q38.3794 3.87214 38.8897 4.21309Q39.4 4.55404 39.8929 4.91961Q40.3858 5.28519 40.8602 5.67451Q41.3346 6.06383 41.7893 6.47596Q42.244 6.88809 42.678 7.32204Q43.1119 7.75598 43.524 8.2107Q43.9362 8.66541 44.3255 9.1398Q44.7148 9.61419 45.0804 10.1071Q45.446 10.6 45.7869 11.1103Q46.1279 11.6206 46.4434 12.1469Q46.7589 12.6733 47.0481 13.2146Q47.3374 13.7558 47.5998 14.3105Q47.8622 14.8653 48.0971 15.4323Q48.3319 15.9993 48.5387 16.5771Q48.7454 17.1549 48.9235 17.7422Q49.1017 18.3294 49.2508 18.9247Q49.3999 19.52 49.5196 20.1219Q49.6394 20.7238 49.7294 21.3309Q49.8195 21.9379 49.8796 22.5487Q49.9398 23.1594 49.9699 23.7724Q50 24.3853 50 24.999L50 25.001Q50 25.6147 49.9699 26.2276Q49.9398 26.8406 49.8796 27.4513Q49.8195 28.0621 49.7294 28.6691Q49.6394 29.2762 49.5196 29.8781Q49.3999 30.48 49.2508 31.0753Q49.1017 31.6706 48.9235 32.2578Q48.7454 32.8451 48.5386 33.4229Q48.3319 34.0007 48.0971 34.5677Q47.8622 35.1347 47.5998 35.6894Q47.3374 36.2442 47.0481 36.7854Q46.7589 37.3267 46.4433 37.8531Q46.1278 38.3794 45.7869 38.8897Q45.4459 39.4 45.0804 39.8929Q44.7148 40.3858 44.3255 40.8602Q43.9362 41.3346 43.524 41.7893Q43.1119 42.244 42.678 42.678Q42.244 43.1119 41.7893 43.524Q41.3346 43.9362 40.8602 44.3255Q40.3858 44.7148 39.8929 45.0804Q39.4 45.446 38.8897 45.7869Q38.3794 46.1279 37.8531 46.4434Q37.3267 46.7589 36.7854 47.0481Q36.2442 47.3374 35.6894 47.5998Q35.1347 47.8622 34.5677 48.0971Q34.0007 48.3319 33.4229 48.5387Q32.8451 48.7454 32.2578 48.9235Q31.6706 49.1017 31.0753 49.2508Q30.48 49.3999 29.8781 49.5196Q29.2762 49.6394 28.6691 49.7294Q28.0621 49.8195 27.4513 49.8796Q26.8406 49.9398 26.2276 49.9699Q25.6147 50 25.001 50L24.999 50Q24.3853 50 23.7724 49.9699Q23.1594 49.9398 22.5487 49.8796Q21.9379 49.8195 21.3309 49.7294Q20.7238 49.6394 20.1219 49.5196Q19.52 49.3999 18.9247 49.2508Q18.3294 49.1017 17.7422 48.9235Q17.1549 48.7454 16.5771 48.5386Q15.9993 48.3319 15.4323 48.0971Q14.8653 47.8622 14.3105 47.5998Q13.7558 47.3374 13.2146 47.0481Q12.6733 46.7589 12.1469 46.4433Q11.6206 46.1278 11.1103 45.7869Q10.6 45.4459 10.1071 45.0804Q9.61419 44.7148 9.1398 44.3255Q8.66541 43.9362 8.2107 43.524Q7.75598 43.1119 7.32204 42.678Q6.88809 42.244 6.47596 41.7893Q6.06383 41.3346 5.67451 40.8602Q5.28519 40.3858 4.91961 39.8929Q4.55404 39.4 4.21309 38.8897Q3.87214 38.3794 3.55664 37.8531Q3.24114 37.3267 2.95185 36.7854Q2.66256 36.2442 2.40017 35.6894Q2.13778 35.1347 1.90294 34.5677Q1.66809 34.0007 1.46134 33.4229Q1.25459 32.8451 1.07645 32.2578Q0.898303 31.6706 0.749189 31.0753Q0.600074 30.48 0.480349 29.8781Q0.360624 29.2762 0.270576 28.6691Q0.180529 28.0621 0.120377 27.4513Q0.0602248 26.8406 0.0301124 26.2276Q0 25.6147 0 25.001L0 24.999Q0 24.3853 0.0301124 23.7724Q0.0602248 23.1594 0.120377 22.5487Q0.180529 21.9379 0.270576 21.3309Q0.360624 20.7238 0.480349 20.1219Q0.600074 19.52 0.749189 18.9247Q0.898303 18.3294 1.07645 17.7422Q1.25459 17.1549 1.46134 16.5771Q1.66809 15.9993 1.90294 15.4323Q2.13778 14.8653 2.40017 14.3105Q2.66256 13.7558 2.95185 13.2146Q3.24114 12.6733 3.55664 12.1469Q3.87214 11.6206 4.21309 11.1103Q4.55404 10.6 4.91961 10.1071Q5.28519 9.61419 5.67451 9.1398Q6.06383 8.66541 6.47596 8.2107Q6.88809 7.75598 7.32204 7.32204Q7.75598 6.88809 8.2107 6.47596Q8.66541 6.06383 9.1398 5.67451Q9.61419 5.28519 10.1071 4.91961Q10.6 4.55404 11.1103 4.21309Q11.6206 3.87214 12.1469 3.55664Q12.6733 3.24114 13.2146 2.95185Q13.7558 2.66256 14.3105 2.40017Q14.8653 2.13778 15.4323 1.90294Q15.9993 1.66809 16.5771 1.46134Q17.1549 1.25459 17.7422 1.07645Q18.3294 0.898303 18.9247 0.749189Q19.52 0.600074 20.1219 0.480349Q20.7238 0.360624 21.3309 0.270576Q21.9379 0.180529 22.5487 0.120377Q23.1594 0.0602248 23.7724 0.0301124Q24.3853 0 24.999 0L24.999 0Z" id="path_1" />
    <clipPath id="clip_1">
      <use xlink:href="#path_1" />
    </clipPath>
  </defs>
  <g id="Card-Printer-Off" filter="url(#filter_2)">
    <g id="Card-Printer-Off">
      <g id="Bg-Copy-3" filter="url(#filter_1)">
        <use stroke="none" fill="#374148" fill-opacity="0" xlink:href="#path_1" fill-rule="evenodd" />
        <g clip-path="url(#clip_1)">
          <use xlink:href="#path_1" fill="none" stroke="#647480" stroke-opacity="0" stroke-width="2" />
        </g>
      </g>
      <g id="Chat-off" transform="translate(11 17)">
        <g id="Chat-off">
          <path d="M24.001 0L3.999 0Q3.80254 0 3.60703 0.0192563Q3.41152 0.0385126 3.21883 0.0768396Q3.02615 0.115167 2.83815 0.172196Q2.65015 0.229224 2.46865 0.304406Q2.28715 0.379587 2.11388 0.472197Q1.94062 0.564807 1.77727 0.673953Q1.61393 0.783099 1.46206 0.907731Q1.3102 1.03236 1.17128 1.17128Q1.03236 1.3102 0.907731 1.46206Q0.783099 1.61393 0.673953 1.77727Q0.564807 1.94062 0.472197 2.11388Q0.379587 2.28715 0.304406 2.46865Q0.229224 2.65015 0.172196 2.83815Q0.115167 3.02615 0.0768396 3.21883Q0.0385126 3.41152 0.0192563 3.60703Q0 3.80254 0 3.999L0 13.501Q0 13.6238 0.0120334 13.7459Q0.0240667 13.8681 0.0480176 13.9885Q0.0719684 14.1089 0.107606 14.2264Q0.143244 14.3439 0.190225 14.4573Q0.237206 14.5707 0.295079 14.679Q0.352951 14.7873 0.421157 14.8894Q0.489364 14.9914 0.567247 15.0863Q0.64513 15.1812 0.73194 15.2681Q0.81875 15.3549 0.913651 15.4328Q1.00855 15.5106 1.11063 15.5788Q1.21271 15.647 1.32098 15.7049Q1.42925 15.7628 1.54267 15.8098Q1.6561 15.8568 1.77358 15.8924Q1.89106 15.928 2.01147 15.952Q2.13188 15.9759 2.25406 15.988Q2.37623 16 2.499 16L5 16L5 20L9 16L24.001 16Q24.1975 16 24.393 15.9807Q24.5885 15.9615 24.7812 15.9232Q24.9738 15.8848 25.1618 15.8278Q25.3498 15.7708 25.5313 15.6956Q25.7129 15.6204 25.8861 15.5278Q26.0594 15.4352 26.2227 15.326Q26.3861 15.2169 26.5379 15.0923Q26.6898 14.9676 26.8287 14.8287Q26.9676 14.6898 27.0923 14.5379Q27.2169 14.3861 27.326 14.2227Q27.4352 14.0594 27.5278 13.8861Q27.6204 13.7129 27.6956 13.5313Q27.7708 13.3498 27.8278 13.1618Q27.8848 12.9738 27.9232 12.7812Q27.9615 12.5885 27.9807 12.393Q28 12.1975 28 12.001L28 3.999Q28 3.80254 27.9807 3.60703Q27.9615 3.41152 27.9232 3.21883Q27.8848 3.02615 27.8278 2.83815Q27.7708 2.65015 27.6956 2.46865Q27.6204 2.28715 27.5278 2.11388Q27.4352 1.94062 27.326 1.77727Q27.2169 1.61393 27.0923 1.46206Q26.9676 1.3102 26.8287 1.17128Q26.6898 1.03236 26.5379 0.907731Q26.3861 0.783099 26.2227 0.673953Q26.0594 0.564807 25.8861 0.472197Q25.7129 0.379587 25.5313 0.304406Q25.3498 0.229224 25.1618 0.172196Q24.9738 0.115167 24.7812 0.0768396Q24.5885 0.0385126 24.393 0.0192563Q24.1975 0 24.001 0ZM8 9C8.55228 9 9 8.55228 9 8C9 7.44772 8.55228 7 8 7C7.44772 7 7 7.44772 7 8C7 8.55228 7.44772 9 8 9ZM14 9C14.5523 9 15 8.55228 15 8C15 7.44772 14.5523 7 14 7C13.4477 7 13 7.44772 13 8C13 8.55228 13.4477 9 14 9ZM20 9C20.5523 9 21 8.55228 21 8C21 7.44772 20.5523 7 20 7C19.4477 7 19 7.44772 19 8C19 8.55228 19.4477 9 20 9Z" id="Shape" fill="none" fill-rule="evenodd" stroke="#647480" stroke-width="2" stroke-linecap="round" stroke-linejoin="round" />
        </g>
      </g>
    </g>
  </g>
</svg>