<?xml version="1.0" encoding="utf-8"?>
<svg width="18px" height="18px" viewBox="0 0 18 18" version="1.1" xmlns:xlink="http://www.w3.org/1999/xlink" xmlns="http://www.w3.org/2000/svg">
  <g id="CG">
    <g id="BoxexGreen-Box">
      <path d="M8.999 0L9.001 0Q9.22191 0 9.44256 0.0108397Q9.66321 0.0216794 9.88306 0.0433326Q10.1029 0.0649859 10.3214 0.0974006Q10.5399 0.129815 10.7566 0.172913Q10.9733 0.216011 11.1876 0.269689Q11.4019 0.323366 11.6133 0.387494Q11.8247 0.451622 12.0327 0.526045Q12.2407 0.600468 12.4448 0.685008Q12.6489 0.769548 12.8486 0.864Q13.0483 0.958453 13.2431 1.06259Q13.4379 1.16673 13.6274 1.2803Q13.8169 1.39387 14.0006 1.5166Q14.1843 1.63934 14.3617 1.77094Q14.5391 1.90253 14.7099 2.04268Q14.8807 2.18282 15.0444 2.33118Q15.208 2.47954 15.3643 2.63575Q15.5205 2.79195 15.6688 2.95564Q15.8172 3.11933 15.9573 3.29009Q16.0975 3.46086 16.2291 3.6383Q16.3607 3.81574 16.4834 3.99942Q16.6061 4.1831 16.7197 4.37259Q16.8333 4.56207 16.9374 4.7569Q17.0415 4.95173 17.136 5.15143Q17.2304 5.35113 17.315 5.55523Q17.3995 5.75933 17.474 5.96733Q17.5484 6.17533 17.6125 6.38673Q17.6766 6.59813 17.7303 6.81242Q17.784 7.02671 17.8271 7.24338Q17.8702 7.46005 17.9026 7.67857Q17.935 7.89709 17.9567 8.11694Q17.9783 8.33679 17.9892 8.55744Q18 8.77809 18 8.999L18 9.001Q18 9.22191 17.9892 9.44256Q17.9783 9.66321 17.9567 9.88306Q17.935 10.1029 17.9026 10.3214Q17.8702 10.5399 17.8271 10.7566Q17.784 10.9733 17.7303 11.1876Q17.6766 11.4019 17.6125 11.6133Q17.5484 11.8247 17.474 12.0327Q17.3995 12.2407 17.315 12.4448Q17.2304 12.6489 17.136 12.8486Q17.0415 13.0483 16.9374 13.2431Q16.8333 13.4379 16.7197 13.6274Q16.6061 13.8169 16.4834 14.0006Q16.3607 14.1843 16.2291 14.3617Q16.0975 14.5391 15.9573 14.7099Q15.8172 14.8807 15.6688 15.0444Q15.5205 15.208 15.3643 15.3643Q15.208 15.5205 15.0444 15.6688Q14.8807 15.8172 14.7099 15.9573Q14.5391 16.0975 14.3617 16.2291Q14.1843 16.3607 14.0006 16.4834Q13.8169 16.6061 13.6274 16.7197Q13.4379 16.8333 13.2431 16.9374Q13.0483 17.0415 12.8486 17.136Q12.6489 17.2304 12.4448 17.315Q12.2407 17.3995 12.0327 17.474Q11.8247 17.5484 11.6133 17.6125Q11.4019 17.6766 11.1876 17.7303Q10.9733 17.784 10.7566 17.8271Q10.5399 17.8702 10.3214 17.9026Q10.1029 17.935 9.88306 17.9567Q9.66321 17.9783 9.44256 17.9892Q9.22191 18 9.001 18L8.999 18Q8.77809 18 8.55744 17.9892Q8.33679 17.9783 8.11694 17.9567Q7.89709 17.935 7.67857 17.9026Q7.46005 17.8702 7.24338 17.8271Q7.02671 17.784 6.81242 17.7303Q6.59813 17.6766 6.38673 17.6125Q6.17533 17.5484 5.96733 17.474Q5.75933 17.3995 5.55523 17.315Q5.35113 17.2304 5.15143 17.136Q4.95173 17.0415 4.7569 16.9374Q4.56207 16.8333 4.37259 16.7197Q4.1831 16.6061 3.99942 16.4834Q3.81574 16.3607 3.6383 16.2291Q3.46086 16.0975 3.29009 15.9573Q3.11933 15.8172 2.95564 15.6688Q2.79195 15.5205 2.63575 15.3643Q2.47954 15.208 2.33118 15.0444Q2.18282 14.8807 2.04268 14.7099Q1.90253 14.5391 1.77094 14.3617Q1.63934 14.1843 1.5166 14.0006Q1.39387 13.8169 1.2803 13.6274Q1.16673 13.4379 1.06259 13.2431Q0.958453 13.0483 0.864 12.8486Q0.769548 12.6489 0.685008 12.4448Q0.600468 12.2407 0.526045 12.0327Q0.451622 11.8247 0.387494 11.6133Q0.323366 11.4019 0.269689 11.1876Q0.216011 10.9733 0.172913 10.7566Q0.129815 10.5399 0.0974006 10.3214Q0.0649859 10.1029 0.0433326 9.88306Q0.0216794 9.66321 0.0108397 9.44256Q0 9.22191 0 9.001L0 8.999Q0 8.77809 0.0108397 8.55744Q0.0216794 8.33679 0.0433326 8.11694Q0.0649859 7.89709 0.0974006 7.67857Q0.129815 7.46005 0.172913 7.24338Q0.216011 7.02671 0.269689 6.81242Q0.323366 6.59813 0.387494 6.38673Q0.451622 6.17533 0.526045 5.96733Q0.600468 5.75933 0.685008 5.55523Q0.769548 5.35113 0.864 5.15143Q0.958453 4.95173 1.06259 4.7569Q1.16673 4.56207 1.2803 4.37259Q1.39387 4.1831 1.5166 3.99942Q1.63934 3.81574 1.77094 3.6383Q1.90253 3.46086 2.04268 3.29009Q2.18282 3.11933 2.33118 2.95564Q2.47954 2.79195 2.63575 2.63575Q2.79195 2.47954 2.95564 2.33118Q3.11933 2.18282 3.29009 2.04268Q3.46086 1.90253 3.6383 1.77094Q3.81574 1.63934 3.99942 1.5166Q4.1831 1.39387 4.37259 1.2803Q4.56207 1.16673 4.7569 1.06259Q4.95173 0.958453 5.15143 0.864Q5.35113 0.769548 5.55523 0.685008Q5.75933 0.600468 5.96733 0.526045Q6.17533 0.451622 6.38673 0.387494Q6.59813 0.323366 6.81242 0.269689Q7.02671 0.216011 7.24338 0.172913Q7.46005 0.129815 7.67857 0.0974006Q7.89709 0.0649859 8.11694 0.0433326Q8.33679 0.0216794 8.55744 0.0108397Q8.77809 0 8.999 0Z" id="Green-Box" fill="#52D674" fill-rule="evenodd" stroke="none" />
    </g>
  </g>
</svg>