<?xml version="1.0" encoding="utf-8"?>
<svg width="34px" height="33px" viewBox="0 0 34 33" version="1.1" xmlns:xlink="http://www.w3.org/1999/xlink" xmlns="http://www.w3.org/2000/svg">
  <g id="Edit">
    <g id="Edit">
      <path d="M16.499 0L16.501 0Q16.906 0 17.3106 0.0198738Q17.7151 0.0397475 18.1182 0.0794472Q18.5213 0.119147 18.9219 0.178577Q19.3225 0.238007 19.7198 0.317024Q20.117 0.396041 20.5099 0.494454Q20.9028 0.592868 21.2904 0.710441Q21.678 0.828015 22.0593 0.964464Q22.4407 1.10091 22.8149 1.25591Q23.1891 1.41091 23.5552 1.58408Q23.9214 1.75725 24.2786 1.94818Q24.6358 2.13911 24.9832 2.34734Q25.3306 2.55556 25.6673 2.78058Q26.0041 3.0056 26.3294 3.24688Q26.6548 3.48815 26.9679 3.7451Q27.2809 4.00205 27.581 4.27405Q27.8812 4.54605 28.1676 4.83245Q28.4539 5.11884 28.726 5.41895Q28.998 5.71905 29.2549 6.03215Q29.5118 6.34524 29.7531 6.67056Q29.9944 6.99588 30.2194 7.33265Q30.4444 7.66941 30.6527 8.01682Q30.8609 8.36422 31.0518 8.72143Q31.2427 9.07863 31.4159 9.44477Q31.5891 9.81091 31.7441 10.1851Q31.8991 10.5593 32.0355 10.9407Q32.172 11.322 32.2896 11.7096Q32.4071 12.0972 32.5055 12.4901Q32.604 12.883 32.683 13.2802Q32.762 13.6774 32.8214 14.0781Q32.8809 14.4787 32.9206 14.8818Q32.9603 15.2849 32.9801 15.6894Q33 16.094 33 16.499L33 16.501Q33 16.906 32.9801 17.3106Q32.9603 17.7151 32.9206 18.1182Q32.8809 18.5213 32.8214 18.9219Q32.762 19.3225 32.683 19.7198Q32.604 20.117 32.5055 20.5099Q32.4071 20.9028 32.2896 21.2904Q32.172 21.678 32.0355 22.0593Q31.8991 22.4407 31.7441 22.8149Q31.5891 23.1891 31.4159 23.5552Q31.2427 23.9214 31.0518 24.2786Q30.8609 24.6358 30.6527 24.9832Q30.4444 25.3306 30.2194 25.6673Q29.9944 26.0041 29.7531 26.3294Q29.5118 26.6548 29.2549 26.9679Q28.998 27.2809 28.726 27.581Q28.454 27.8812 28.1676 28.1676Q27.8812 28.4539 27.5811 28.726Q27.2809 28.998 26.9679 29.2549Q26.6548 29.5118 26.3294 29.7531Q26.0041 29.9944 25.6674 30.2194Q25.3306 30.4444 24.9832 30.6527Q24.6358 30.8609 24.2786 31.0518Q23.9214 31.2427 23.5552 31.4159Q23.1891 31.5891 22.8149 31.7441Q22.4407 31.8991 22.0593 32.0355Q21.678 32.172 21.2904 32.2896Q20.9028 32.4071 20.5099 32.5055Q20.117 32.604 19.7198 32.683Q19.3225 32.762 18.9219 32.8214Q18.5213 32.8809 18.1182 32.9206Q17.7151 32.9603 17.3106 32.9801Q16.906 33 16.501 33L16.499 33Q16.094 33 15.6894 32.9801Q15.2849 32.9603 14.8818 32.9206Q14.4787 32.8809 14.0781 32.8214Q13.6774 32.762 13.2802 32.683Q12.883 32.604 12.4901 32.5055Q12.0972 32.4071 11.7096 32.2896Q11.322 32.172 10.9407 32.0355Q10.5593 31.8991 10.1851 31.7441Q9.81091 31.5891 9.44477 31.4159Q9.07863 31.2427 8.72143 31.0518Q8.36422 30.8609 8.01682 30.6527Q7.66941 30.4444 7.33265 30.2194Q6.99588 29.9944 6.67056 29.7531Q6.34524 29.5118 6.03215 29.2549Q5.71905 28.998 5.41895 28.726Q5.11884 28.454 4.83245 28.1676Q4.54605 27.8812 4.27405 27.5811Q4.00205 27.2809 3.7451 26.9679Q3.48815 26.6548 3.24688 26.3294Q3.0056 26.0041 2.78058 25.6674Q2.55556 25.3306 2.34734 24.9832Q2.13911 24.6358 1.94818 24.2786Q1.75725 23.9214 1.58408 23.5552Q1.41091 23.1891 1.25591 22.8149Q1.10091 22.4407 0.964464 22.0593Q0.828015 21.678 0.710441 21.2904Q0.592868 20.9028 0.494454 20.5099Q0.396041 20.117 0.317024 19.7198Q0.238007 19.3225 0.178577 18.9219Q0.119147 18.5213 0.0794472 18.1182Q0.0397475 17.7151 0.0198738 17.3106Q0 16.906 0 16.501L0 16.499Q0 16.094 0.0198738 15.6894Q0.0397475 15.2849 0.0794472 14.8818Q0.119147 14.4787 0.178577 14.0781Q0.238007 13.6774 0.317024 13.2802Q0.396041 12.883 0.494454 12.4901Q0.592868 12.0972 0.710441 11.7096Q0.828015 11.322 0.964464 10.9407Q1.10091 10.5593 1.25591 10.1851Q1.41091 9.81091 1.58408 9.44477Q1.75725 9.07863 1.94818 8.72143Q2.13911 8.36422 2.34734 8.01682Q2.55556 7.66941 2.78058 7.33265Q3.0056 6.99588 3.24688 6.67056Q3.48815 6.34524 3.7451 6.03215Q4.00205 5.71905 4.27405 5.41895Q4.54605 5.11884 4.83245 4.83245Q5.11884 4.54605 5.41895 4.27405Q5.71905 4.00205 6.03215 3.7451Q6.34524 3.48815 6.67056 3.24688Q6.99588 3.0056 7.33265 2.78058Q7.66941 2.55556 8.01682 2.34734Q8.36422 2.13911 8.72143 1.94818Q9.07863 1.75725 9.44477 1.58408Q9.81091 1.41091 10.1851 1.25591Q10.5593 1.10091 10.9407 0.964464Q11.322 0.828015 11.7096 0.710441Q12.0972 0.592868 12.4901 0.494454Q12.883 0.396041 13.2802 0.317024Q13.6774 0.238007 14.0781 0.178577Q14.4787 0.119147 14.8818 0.0794472Q15.2849 0.0397475 15.6894 0.0198738Q16.094 0 16.499 0Z" transform="translate(0.5 0)" id="Rectangle" fill="#374148" fill-rule="evenodd" stroke="none" />
      <g id="edit" transform="translate(9.5 7)">
        <path d="M7.28571 0L1.61905 0C0.724872 0 0 0.724872 0 1.61905L0 12.9524C0 13.8466 0.724872 14.5714 1.61905 14.5714L12.9524 14.5714C13.8466 14.5714 14.5714 13.8466 14.5714 12.9524L14.5714 7.28571" transform="translate(0 2.4285715)" id="Path" fill="none" fill-rule="evenodd" stroke="#FFFFFF" stroke-width="2" stroke-linecap="round" stroke-linejoin="round" />
        <path d="M8.5 0.502974C9.17063 -0.167658 10.2579 -0.167658 10.9286 0.502974C11.5992 1.17361 11.5992 2.26091 10.9286 2.93155L3.2381 10.622L0 11.4315L0.809524 8.19345L8.5 0.502974Z" transform="translate(4.857143 0.7113121)" id="Path" fill="none" fill-rule="evenodd" stroke="#FFFFFF" stroke-width="2" stroke-linecap="round" stroke-linejoin="round" />
      </g>
    </g>
  </g>
</svg>