<?xml version="1.0" encoding="utf-8"?>
<svg width="37px" height="40px" viewBox="0 0 37 40" version="1.1" xmlns:xlink="http://www.w3.org/1999/xlink" xmlns="http://www.w3.org/2000/svg">
  <g id="Orders-on">
    <g id="Orders-on">
      <path d="M6.0625 20L0.0625 20L0 0L6 0L6.0625 20ZM1 19L5 19L5 1L1 1L1 19Z" transform="translate(14 10)" id="Shape" fill="#4880FF" fill-rule="evenodd" stroke="none" />
      <path d="M6.0625 20L0.0625 20L0 0L6 0L6.0625 20ZM1 19L5 19L5 1L1 1L1 19Z" transform="translate(7 10)" id="Shape-Copy-2" fill="#4880FF" fill-rule="evenodd" stroke="none" />
      <path d="M6.0625 20L0.0625 20L0 0L6 0L6.0625 20ZM1 19L5 19L5 1L1 1L1 19Z" transform="translate(-1.1368684E-13 10)" id="Shape-Copy-3" fill="#4880FF" fill-rule="evenodd" stroke="none" />
      <path d="M1 0L1 40" transform="translate(35 0)" id="Line-13" fill="none" fill-rule="evenodd" stroke="#4880FF" stroke-width="2" stroke-linecap="round" stroke-linejoin="round" />
    </g>
  </g>
</svg>