<?xml version="1.0" encoding="utf-8"?>
<svg width="18px" height="18px" viewBox="0 0 18 18" version="1.1" xmlns:xlink="http://www.w3.org/1999/xlink" xmlns="http://www.w3.org/2000/svg">
  <defs>
    <filter id="filter_1">
      <feColorMatrix in="SourceGraphic" type="matrix" values="0 0 0 0 0.21568628 0 0 0 0 0.25490198 0 0 0 0 0.28235295 0 0 0 1 0" />
    </filter>
  </defs>
  <g id="Table-View-Off" filter="url(#filter_1)">
    <g id="Table-View-Off">
      <path d="M2.999 0L15.001 0Q15.1483 0 15.295 0.014441Q15.4416 0.028882 15.5861 0.0576249Q15.7306 0.0863679 15.8716 0.129136Q16.0125 0.171904 16.1487 0.228285Q16.2848 0.284667 16.4147 0.354118Q16.5447 0.42357 16.6672 0.505423Q16.7897 0.587276 16.9035 0.680742Q17.0174 0.774208 17.1216 0.878387Q17.2258 0.982566 17.3193 1.09645Q17.4127 1.21034 17.4946 1.33284Q17.5764 1.45535 17.6459 1.58528Q17.7153 1.71522 17.7717 1.85133Q17.8281 1.98745 17.8709 2.12844Q17.9136 2.26942 17.9424 2.41392Q17.9711 2.55842 17.9856 2.70505Q18 2.85167 18 2.999L18 15.001Q18 15.1483 17.9856 15.295Q17.9711 15.4416 17.9424 15.5861Q17.9136 15.7306 17.8709 15.8716Q17.8281 16.0125 17.7717 16.1487Q17.7153 16.2848 17.6459 16.4147Q17.5764 16.5447 17.4946 16.6672Q17.4127 16.7897 17.3193 16.9035Q17.2258 17.0174 17.1216 17.1216Q17.0174 17.2258 16.9035 17.3193Q16.7897 17.4127 16.6672 17.4946Q16.5447 17.5764 16.4147 17.6459Q16.2848 17.7153 16.1487 17.7717Q16.0125 17.8281 15.8716 17.8709Q15.7306 17.9136 15.5861 17.9424Q15.4416 17.9711 15.295 17.9856Q15.1483 18 15.001 18L2.999 18Q2.85167 18 2.70505 17.9856Q2.55842 17.9711 2.41392 17.9424Q2.26942 17.9136 2.12844 17.8709Q1.98745 17.8281 1.85133 17.7717Q1.71522 17.7153 1.58528 17.6459Q1.45535 17.5764 1.33284 17.4946Q1.21034 17.4127 1.09645 17.3193Q0.982566 17.2258 0.878387 17.1216Q0.774208 17.0174 0.680742 16.9035Q0.587276 16.7897 0.505423 16.6672Q0.42357 16.5447 0.354118 16.4147Q0.284667 16.2848 0.228285 16.1487Q0.171904 16.0125 0.129136 15.8716Q0.0863679 15.7306 0.0576249 15.5861Q0.028882 15.4416 0.014441 15.295Q0 15.1483 0 15.001L0 2.999Q0 2.85167 0.014441 2.70505Q0.028882 2.55842 0.0576249 2.41392Q0.0863679 2.26942 0.129136 2.12844Q0.171904 1.98745 0.228285 1.85133Q0.284667 1.71522 0.354118 1.58528Q0.42357 1.45535 0.505423 1.33284Q0.587276 1.21034 0.680742 1.09645Q0.774208 0.982566 0.878387 0.878387Q0.982566 0.774208 1.09645 0.680742Q1.21034 0.587276 1.33284 0.505423Q1.45535 0.42357 1.58528 0.354118Q1.71522 0.284667 1.85133 0.228285Q1.98745 0.171904 2.12844 0.129136Q2.26942 0.0863679 2.41392 0.0576249Q2.55842 0.028882 2.70505 0.014441Q2.85167 0 2.999 0Z" id="Rectangle" fill="none" fill-rule="evenodd" stroke="#647480" stroke-width="2" stroke-linecap="round" stroke-linejoin="round" />
      <path d="M0 1L18 1" transform="translate(0 7)" id="Line-3-Copy-2" fill="none" fill-rule="evenodd" stroke="#647480" stroke-width="2" stroke-linecap="round" stroke-linejoin="round" />
      <path d="M1 0L1 10" transform="translate(8 8)" id="Line-3-Copy-5" fill="none" fill-rule="evenodd" stroke="#647480" stroke-width="2" stroke-linecap="round" stroke-linejoin="round" />
    </g>
  </g>
</svg>