<?xml version="1.0" encoding="utf-8"?>
<svg width="19px" height="19px" viewBox="0 0 19 19" version="1.1" xmlns:xlink="http://www.w3.org/1999/xlink" xmlns="http://www.w3.org/2000/svg">
  <g id="UR">
    <path d="M9.60187 1.78707L16.6938 15.9709Q16.7222 16.0278 16.7432 16.0878Q16.7642 16.1479 16.7774 16.2101Q16.7907 16.2723 16.7959 16.3357Q16.8011 16.399 16.7982 16.4626Q16.7954 16.5261 16.7845 16.5888Q16.7736 16.6514 16.7548 16.7122Q16.7361 16.773 16.7098 16.8309Q16.6835 16.8888 16.6501 16.9429Q16.6166 16.997 16.5766 17.0464Q16.5366 17.0958 16.4906 17.1398Q16.4446 17.1837 16.3934 17.2215Q16.3423 17.2592 16.2867 17.2902Q16.2312 17.3212 16.1722 17.3449Q16.1131 17.3685 16.0516 17.3845Q15.99 17.4005 15.9269 17.4086Q15.8639 17.4167 15.8003 17.4167L1.61642 17.4167Q1.55282 17.4167 1.48973 17.4086Q1.42665 17.4005 1.36509 17.3845Q1.30354 17.3685 1.24451 17.3449Q1.18549 17.3212 1.12994 17.2902Q1.07439 17.2593 1.02322 17.2215Q0.972045 17.1837 0.926075 17.1398Q0.880104 17.0958 0.840078 17.0464Q0.800052 16.997 0.766616 16.9429Q0.73318 16.8888 0.706875 16.8309Q0.680569 16.773 0.661819 16.7122Q0.643069 16.6514 0.632177 16.5888Q0.621284 16.5261 0.618426 16.4626Q0.615567 16.399 0.620788 16.3357Q0.62601 16.2723 0.639226 16.2101Q0.652443 16.1479 0.673442 16.0878Q0.694441 16.0278 0.722883 15.9709L7.8148 1.78707Q7.83027 1.75614 7.84783 1.72635Q7.8654 1.69657 7.88498 1.66807Q7.90456 1.63957 7.92607 1.6125Q7.94757 1.58542 7.9709 1.5599Q7.99422 1.53437 8.01926 1.51052Q8.04429 1.48667 8.07092 1.46461Q8.09754 1.44255 8.12563 1.42238Q8.15372 1.40221 8.18313 1.38403Q8.21254 1.36585 8.24314 1.34975Q8.27374 1.33365 8.30538 1.3197Q8.33702 1.30576 8.36955 1.29403Q8.40208 1.2823 8.43534 1.27286Q8.4686 1.26341 8.50244 1.25628Q8.53627 1.24915 8.57052 1.24438Q8.60477 1.23961 8.63926 1.23722Q8.67376 1.23483 8.70833 1.23483Q8.74291 1.23483 8.77741 1.23722Q8.8119 1.23961 8.84615 1.24438Q8.8804 1.24915 8.91423 1.25628Q8.94807 1.26341 8.98133 1.27286Q9.01459 1.2823 9.04712 1.29403Q9.07965 1.30576 9.11129 1.3197Q9.14293 1.33365 9.17353 1.34975Q9.20413 1.36585 9.23354 1.38403Q9.26295 1.40221 9.29104 1.42238Q9.31913 1.44255 9.34575 1.46461Q9.37238 1.48667 9.39741 1.51052Q9.42245 1.53437 9.44577 1.5599Q9.4691 1.58542 9.4906 1.6125Q9.51211 1.63957 9.53169 1.66807Q9.55127 1.69657 9.56884 1.72635Q9.5864 1.75614 9.60187 1.78707L9.60187 1.78707Z" transform="translate(0 -1.5833334)" id="Triangle" fill="#F64100" fill-rule="evenodd" stroke="none" />
  </g>
</svg>